%TF.GenerationSoftware,KiCad,Pcbnew,9.0.0*%
%TF.CreationDate,2025-06-14T22:04:31-04:00*%
%TF.ProjectId,equatorial-mount,65717561-746f-4726-9961-6c2d6d6f756e,rev?*%
%TF.SameCoordinates,Original*%
%TF.FileFunction,Soldermask,Bot*%
%TF.FilePolarity,Negative*%
%FSLAX46Y46*%
G04 Gerber Fmt 4.6, Leading zero omitted, Abs format (unit mm)*
G04 Created by KiCad (PCBNEW 9.0.0) date 2025-06-14 22:04:31*
%MOMM*%
%LPD*%
G01*
G04 APERTURE LIST*
G04 Aperture macros list*
%AMRoundRect*
0 Rectangle with rounded corners*
0 $1 Rounding radius*
0 $2 $3 $4 $5 $6 $7 $8 $9 X,Y pos of 4 corners*
0 Add a 4 corners polygon primitive as box body*
4,1,4,$2,$3,$4,$5,$6,$7,$8,$9,$2,$3,0*
0 Add four circle primitives for the rounded corners*
1,1,$1+$1,$2,$3*
1,1,$1+$1,$4,$5*
1,1,$1+$1,$6,$7*
1,1,$1+$1,$8,$9*
0 Add four rect primitives between the rounded corners*
20,1,$1+$1,$2,$3,$4,$5,0*
20,1,$1+$1,$4,$5,$6,$7,0*
20,1,$1+$1,$6,$7,$8,$9,0*
20,1,$1+$1,$8,$9,$2,$3,0*%
%AMFreePoly0*
4,1,37,0.603843,0.796157,0.639018,0.796157,0.711114,0.766294,0.766294,0.711114,0.796157,0.639018,0.796157,0.603843,0.800000,0.600000,0.800000,-0.600000,0.796157,-0.603843,0.796157,-0.639018,0.766294,-0.711114,0.711114,-0.766294,0.639018,-0.796157,0.603843,-0.796157,0.600000,-0.800000,0.000000,-0.800000,0.000000,-0.796148,-0.078414,-0.796148,-0.232228,-0.765552,-0.377117,-0.705537,
-0.507515,-0.618408,-0.618408,-0.507515,-0.705537,-0.377117,-0.765552,-0.232228,-0.796148,-0.078414,-0.796148,0.078414,-0.765552,0.232228,-0.705537,0.377117,-0.618408,0.507515,-0.507515,0.618408,-0.377117,0.705537,-0.232228,0.765552,-0.078414,0.796148,0.000000,0.796148,0.000000,0.800000,0.600000,0.800000,0.603843,0.796157,0.603843,0.796157,$1*%
%AMFreePoly1*
4,1,37,0.000000,0.796148,0.078414,0.796148,0.232228,0.765552,0.377117,0.705537,0.507515,0.618408,0.618408,0.507515,0.705537,0.377117,0.765552,0.232228,0.796148,0.078414,0.796148,-0.078414,0.765552,-0.232228,0.705537,-0.377117,0.618408,-0.507515,0.507515,-0.618408,0.377117,-0.705537,0.232228,-0.765552,0.078414,-0.796148,0.000000,-0.796148,0.000000,-0.800000,-0.600000,-0.800000,
-0.603843,-0.796157,-0.639018,-0.796157,-0.711114,-0.766294,-0.766294,-0.711114,-0.796157,-0.639018,-0.796157,-0.603843,-0.800000,-0.600000,-0.800000,0.600000,-0.796157,0.603843,-0.796157,0.639018,-0.766294,0.711114,-0.711114,0.766294,-0.639018,0.796157,-0.603843,0.796157,-0.600000,0.800000,0.000000,0.800000,0.000000,0.796148,0.000000,0.796148,$1*%
G04 Aperture macros list end*
%ADD10C,0.000000*%
%ADD11C,3.200000*%
%ADD12R,1.350000X1.350000*%
%ADD13O,1.350000X1.350000*%
%ADD14C,2.200000*%
%ADD15C,1.850000*%
%ADD16RoundRect,0.200000X-0.600000X-0.600000X0.600000X-0.600000X0.600000X0.600000X-0.600000X0.600000X0*%
%ADD17C,1.600000*%
%ADD18FreePoly0,0.000000*%
%ADD19FreePoly1,0.000000*%
G04 APERTURE END LIST*
D10*
%TO.C,G\u002A\u002A\u002A*%
G36*
X133207640Y-123656535D02*
G01*
X133670056Y-123682738D01*
X134185938Y-123732569D01*
X134743343Y-123804835D01*
X135330328Y-123898345D01*
X135934951Y-124011907D01*
X136848264Y-124218250D01*
X137826293Y-124480053D01*
X138856152Y-124792484D01*
X139928839Y-125151497D01*
X141035350Y-125553046D01*
X142166682Y-125993085D01*
X143313829Y-126467568D01*
X144467791Y-126972447D01*
X145619561Y-127503677D01*
X146760138Y-128057211D01*
X147880517Y-128629003D01*
X148971694Y-129215007D01*
X150024667Y-129811176D01*
X151030432Y-130413464D01*
X151979985Y-131017824D01*
X152864322Y-131620211D01*
X152870788Y-131624784D01*
X153542502Y-132118208D01*
X154145629Y-132598869D01*
X154678557Y-133064663D01*
X155139674Y-133513486D01*
X155527369Y-133943232D01*
X155840029Y-134351798D01*
X156076043Y-134737078D01*
X156233799Y-135096970D01*
X156311686Y-135429367D01*
X156308090Y-135732166D01*
X156221400Y-136003262D01*
X156088700Y-136197403D01*
X155855352Y-136398611D01*
X155546756Y-136561682D01*
X155167734Y-136685113D01*
X154723106Y-136767403D01*
X154217695Y-136807048D01*
X153656320Y-136802548D01*
X153336461Y-136784072D01*
X152449951Y-136698097D01*
X151529994Y-136562012D01*
X150604378Y-136380347D01*
X149700890Y-136157633D01*
X149559967Y-136118094D01*
X149310071Y-136045168D01*
X149025898Y-135959831D01*
X148727758Y-135868392D01*
X148435961Y-135777159D01*
X148170817Y-135692439D01*
X147952636Y-135620541D01*
X147801728Y-135567774D01*
X147786419Y-135561262D01*
X147766305Y-135527285D01*
X147813741Y-135461145D01*
X147816330Y-135458298D01*
X147850836Y-135426988D01*
X147894257Y-135411649D01*
X147962226Y-135414504D01*
X148070378Y-135437778D01*
X148234347Y-135483695D01*
X148469768Y-135554480D01*
X148604285Y-135594990D01*
X149478750Y-135839948D01*
X150303720Y-136038497D01*
X151075342Y-136190167D01*
X151789760Y-136294488D01*
X152443122Y-136350991D01*
X153031574Y-136359204D01*
X153551261Y-136318658D01*
X153998330Y-136228883D01*
X154045053Y-136215434D01*
X154419303Y-136073482D01*
X154710532Y-135894649D01*
X154918542Y-135680154D01*
X155043134Y-135431220D01*
X155084109Y-135149067D01*
X155041269Y-134834915D01*
X154914415Y-134489986D01*
X154703348Y-134115501D01*
X154407869Y-133712681D01*
X154178093Y-133445951D01*
X153751302Y-133012917D01*
X153242205Y-132560842D01*
X152649962Y-132089122D01*
X151973734Y-131597156D01*
X151212679Y-131084341D01*
X150365958Y-130550075D01*
X149432730Y-129993755D01*
X148412154Y-129414779D01*
X147655606Y-129005619D01*
X146776894Y-128552786D01*
X145859158Y-128100885D01*
X144916687Y-127656232D01*
X143963771Y-127225144D01*
X143014701Y-126813936D01*
X142083766Y-126428927D01*
X141185257Y-126076431D01*
X140333463Y-125762766D01*
X139542675Y-125494249D01*
X139040107Y-125336300D01*
X138323372Y-125125015D01*
X137614924Y-124931802D01*
X136929810Y-124760373D01*
X136283076Y-124614442D01*
X135689770Y-124497722D01*
X135164937Y-124413926D01*
X135163582Y-124413742D01*
X134853908Y-124381358D01*
X134505096Y-124360909D01*
X134138760Y-124352225D01*
X133776515Y-124355133D01*
X133439974Y-124369461D01*
X133150754Y-124395038D01*
X132930467Y-124431692D01*
X132637068Y-124519756D01*
X132331832Y-124657569D01*
X132081665Y-124824016D01*
X131904434Y-125009045D01*
X131873232Y-125054216D01*
X131816239Y-125152426D01*
X131784617Y-125252008D01*
X131771195Y-125382878D01*
X131768803Y-125574953D01*
X131768863Y-125589882D01*
X131774745Y-125788931D01*
X131795864Y-125937910D01*
X131840897Y-126075356D01*
X131918522Y-126239802D01*
X131935662Y-126273169D01*
X132168655Y-126664595D01*
X132463630Y-127058660D01*
X132826644Y-127462143D01*
X133263755Y-127881825D01*
X133781019Y-128324487D01*
X133784618Y-128327421D01*
X134030908Y-128522318D01*
X134323633Y-128744565D01*
X134645936Y-128982177D01*
X134980962Y-129223170D01*
X135311855Y-129455557D01*
X135621757Y-129667355D01*
X135893813Y-129846579D01*
X136111167Y-129981242D01*
X136251294Y-130066853D01*
X136366689Y-130150651D01*
X136425398Y-130218777D01*
X136441777Y-130284396D01*
X136436914Y-130354221D01*
X136421043Y-130393203D01*
X136379758Y-130374330D01*
X136272623Y-130314085D01*
X136113861Y-130220390D01*
X135916791Y-130101414D01*
X135694730Y-129965323D01*
X135460995Y-129820284D01*
X135228905Y-129674464D01*
X135011776Y-129536031D01*
X134822926Y-129413151D01*
X134597967Y-129263049D01*
X133920273Y-128789693D01*
X133294312Y-128319613D01*
X132724806Y-127857136D01*
X132216481Y-127406591D01*
X131774061Y-126972303D01*
X131402269Y-126558600D01*
X131105831Y-126169810D01*
X130889469Y-125810259D01*
X130879737Y-125790927D01*
X130741220Y-125450762D01*
X130667240Y-125123233D01*
X130659830Y-124823357D01*
X130721024Y-124566155D01*
X130795025Y-124423609D01*
X130985506Y-124201290D01*
X131253775Y-124015960D01*
X131601585Y-123866760D01*
X132030693Y-123752829D01*
X132542855Y-123673307D01*
X132810631Y-123655151D01*
X133207640Y-123656535D01*
G37*
G36*
X143626845Y-123753717D02*
G01*
X144362815Y-123845655D01*
X145095951Y-124017462D01*
X145812873Y-124267241D01*
X145825691Y-124272494D01*
X146192746Y-124432997D01*
X146517276Y-124599147D01*
X146834819Y-124790689D01*
X147180916Y-125027370D01*
X147185210Y-125030443D01*
X147333349Y-125141943D01*
X147503120Y-125278066D01*
X147681284Y-125427126D01*
X147854600Y-125577435D01*
X148009828Y-125717306D01*
X148133728Y-125835053D01*
X148213061Y-125918989D01*
X148234585Y-125957427D01*
X148210056Y-125957849D01*
X148121171Y-125932362D01*
X147994131Y-125882683D01*
X147773734Y-125787881D01*
X147910539Y-125890234D01*
X147910670Y-125890332D01*
X148017095Y-125970099D01*
X148164478Y-126080737D01*
X148320952Y-126198326D01*
X148424616Y-126286211D01*
X148561931Y-126420814D01*
X148707058Y-126576841D01*
X148845382Y-126737267D01*
X148962286Y-126885068D01*
X149043153Y-127003218D01*
X149073365Y-127074694D01*
X149070535Y-127076324D01*
X149016488Y-127052546D01*
X148904254Y-126988392D01*
X148747617Y-126892007D01*
X148560359Y-126771535D01*
X148462415Y-126708226D01*
X148251360Y-126576078D01*
X148016469Y-126433317D01*
X147770450Y-126287218D01*
X147526007Y-126145052D01*
X147295846Y-126014095D01*
X147092673Y-125901620D01*
X146929193Y-125814901D01*
X146818112Y-125761210D01*
X146772137Y-125747823D01*
X146796415Y-125771623D01*
X146886356Y-125836852D01*
X147031096Y-125935088D01*
X147218736Y-126058272D01*
X147437374Y-126198343D01*
X147586682Y-126294282D01*
X147843484Y-126464717D01*
X148088581Y-126633456D01*
X148299933Y-126785211D01*
X148455504Y-126904693D01*
X148751045Y-127147936D01*
X149013716Y-127368693D01*
X149215760Y-127544103D01*
X149353268Y-127670769D01*
X149422337Y-127745296D01*
X149428202Y-127754003D01*
X149477278Y-127845246D01*
X149537420Y-127977578D01*
X149598773Y-128126219D01*
X149651482Y-128266388D01*
X149685691Y-128373306D01*
X149691545Y-128422191D01*
X149686865Y-128424136D01*
X149629471Y-128404002D01*
X149536376Y-128346113D01*
X149474271Y-128303324D01*
X149391159Y-128255500D01*
X149374984Y-128263709D01*
X149425487Y-128324210D01*
X149542410Y-128433259D01*
X149555693Y-128445083D01*
X149721494Y-128630215D01*
X149818403Y-128832272D01*
X149856482Y-128966557D01*
X149895046Y-129139151D01*
X149918290Y-129289312D01*
X149923044Y-129395264D01*
X149906140Y-129435234D01*
X149888591Y-129429655D01*
X149804137Y-129389135D01*
X149670271Y-129317994D01*
X149506589Y-129226473D01*
X149359891Y-129143347D01*
X148866071Y-128871302D01*
X148311252Y-128575535D01*
X147712781Y-128264782D01*
X147088007Y-127947780D01*
X146454278Y-127633266D01*
X145828941Y-127329978D01*
X145229344Y-127046653D01*
X144672837Y-126792027D01*
X144352757Y-126649922D01*
X143847477Y-126430543D01*
X143316832Y-126205313D01*
X142774369Y-125979683D01*
X142233635Y-125759109D01*
X141708177Y-125549043D01*
X141211542Y-125354940D01*
X140757277Y-125182253D01*
X140358929Y-125036436D01*
X140030045Y-124922943D01*
X139970919Y-124903296D01*
X139836548Y-124854836D01*
X139770989Y-124818894D01*
X139760207Y-124784901D01*
X139790168Y-124742288D01*
X139830632Y-124706567D01*
X139958977Y-124621541D01*
X140142516Y-124517967D01*
X140362195Y-124405430D01*
X140598958Y-124293512D01*
X140833752Y-124191799D01*
X141047522Y-124109872D01*
X141177141Y-124066151D01*
X141795812Y-123896129D01*
X142415566Y-123785004D01*
X142901418Y-123743550D01*
X143626845Y-123753717D01*
G37*
G36*
X134217158Y-124473615D02*
G01*
X134695874Y-124497555D01*
X135194889Y-124543061D01*
X135696911Y-124609229D01*
X136184647Y-124695157D01*
X136211012Y-124700479D01*
X137144379Y-124911220D01*
X138140303Y-125177301D01*
X139191159Y-125496163D01*
X140289322Y-125865245D01*
X141427166Y-126281990D01*
X142597067Y-126743837D01*
X143791399Y-127248227D01*
X144012709Y-127345942D01*
X144447115Y-127543133D01*
X144927949Y-127767023D01*
X145438970Y-128009683D01*
X145963943Y-128263183D01*
X146486629Y-128519593D01*
X146990790Y-128770984D01*
X147460189Y-129009425D01*
X147878588Y-129226987D01*
X148229749Y-129415739D01*
X148336269Y-129474720D01*
X148643562Y-129648044D01*
X148988072Y-129846059D01*
X149355214Y-130060081D01*
X149730405Y-130281427D01*
X150099059Y-130501414D01*
X150446595Y-130711359D01*
X150758426Y-130902578D01*
X151019970Y-131066389D01*
X151216643Y-131194108D01*
X151235326Y-131206644D01*
X151413387Y-131327507D01*
X151615483Y-131466644D01*
X151827441Y-131614067D01*
X152035087Y-131759789D01*
X152224247Y-131893824D01*
X152380749Y-132006185D01*
X152490419Y-132086885D01*
X152539084Y-132125936D01*
X152566760Y-132150344D01*
X152650965Y-132218130D01*
X152767092Y-132308325D01*
X153216901Y-132670130D01*
X153721059Y-133127487D01*
X154148300Y-133579847D01*
X154494483Y-134022748D01*
X154755473Y-134451731D01*
X154814898Y-134576512D01*
X154859117Y-134711699D01*
X154880303Y-134864176D01*
X154886229Y-135070745D01*
X154886231Y-135144910D01*
X154880943Y-135310891D01*
X154862442Y-135424308D01*
X154823908Y-135513870D01*
X154758520Y-135608284D01*
X154735673Y-135637334D01*
X154541501Y-135826772D01*
X154293945Y-135977617D01*
X153984449Y-136093175D01*
X153604460Y-136176750D01*
X153145422Y-136231650D01*
X152715939Y-136251699D01*
X152229040Y-136240375D01*
X151695821Y-136194620D01*
X151104031Y-136113365D01*
X150441418Y-135995540D01*
X150435377Y-135994363D01*
X150174877Y-135939641D01*
X149883821Y-135872001D01*
X149575470Y-135795200D01*
X149263083Y-135712997D01*
X148959917Y-135629150D01*
X148679233Y-135547415D01*
X148434288Y-135471551D01*
X148238342Y-135405316D01*
X148104654Y-135352468D01*
X148046482Y-135316764D01*
X148035837Y-135292176D01*
X148050101Y-135278626D01*
X148104142Y-135283247D01*
X148209766Y-135308339D01*
X148378778Y-135356205D01*
X148622983Y-135429144D01*
X148627067Y-135430377D01*
X149423755Y-135654445D01*
X150178902Y-135834264D01*
X150888696Y-135969817D01*
X151549328Y-136061082D01*
X152156987Y-136108043D01*
X152707863Y-136110678D01*
X153198147Y-136068970D01*
X153624027Y-135982900D01*
X153981693Y-135852448D01*
X154267336Y-135677596D01*
X154477145Y-135458324D01*
X154515245Y-135402401D01*
X154577752Y-135283786D01*
X154605685Y-135158102D01*
X154610792Y-134983619D01*
X154610771Y-134981848D01*
X154580612Y-134721011D01*
X154492531Y-134454672D01*
X154340218Y-134168298D01*
X154117361Y-133847354D01*
X154009048Y-133706856D01*
X153861158Y-133525734D01*
X153710904Y-133358118D01*
X153541238Y-133186182D01*
X153335112Y-132992103D01*
X153075477Y-132758057D01*
X153066705Y-132750259D01*
X152541657Y-132311425D01*
X151936205Y-131853985D01*
X151258159Y-131381867D01*
X150515329Y-130899001D01*
X149715524Y-130409319D01*
X148866554Y-129916749D01*
X147976230Y-129425221D01*
X147052361Y-128938667D01*
X146102757Y-128461015D01*
X145135228Y-127996195D01*
X144157583Y-127548138D01*
X143177633Y-127120774D01*
X142203187Y-126718033D01*
X141242055Y-126343844D01*
X140302047Y-126002138D01*
X139390973Y-125696844D01*
X138516643Y-125431893D01*
X138077306Y-125308442D01*
X137437475Y-125137234D01*
X136863788Y-124996018D01*
X136344792Y-124882547D01*
X135869032Y-124794575D01*
X135425052Y-124729856D01*
X135001399Y-124686143D01*
X134586619Y-124661191D01*
X134391507Y-124655363D01*
X133893050Y-124661834D01*
X133467158Y-124703661D01*
X133104607Y-124782629D01*
X132796170Y-124900527D01*
X132532623Y-125059143D01*
X132461463Y-125118184D01*
X132302714Y-125308991D01*
X132194954Y-125529303D01*
X132155242Y-125747977D01*
X132188988Y-126010996D01*
X132305364Y-126334003D01*
X132502532Y-126685003D01*
X132778176Y-127061569D01*
X133129978Y-127461276D01*
X133555622Y-127881695D01*
X134052788Y-128320400D01*
X134619161Y-128774965D01*
X135252422Y-129242963D01*
X135950254Y-129721967D01*
X136134018Y-129845905D01*
X136295131Y-129960233D01*
X136390218Y-130035547D01*
X136416567Y-130069331D01*
X136371468Y-130059068D01*
X136252209Y-130002242D01*
X136233899Y-129992588D01*
X136083478Y-129904420D01*
X135874877Y-129771618D01*
X135620910Y-129602681D01*
X135334391Y-129406107D01*
X135028133Y-129190395D01*
X134666565Y-128927501D01*
X134040992Y-128444710D01*
X133493683Y-127982732D01*
X133025364Y-127542659D01*
X132636759Y-127125581D01*
X132328591Y-126732589D01*
X132101585Y-126364777D01*
X131956465Y-126023234D01*
X131893955Y-125709053D01*
X131914780Y-125423325D01*
X132019662Y-125167141D01*
X132209327Y-124941592D01*
X132213112Y-124938184D01*
X132456884Y-124760413D01*
X132747258Y-124628835D01*
X133104352Y-124534296D01*
X133389801Y-124494044D01*
X133776036Y-124472144D01*
X134217158Y-124473615D01*
G37*
G36*
X135288274Y-125222994D02*
G01*
X135660210Y-125247105D01*
X136020795Y-125282648D01*
X136350575Y-125329043D01*
X136386517Y-125335132D01*
X137004386Y-125456285D01*
X137689001Y-125618478D01*
X138428614Y-125817806D01*
X139211481Y-126050364D01*
X140025854Y-126312247D01*
X140859989Y-126599552D01*
X141702138Y-126908371D01*
X142540556Y-127234802D01*
X143363496Y-127574940D01*
X144159213Y-127924878D01*
X145156656Y-128388735D01*
X146194449Y-128895516D01*
X147184322Y-129404489D01*
X148121780Y-129912908D01*
X149002327Y-130418028D01*
X149821467Y-130917103D01*
X150574705Y-131407388D01*
X151257546Y-131886138D01*
X151865494Y-132350607D01*
X152394053Y-132798048D01*
X152838728Y-133225718D01*
X152937302Y-133330184D01*
X153257888Y-133708054D01*
X153494076Y-134055978D01*
X153646047Y-134373028D01*
X153713981Y-134658276D01*
X153698059Y-134910794D01*
X153598461Y-135129655D01*
X153415368Y-135313931D01*
X153148961Y-135462693D01*
X152799420Y-135575014D01*
X152366925Y-135649967D01*
X152059671Y-135670120D01*
X151674778Y-135667090D01*
X151243725Y-135640920D01*
X150787581Y-135592907D01*
X150327415Y-135524350D01*
X150274111Y-135514844D01*
X150067223Y-135474012D01*
X149820971Y-135420965D01*
X149551420Y-135359639D01*
X149274631Y-135293973D01*
X149006669Y-135227902D01*
X148763595Y-135165364D01*
X148561474Y-135110296D01*
X148416369Y-135066635D01*
X148344342Y-135038317D01*
X148320386Y-135012966D01*
X148370310Y-135008265D01*
X148502404Y-135030402D01*
X148714105Y-135078929D01*
X149002852Y-135153400D01*
X149011637Y-135155745D01*
X149530098Y-135279531D01*
X150068685Y-135382008D01*
X150606472Y-135460572D01*
X151122535Y-135512623D01*
X151595947Y-135535559D01*
X152005785Y-135526777D01*
X152316842Y-135495046D01*
X152700983Y-135416354D01*
X153006119Y-135298453D01*
X153234568Y-135140614D01*
X153264419Y-135112330D01*
X153364218Y-135000020D01*
X153415561Y-134887857D01*
X153440079Y-134732933D01*
X153428200Y-134477066D01*
X153332199Y-134169458D01*
X153149069Y-133836365D01*
X152878756Y-133477723D01*
X152521203Y-133093467D01*
X152076358Y-132683535D01*
X151544165Y-132247861D01*
X150924570Y-131786381D01*
X150445213Y-131452720D01*
X149545980Y-130868142D01*
X148574694Y-130283635D01*
X147543248Y-129704810D01*
X146463538Y-129137275D01*
X145347458Y-128586641D01*
X144206902Y-128058518D01*
X143053767Y-127558514D01*
X141899945Y-127092240D01*
X140757333Y-126665306D01*
X139637824Y-126283321D01*
X138553313Y-125951895D01*
X138212871Y-125856383D01*
X137590247Y-125694139D01*
X137028337Y-125566793D01*
X136512576Y-125471837D01*
X136028399Y-125406759D01*
X135561240Y-125369051D01*
X135096535Y-125356202D01*
X134832019Y-125356624D01*
X134610062Y-125361173D01*
X134439988Y-125372003D01*
X134301230Y-125391183D01*
X134173221Y-125420779D01*
X134035393Y-125462858D01*
X133746736Y-125583051D01*
X133505616Y-125749913D01*
X133348134Y-125950826D01*
X133274234Y-126184699D01*
X133283858Y-126450440D01*
X133376951Y-126746959D01*
X133553457Y-127073166D01*
X133813319Y-127427971D01*
X134156480Y-127810282D01*
X134322409Y-127974362D01*
X134633649Y-128259621D01*
X134986672Y-128561915D01*
X135359227Y-128862937D01*
X135729065Y-129144379D01*
X136073935Y-129387934D01*
X136214429Y-129483765D01*
X136355762Y-129583588D01*
X136451898Y-129655658D01*
X136487379Y-129688728D01*
X136472712Y-129696656D01*
X136396945Y-129667389D01*
X136265662Y-129593757D01*
X136089023Y-129482617D01*
X135877187Y-129340829D01*
X135640312Y-129175249D01*
X135388559Y-128992736D01*
X135132086Y-128800149D01*
X134881051Y-128604345D01*
X134473113Y-128264206D01*
X134019868Y-127838774D01*
X133651569Y-127430916D01*
X133369105Y-127041746D01*
X133173364Y-126672381D01*
X133065235Y-126323936D01*
X133045969Y-126145400D01*
X133080963Y-125897409D01*
X133196524Y-125686276D01*
X133393928Y-125510608D01*
X133674450Y-125369013D01*
X134039365Y-125260098D01*
X134076155Y-125252476D01*
X134298928Y-125225055D01*
X134588177Y-125211388D01*
X134924444Y-125210895D01*
X135288274Y-125222994D01*
G37*
G36*
X135369187Y-125497574D02*
G01*
X135761219Y-125525490D01*
X136162950Y-125568811D01*
X136554119Y-125626446D01*
X137087723Y-125727159D01*
X137951693Y-125926643D01*
X138869999Y-126178323D01*
X139833391Y-126478174D01*
X140832617Y-126822175D01*
X141858428Y-127206301D01*
X142901572Y-127626528D01*
X143952798Y-128078835D01*
X145002856Y-128559196D01*
X146042495Y-129063589D01*
X147062464Y-129587990D01*
X148053513Y-130128377D01*
X149006390Y-130680725D01*
X149911846Y-131241011D01*
X150760628Y-131805212D01*
X150891560Y-131896491D01*
X151463313Y-132316758D01*
X151959194Y-132719359D01*
X152377941Y-133102690D01*
X152718294Y-133465148D01*
X152978994Y-133805130D01*
X153158780Y-134121033D01*
X153256391Y-134411254D01*
X153270569Y-134674189D01*
X153200051Y-134908236D01*
X153114969Y-135019403D01*
X152935622Y-135151203D01*
X152691077Y-135263046D01*
X152395859Y-135347006D01*
X152308628Y-135362451D01*
X152054832Y-135387554D01*
X151740208Y-135399286D01*
X151385072Y-135398227D01*
X151009740Y-135384956D01*
X150634526Y-135360053D01*
X150279748Y-135324098D01*
X149965720Y-135277670D01*
X149786688Y-135244223D01*
X149516310Y-135189510D01*
X149247178Y-135130811D01*
X148993998Y-135071723D01*
X148771478Y-135015842D01*
X148594326Y-134966763D01*
X148477249Y-134928083D01*
X148434955Y-134903397D01*
X148471783Y-134896020D01*
X148574487Y-134908549D01*
X148719964Y-134938946D01*
X149113471Y-135029095D01*
X149776485Y-135158004D01*
X150393424Y-135247956D01*
X150958347Y-135298696D01*
X151465313Y-135309969D01*
X151908380Y-135281521D01*
X152281605Y-135213096D01*
X152579049Y-135104440D01*
X152609473Y-135088811D01*
X152833784Y-134936475D01*
X152975331Y-134757900D01*
X153034428Y-134550030D01*
X153011385Y-134309809D01*
X152906513Y-134034184D01*
X152720125Y-133720097D01*
X152565873Y-133513011D01*
X152255090Y-133166409D01*
X151864135Y-132796099D01*
X151397037Y-132404765D01*
X150857823Y-131995095D01*
X150250523Y-131569774D01*
X149579163Y-131131490D01*
X148847772Y-130682930D01*
X148060378Y-130226778D01*
X147221009Y-129765723D01*
X146333694Y-129302449D01*
X145402460Y-128839645D01*
X144540540Y-128430958D01*
X143357085Y-127902859D01*
X142167980Y-127412456D01*
X140933519Y-126942896D01*
X140752100Y-126876228D01*
X140579362Y-126812244D01*
X140454704Y-126765528D01*
X140418977Y-126752273D01*
X140216774Y-126683365D01*
X139946029Y-126597927D01*
X139622869Y-126500596D01*
X139263420Y-126396010D01*
X138883810Y-126288807D01*
X138500163Y-126183624D01*
X138128608Y-126085099D01*
X137785269Y-125997869D01*
X137673155Y-125970569D01*
X137001489Y-125825092D01*
X136375849Y-125721138D01*
X135801962Y-125658965D01*
X135285556Y-125638832D01*
X134832358Y-125660996D01*
X134448096Y-125725717D01*
X134138497Y-125833254D01*
X133918198Y-125959944D01*
X133767182Y-126107210D01*
X133684957Y-126286108D01*
X133660090Y-126512880D01*
X133662626Y-126587436D01*
X133691840Y-126760346D01*
X133760295Y-126941893D01*
X133876167Y-127150929D01*
X134047637Y-127406309D01*
X134106480Y-127484678D01*
X134297247Y-127706191D01*
X134542959Y-127959752D01*
X134828869Y-128232042D01*
X135140233Y-128509737D01*
X135462304Y-128779517D01*
X135780338Y-129028059D01*
X136079589Y-129242043D01*
X136180437Y-129313670D01*
X136285105Y-129397241D01*
X136353973Y-129462294D01*
X136378401Y-129498952D01*
X136349747Y-129497336D01*
X136259372Y-129447571D01*
X136227119Y-129427352D01*
X135905207Y-129209701D01*
X135556648Y-128949533D01*
X135198895Y-128661795D01*
X134849398Y-128361433D01*
X134525611Y-128063391D01*
X134244984Y-127782616D01*
X134024970Y-127534053D01*
X133809752Y-127255698D01*
X133649577Y-127016381D01*
X133540736Y-126805587D01*
X133474838Y-126607014D01*
X133443492Y-126404361D01*
X133440861Y-126371101D01*
X133433886Y-126223868D01*
X133448616Y-126125878D01*
X133495839Y-126041769D01*
X133586345Y-125936181D01*
X133594480Y-125927296D01*
X133824010Y-125741941D01*
X134121025Y-125601942D01*
X134470735Y-125514353D01*
X134695257Y-125492314D01*
X135007113Y-125486152D01*
X135369187Y-125497574D01*
G37*
G36*
X135593951Y-126208286D02*
G01*
X135871759Y-126214879D01*
X136020813Y-126220559D01*
X136394873Y-126246721D01*
X136781087Y-126291796D01*
X137189788Y-126357994D01*
X137631307Y-126447523D01*
X138115974Y-126562592D01*
X138654123Y-126705412D01*
X139256085Y-126878190D01*
X139932190Y-127083137D01*
X140366835Y-127219991D01*
X141355877Y-127551573D01*
X142287281Y-127895074D01*
X143184730Y-128259932D01*
X144071912Y-128655584D01*
X144972512Y-129091469D01*
X145131596Y-129171750D01*
X145938136Y-129595627D01*
X146676691Y-130015464D01*
X147365347Y-130442912D01*
X148022190Y-130889621D01*
X148665307Y-131367242D01*
X149312783Y-131887425D01*
X149457056Y-132009399D01*
X149586297Y-132127349D01*
X149663926Y-132215011D01*
X149701805Y-132286287D01*
X149711795Y-132355081D01*
X149711795Y-132355819D01*
X149701440Y-132451224D01*
X149676758Y-132490869D01*
X149631538Y-132467245D01*
X149536427Y-132398872D01*
X149414550Y-132301426D01*
X149326041Y-132231422D01*
X149176269Y-132120788D01*
X148997346Y-131994115D01*
X148804042Y-131861264D01*
X148611123Y-131732098D01*
X148433360Y-131616476D01*
X148285520Y-131524262D01*
X148182372Y-131465315D01*
X148138685Y-131449497D01*
X148158297Y-131477053D01*
X148236364Y-131541139D01*
X148355626Y-131625835D01*
X148416804Y-131668364D01*
X148592146Y-131798988D01*
X148796614Y-131959910D01*
X149009729Y-132134209D01*
X149211012Y-132304964D01*
X149379982Y-132455254D01*
X149496159Y-132568159D01*
X149533999Y-132609127D01*
X149590033Y-132686747D01*
X149593521Y-132759448D01*
X149552549Y-132870589D01*
X149537128Y-132906438D01*
X149491253Y-133000406D01*
X149463490Y-133038086D01*
X149427796Y-133019143D01*
X149323721Y-132958416D01*
X149161896Y-132861986D01*
X148952791Y-132736128D01*
X148706874Y-132587120D01*
X148434614Y-132421238D01*
X148176630Y-132264482D01*
X147761016Y-132016662D01*
X147407105Y-131812941D01*
X147106112Y-131648593D01*
X146849247Y-131518891D01*
X146627723Y-131419108D01*
X146432753Y-131344519D01*
X146388112Y-131329292D01*
X146229817Y-131279305D01*
X146155358Y-131264627D01*
X146164738Y-131285399D01*
X146257960Y-131341764D01*
X146435028Y-131433865D01*
X146583787Y-131515118D01*
X146801197Y-131646632D01*
X147035018Y-131798489D01*
X147254992Y-131951583D01*
X147436364Y-132081960D01*
X147667446Y-132245206D01*
X147885077Y-132396213D01*
X148059290Y-132514025D01*
X148126042Y-132558749D01*
X148258062Y-132651382D01*
X148345958Y-132719216D01*
X148373427Y-132750003D01*
X148368634Y-132750734D01*
X148306791Y-132727908D01*
X148191299Y-132671540D01*
X148042271Y-132591268D01*
X147988991Y-132561529D01*
X147723238Y-132415166D01*
X147468834Y-132278055D01*
X147237171Y-132156046D01*
X147039640Y-132054985D01*
X146887633Y-131980720D01*
X146792541Y-131939100D01*
X146765757Y-131935973D01*
X146774869Y-131945393D01*
X146847091Y-131999227D01*
X146977180Y-132086816D01*
X147150390Y-132198395D01*
X147351978Y-132324200D01*
X147463065Y-132393444D01*
X147674250Y-132529143D01*
X147893219Y-132674093D01*
X148107938Y-132819865D01*
X148306376Y-132958033D01*
X148476501Y-133080167D01*
X148606280Y-133177841D01*
X148683681Y-133242626D01*
X148696672Y-133266093D01*
X148695190Y-133265912D01*
X148638574Y-133241622D01*
X148518544Y-133182059D01*
X148350183Y-133095256D01*
X148148569Y-132989250D01*
X147928782Y-132872074D01*
X147705903Y-132751765D01*
X147495013Y-132636357D01*
X147311190Y-132533886D01*
X147169515Y-132452386D01*
X147057817Y-132388657D01*
X146965538Y-132341302D01*
X146930108Y-132330748D01*
X146964736Y-132365040D01*
X147067105Y-132441519D01*
X147227344Y-132553009D01*
X147435539Y-132692754D01*
X147681776Y-132853999D01*
X147956140Y-133029985D01*
X148104339Y-133126770D01*
X148325682Y-133279300D01*
X148529608Y-133428173D01*
X148685763Y-133551686D01*
X148715202Y-133576652D01*
X148845486Y-133687111D01*
X148945560Y-133771913D01*
X148995756Y-133814386D01*
X148996181Y-133814756D01*
X149003459Y-133872280D01*
X148976848Y-133964170D01*
X148932680Y-134049393D01*
X148887286Y-134086919D01*
X148867612Y-134079349D01*
X148783821Y-134031384D01*
X148653686Y-133948996D01*
X148495593Y-133843606D01*
X148440291Y-133806198D01*
X148240602Y-133674631D01*
X148044577Y-133549942D01*
X147887738Y-133454847D01*
X147769286Y-133384992D01*
X147624465Y-133296649D01*
X147522926Y-133231281D01*
X147460131Y-133189663D01*
X147436062Y-133182536D01*
X147467874Y-133228049D01*
X147468352Y-133228647D01*
X147528815Y-133283606D01*
X147647601Y-133376489D01*
X147807747Y-133494467D01*
X147992291Y-133624709D01*
X148122946Y-133715599D01*
X148378681Y-133898503D01*
X148563426Y-134039617D01*
X148681991Y-134142981D01*
X148739186Y-134212635D01*
X148739821Y-134252620D01*
X148731878Y-134257597D01*
X148660753Y-134250833D01*
X148557415Y-134203464D01*
X148496661Y-134168126D01*
X148355169Y-134088297D01*
X148174417Y-133988055D01*
X147978941Y-133881074D01*
X147696467Y-133725375D01*
X147300922Y-133502167D01*
X146876923Y-133258064D01*
X146451293Y-133008389D01*
X146362363Y-132957981D01*
X146212669Y-132878525D01*
X146046650Y-132794530D01*
X145883721Y-132715376D01*
X145743303Y-132650447D01*
X145644812Y-132609123D01*
X145607666Y-132600787D01*
X145607899Y-132601506D01*
X145648835Y-132633520D01*
X145746531Y-132698605D01*
X145881275Y-132783591D01*
X145951478Y-132827513D01*
X146087695Y-132918448D01*
X146144165Y-132965942D01*
X146122087Y-132968330D01*
X146022657Y-132923947D01*
X145847074Y-132831128D01*
X145663276Y-132730519D01*
X145409720Y-132593805D01*
X145160533Y-132461513D01*
X144928340Y-132340169D01*
X144725768Y-132236297D01*
X144565441Y-132156420D01*
X144459986Y-132107063D01*
X144422029Y-132094751D01*
X144424355Y-132100081D01*
X144474737Y-132143400D01*
X144570233Y-132205989D01*
X144896355Y-132402313D01*
X145260855Y-132623152D01*
X145607905Y-132834840D01*
X145927359Y-133031114D01*
X146209072Y-133205713D01*
X146442898Y-133352374D01*
X146618690Y-133464834D01*
X146726305Y-133536831D01*
X146810369Y-133596576D01*
X147055268Y-133773031D01*
X147277502Y-133936576D01*
X147466688Y-134079295D01*
X147612439Y-134193275D01*
X147704371Y-134270602D01*
X147732100Y-134303359D01*
X147716882Y-134300762D01*
X147639588Y-134262643D01*
X147513504Y-134189758D01*
X147356386Y-134092092D01*
X147315761Y-134066284D01*
X147088442Y-133926549D01*
X146837733Y-133778233D01*
X146610898Y-133649401D01*
X146471264Y-133573546D01*
X146210767Y-133436089D01*
X145917779Y-133285434D01*
X145602639Y-133126543D01*
X145275691Y-132964379D01*
X144947276Y-132803907D01*
X144627735Y-132650089D01*
X144327411Y-132507889D01*
X144056645Y-132382269D01*
X143825778Y-132278194D01*
X143645152Y-132200626D01*
X143525109Y-132154529D01*
X143475992Y-132144865D01*
X143481474Y-132158446D01*
X143543620Y-132204357D01*
X143653786Y-132265898D01*
X143887070Y-132384835D01*
X144199028Y-132546835D01*
X144471781Y-132693844D01*
X144721447Y-132835695D01*
X144964143Y-132982222D01*
X145215987Y-133143258D01*
X145493095Y-133328634D01*
X145811583Y-133548185D01*
X146187571Y-133811743D01*
X146268882Y-133868961D01*
X146556005Y-134070313D01*
X146844703Y-134271827D01*
X147115972Y-134460289D01*
X147350808Y-134622488D01*
X147530206Y-134745209D01*
X147550796Y-134759224D01*
X147719994Y-134878678D01*
X147850517Y-134978435D01*
X147929814Y-135048418D01*
X147945338Y-135078551D01*
X147911751Y-135078329D01*
X147798324Y-135048888D01*
X147626539Y-134987807D01*
X147411024Y-134900813D01*
X147166404Y-134793636D01*
X146907307Y-134672003D01*
X146542496Y-134494872D01*
X146746376Y-134667107D01*
X146823450Y-134733242D01*
X146979122Y-134871197D01*
X147111187Y-134993171D01*
X147183726Y-135063039D01*
X147228906Y-135111119D01*
X147211950Y-135109052D01*
X147135314Y-135064051D01*
X147094570Y-135039313D01*
X146647375Y-134762959D01*
X146253505Y-134510396D01*
X145926876Y-134290533D01*
X145897449Y-134270419D01*
X145748329Y-134174344D01*
X145553704Y-134055330D01*
X145325970Y-133920324D01*
X145077522Y-133776274D01*
X144820753Y-133630125D01*
X144568059Y-133488825D01*
X144331833Y-133359320D01*
X144124470Y-133248558D01*
X143958365Y-133163484D01*
X143845912Y-133111047D01*
X143799505Y-133098192D01*
X143812519Y-133132342D01*
X143882255Y-133186434D01*
X143944175Y-133223902D01*
X144472108Y-133545892D01*
X144921197Y-133824791D01*
X145292471Y-134061264D01*
X145586957Y-134255975D01*
X145805683Y-134409589D01*
X145949677Y-134522769D01*
X145968124Y-134539021D01*
X146010989Y-134581974D01*
X145996703Y-134586148D01*
X145917915Y-134549398D01*
X145767271Y-134469580D01*
X145633069Y-134397526D01*
X145397917Y-134274766D01*
X145189191Y-134172722D01*
X144978814Y-134078540D01*
X144738709Y-133979369D01*
X144440799Y-133862354D01*
X144294506Y-133806390D01*
X144105456Y-133737822D01*
X143995399Y-133704559D01*
X143964907Y-133707225D01*
X144014553Y-133746441D01*
X144144908Y-133822828D01*
X144356545Y-133937008D01*
X144650036Y-134089602D01*
X144922957Y-134238496D01*
X145229293Y-134420506D01*
X145524789Y-134609193D01*
X145773369Y-134782310D01*
X145988325Y-134940377D01*
X146244091Y-135126170D01*
X146491403Y-135303787D01*
X146698017Y-135449943D01*
X146845211Y-135554972D01*
X146980322Y-135656335D01*
X147068562Y-135728587D01*
X147095686Y-135760599D01*
X147068432Y-135757977D01*
X146974334Y-135721599D01*
X146830648Y-135655046D01*
X146654626Y-135567215D01*
X146463519Y-135467007D01*
X146274580Y-135363318D01*
X146105060Y-135265049D01*
X145972211Y-135181097D01*
X145909537Y-135140936D01*
X145744422Y-135044019D01*
X145529651Y-134925068D01*
X145286046Y-134795503D01*
X145034428Y-134666744D01*
X144925399Y-134611761D01*
X144646014Y-134468061D01*
X144366702Y-134320992D01*
X144114753Y-134185022D01*
X143917460Y-134074617D01*
X143741113Y-133973877D01*
X143515489Y-133848337D01*
X143331580Y-133750099D01*
X143198611Y-133683899D01*
X143125805Y-133654469D01*
X143122388Y-133666545D01*
X143131850Y-133674512D01*
X143207143Y-133727304D01*
X143339763Y-133814574D01*
X143514265Y-133926271D01*
X143715206Y-134052346D01*
X143944808Y-134195915D01*
X144243826Y-134384558D01*
X144545232Y-134576158D01*
X144809641Y-134745760D01*
X145161135Y-134963275D01*
X145552117Y-135186474D01*
X145937057Y-135388605D01*
X146293900Y-135558122D01*
X146600589Y-135683475D01*
X146603021Y-135684357D01*
X146743079Y-135739120D01*
X146837416Y-135783568D01*
X146865726Y-135808153D01*
X146864124Y-135809489D01*
X146797966Y-135817517D01*
X146665457Y-135807105D01*
X146487234Y-135781916D01*
X146283931Y-135745611D01*
X146076187Y-135701852D01*
X145884636Y-135654300D01*
X145729916Y-135606617D01*
X145585530Y-135549902D01*
X145351289Y-135447794D01*
X145077078Y-135320706D01*
X144784934Y-135179342D01*
X144496897Y-135034407D01*
X144235005Y-134896608D01*
X144021296Y-134776649D01*
X143894137Y-134704080D01*
X143808665Y-134661930D01*
X143793082Y-134665221D01*
X143844523Y-134710558D01*
X143960125Y-134794546D01*
X144137020Y-134913788D01*
X144254866Y-134986894D01*
X144472863Y-135111079D01*
X144737091Y-135253097D01*
X145029580Y-135404032D01*
X145332360Y-135554969D01*
X145627457Y-135696990D01*
X145896902Y-135821181D01*
X146122723Y-135918626D01*
X146286949Y-135980409D01*
X146533019Y-136059536D01*
X146384317Y-136122061D01*
X146285568Y-136158304D01*
X146186407Y-136176223D01*
X146075526Y-136170052D01*
X145934882Y-136136874D01*
X145746429Y-136073770D01*
X145492121Y-135977825D01*
X145468679Y-135968797D01*
X145266950Y-135893889D01*
X145099112Y-135836344D01*
X144982087Y-135801681D01*
X144932799Y-135795419D01*
X144928058Y-135801509D01*
X144950245Y-135820788D01*
X144951126Y-135820828D01*
X145014314Y-135848844D01*
X145106050Y-135912745D01*
X145220054Y-136003689D01*
X145106050Y-135962173D01*
X145091078Y-135956377D01*
X144989888Y-135912829D01*
X144830264Y-135840758D01*
X144630935Y-135748699D01*
X144410628Y-135645189D01*
X144330686Y-135607496D01*
X144133229Y-135516100D01*
X143974080Y-135444903D01*
X143867865Y-135400352D01*
X143829210Y-135388894D01*
X143839709Y-135402222D01*
X143905805Y-135455146D01*
X144012543Y-135529391D01*
X144074178Y-135571932D01*
X144154536Y-135635563D01*
X144178458Y-135668132D01*
X144136538Y-135656629D01*
X144023220Y-135610999D01*
X143850164Y-135536237D01*
X143628849Y-135437629D01*
X143370751Y-135320458D01*
X143087349Y-135190010D01*
X142790120Y-135051568D01*
X142490543Y-134910418D01*
X142200095Y-134771844D01*
X141930254Y-134641129D01*
X141692497Y-134523560D01*
X141585858Y-134470494D01*
X141385133Y-134372951D01*
X141221915Y-134296777D01*
X141110777Y-134248677D01*
X141066290Y-134235357D01*
X141076260Y-134245575D01*
X141150002Y-134295004D01*
X141286055Y-134379072D01*
X141473603Y-134491260D01*
X141701833Y-134625051D01*
X141959929Y-134773929D01*
X141980416Y-134785679D01*
X142299835Y-134973385D01*
X142641421Y-135181305D01*
X142979632Y-135393436D01*
X143288928Y-135593773D01*
X143543767Y-135766315D01*
X143709458Y-135881009D01*
X143956285Y-136047837D01*
X144189852Y-136201385D01*
X144389866Y-136328376D01*
X144536032Y-136415532D01*
X144556404Y-136426951D01*
X144709915Y-136517370D01*
X144783774Y-136570424D01*
X144780876Y-136586817D01*
X144704117Y-136567252D01*
X144556391Y-136512431D01*
X144340595Y-136423059D01*
X144059625Y-136299838D01*
X143788120Y-136180052D01*
X143573519Y-136089686D01*
X143438889Y-136039015D01*
X143384693Y-136028186D01*
X143411394Y-136057350D01*
X143519453Y-136126653D01*
X143666828Y-136215331D01*
X143947176Y-136385681D01*
X144153030Y-136514335D01*
X144287435Y-136604135D01*
X144353437Y-136657924D01*
X144354082Y-136678543D01*
X144292416Y-136668835D01*
X144171484Y-136631643D01*
X143994332Y-136569808D01*
X143798343Y-136494057D01*
X143460050Y-136346215D01*
X143079439Y-136163968D01*
X142676136Y-135957462D01*
X142269767Y-135736844D01*
X141879959Y-135512260D01*
X141526338Y-135293857D01*
X141475915Y-135262635D01*
X141428364Y-135242662D01*
X141445775Y-135277101D01*
X141489062Y-135316875D01*
X141600297Y-135402184D01*
X141761114Y-135517795D01*
X141956339Y-135653443D01*
X142170801Y-135798860D01*
X142389328Y-135943783D01*
X142596747Y-136077945D01*
X142777886Y-136191082D01*
X142917574Y-136272926D01*
X143037912Y-136341735D01*
X143108456Y-136390241D01*
X143101023Y-136403601D01*
X143014147Y-136381623D01*
X142846366Y-136324116D01*
X142596213Y-136230887D01*
X142428201Y-136167940D01*
X142257011Y-136106287D01*
X142132390Y-136064291D01*
X142073555Y-136048652D01*
X142067532Y-136049189D01*
X142080870Y-136074247D01*
X142169467Y-136134147D01*
X142327240Y-136225342D01*
X142548105Y-136344283D01*
X142825978Y-136487425D01*
X142828673Y-136488789D01*
X143010568Y-136582503D01*
X143153709Y-136659345D01*
X143243789Y-136711412D01*
X143266500Y-136730799D01*
X143242324Y-136726185D01*
X143144574Y-136698164D01*
X142993683Y-136650313D01*
X142810485Y-136589105D01*
X142736758Y-136563346D01*
X142292464Y-136388229D01*
X141806965Y-136167221D01*
X141304065Y-135911685D01*
X140807569Y-135632986D01*
X140747437Y-135597500D01*
X140539674Y-135475027D01*
X140356429Y-135367199D01*
X140215702Y-135284600D01*
X140135494Y-135237816D01*
X140097740Y-135221619D01*
X140115774Y-135252702D01*
X140199759Y-135336151D01*
X140346905Y-135469366D01*
X140554421Y-135649749D01*
X140819515Y-135874702D01*
X141014863Y-136030481D01*
X141356474Y-136269144D01*
X141685943Y-136460285D01*
X141830402Y-136535637D01*
X141968617Y-136611748D01*
X142054060Y-136663945D01*
X142072290Y-136683870D01*
X142041983Y-136680744D01*
X141929533Y-136652685D01*
X141767214Y-136602255D01*
X141578083Y-136537499D01*
X141385198Y-136466464D01*
X141211617Y-136397196D01*
X141080399Y-136337742D01*
X140998042Y-136296878D01*
X140852466Y-136228308D01*
X140745658Y-136182511D01*
X140696092Y-136166090D01*
X140653107Y-136165777D01*
X140673476Y-136198709D01*
X140748183Y-136254551D01*
X140868211Y-136322968D01*
X140973185Y-136378987D01*
X141037156Y-136421287D01*
X141021520Y-136428634D01*
X140929050Y-136400659D01*
X140762513Y-136336994D01*
X140353430Y-136155907D01*
X139687937Y-135784798D01*
X139075155Y-135342949D01*
X138519251Y-134835383D01*
X138024394Y-134267125D01*
X137594752Y-133643197D01*
X137234495Y-132968625D01*
X136947789Y-132248430D01*
X136738804Y-131487637D01*
X136708354Y-131317764D01*
X136671376Y-130998965D01*
X136646880Y-130634115D01*
X136635497Y-130250134D01*
X136637859Y-129873945D01*
X136654598Y-129532468D01*
X136686346Y-129252625D01*
X136745125Y-128944023D01*
X136897108Y-128364827D01*
X137095986Y-127805948D01*
X137333120Y-127290200D01*
X137599869Y-126840396D01*
X137678083Y-126714409D01*
X137726653Y-126612539D01*
X137731843Y-126561763D01*
X137692811Y-126543047D01*
X137571717Y-126509492D01*
X137390837Y-126471326D01*
X137168474Y-126431735D01*
X136922931Y-126393902D01*
X136672512Y-126361011D01*
X136435520Y-126336247D01*
X136050676Y-126317847D01*
X135581820Y-126344216D01*
X135174148Y-126428201D01*
X135010494Y-126503947D01*
X134857133Y-126628634D01*
X134749520Y-126775605D01*
X134708923Y-126922276D01*
X134748386Y-127162612D01*
X134867095Y-127437667D01*
X135060479Y-127736590D01*
X135323946Y-128053213D01*
X135652905Y-128381365D01*
X136042765Y-128714876D01*
X136183852Y-128828831D01*
X136317552Y-128940023D01*
X136408323Y-129019355D01*
X136441777Y-129054577D01*
X136440384Y-129059200D01*
X136394710Y-129048436D01*
X136291920Y-128986752D01*
X136142098Y-128881180D01*
X135955329Y-128738750D01*
X135741698Y-128566494D01*
X135623091Y-128466741D01*
X135259270Y-128134643D01*
X134957428Y-127815970D01*
X134721505Y-127516152D01*
X134555441Y-127240621D01*
X134463176Y-126994806D01*
X134448650Y-126784140D01*
X134464407Y-126704517D01*
X134549521Y-126530713D01*
X134706152Y-126392983D01*
X134943256Y-126282240D01*
X135004116Y-126261669D01*
X135112282Y-126233536D01*
X135233671Y-126216203D01*
X135387741Y-126208257D01*
X135593951Y-126208286D01*
G37*
G36*
X150227071Y-132084330D02*
G01*
X150355011Y-132168646D01*
X150518344Y-132288365D01*
X150705686Y-132434569D01*
X150905653Y-132598338D01*
X151106860Y-132770756D01*
X151297920Y-132942902D01*
X151467451Y-133105859D01*
X151488616Y-133127206D01*
X151777519Y-133451211D01*
X151980369Y-133747583D01*
X152098546Y-134014463D01*
X152133429Y-134249994D01*
X152086396Y-134452319D01*
X151958827Y-134619581D01*
X151752101Y-134749922D01*
X151467598Y-134841486D01*
X151106696Y-134892415D01*
X150670774Y-134900851D01*
X150161212Y-134864938D01*
X149977566Y-134843140D01*
X149673621Y-134799244D01*
X149378922Y-134748130D01*
X149113855Y-134693765D01*
X148898807Y-134640117D01*
X148754165Y-134591151D01*
X148640162Y-134540836D01*
X148764390Y-134565259D01*
X148771373Y-134566631D01*
X149414719Y-134679947D01*
X149979268Y-134751611D01*
X150467369Y-134781557D01*
X150881371Y-134769721D01*
X151223623Y-134716034D01*
X151496474Y-134620433D01*
X151702275Y-134482850D01*
X151713286Y-134472696D01*
X151809725Y-134368505D01*
X151852791Y-134266721D01*
X151862663Y-134121942D01*
X151845571Y-133974479D01*
X151749806Y-133716948D01*
X151571192Y-133430707D01*
X151311287Y-133117784D01*
X150971650Y-132780207D01*
X150553841Y-132420002D01*
X150545253Y-132413020D01*
X150380654Y-132277819D01*
X150246177Y-132164831D01*
X150155476Y-132085698D01*
X150122208Y-132052059D01*
X150145912Y-132044335D01*
X150227071Y-132084330D01*
G37*
%TD*%
D11*
%TO.C,H4*%
X156464000Y-138684000D03*
%TD*%
%TO.C,H3*%
X110236000Y-138684000D03*
%TD*%
%TO.C,H2*%
X156464000Y-74676000D03*
%TD*%
%TO.C,H1*%
X110236000Y-74676000D03*
%TD*%
D12*
%TO.C,J5*%
X109220000Y-100584000D03*
D13*
X109220000Y-102584000D03*
X109220000Y-104584000D03*
X109220000Y-106584000D03*
X109220000Y-108584000D03*
X109220000Y-110584000D03*
%TD*%
D14*
%TO.C,A1*%
X135374500Y-73743000D03*
D15*
X135674500Y-76773000D03*
X140524500Y-76773000D03*
D14*
X140824500Y-73743000D03*
D16*
X129209500Y-73613000D03*
D17*
X129209500Y-76153000D03*
D18*
X129209500Y-78693000D03*
D17*
X129209500Y-81233000D03*
X129209500Y-83773000D03*
X129209500Y-86313000D03*
X129209500Y-88853000D03*
D18*
X129209500Y-91393000D03*
D17*
X129209500Y-93933000D03*
X129209500Y-96473000D03*
X129209500Y-99013000D03*
X129209500Y-101553000D03*
D18*
X129209500Y-104093000D03*
D17*
X129209500Y-106633000D03*
X129209500Y-109173000D03*
X129209500Y-111713000D03*
X129209500Y-114253000D03*
D18*
X129209500Y-116793000D03*
D17*
X129209500Y-119333000D03*
X129209500Y-121873000D03*
X146989500Y-121873000D03*
X146989500Y-119333000D03*
D19*
X146989500Y-116793000D03*
D17*
X146989500Y-114253000D03*
X146989500Y-111713000D03*
X146989500Y-109173000D03*
X146989500Y-106633000D03*
D19*
X146989500Y-104093000D03*
D17*
X146989500Y-101553000D03*
X146989500Y-99013000D03*
X146989500Y-96473000D03*
X146989500Y-93933000D03*
D19*
X146989500Y-91393000D03*
D17*
X146989500Y-88853000D03*
X146989500Y-86313000D03*
X146989500Y-83773000D03*
X146989500Y-81233000D03*
D19*
X146989500Y-78693000D03*
D17*
X146989500Y-76153000D03*
X146989500Y-73613000D03*
%TD*%
D12*
%TO.C,J2*%
X109474000Y-81868000D03*
D13*
X109474000Y-83868000D03*
X109474000Y-85868000D03*
X109474000Y-87868000D03*
X109474000Y-89868000D03*
X109474000Y-91868000D03*
%TD*%
M02*
