%TF.GenerationSoftware,KiCad,Pcbnew,9.0.0*%
%TF.CreationDate,2025-06-14T22:04:31-04:00*%
%TF.ProjectId,equatorial-mount,65717561-746f-4726-9961-6c2d6d6f756e,rev?*%
%TF.SameCoordinates,Original*%
%TF.FileFunction,Copper,L2,Bot*%
%TF.FilePolarity,Positive*%
%FSLAX46Y46*%
G04 Gerber Fmt 4.6, Leading zero omitted, Abs format (unit mm)*
G04 Created by KiCad (PCBNEW 9.0.0) date 2025-06-14 22:04:31*
%MOMM*%
%LPD*%
G01*
G04 APERTURE LIST*
G04 Aperture macros list*
%AMRoundRect*
0 Rectangle with rounded corners*
0 $1 Rounding radius*
0 $2 $3 $4 $5 $6 $7 $8 $9 X,Y pos of 4 corners*
0 Add a 4 corners polygon primitive as box body*
4,1,4,$2,$3,$4,$5,$6,$7,$8,$9,$2,$3,0*
0 Add four circle primitives for the rounded corners*
1,1,$1+$1,$2,$3*
1,1,$1+$1,$4,$5*
1,1,$1+$1,$6,$7*
1,1,$1+$1,$8,$9*
0 Add four rect primitives between the rounded corners*
20,1,$1+$1,$2,$3,$4,$5,0*
20,1,$1+$1,$4,$5,$6,$7,0*
20,1,$1+$1,$6,$7,$8,$9,0*
20,1,$1+$1,$8,$9,$2,$3,0*%
%AMFreePoly0*
4,1,37,0.603843,0.796157,0.639018,0.796157,0.711114,0.766294,0.766294,0.711114,0.796157,0.639018,0.796157,0.603843,0.800000,0.600000,0.800000,-0.600000,0.796157,-0.603843,0.796157,-0.639018,0.766294,-0.711114,0.711114,-0.766294,0.639018,-0.796157,0.603843,-0.796157,0.600000,-0.800000,0.000000,-0.800000,0.000000,-0.796148,-0.078414,-0.796148,-0.232228,-0.765552,-0.377117,-0.705537,
-0.507515,-0.618408,-0.618408,-0.507515,-0.705537,-0.377117,-0.765552,-0.232228,-0.796148,-0.078414,-0.796148,0.078414,-0.765552,0.232228,-0.705537,0.377117,-0.618408,0.507515,-0.507515,0.618408,-0.377117,0.705537,-0.232228,0.765552,-0.078414,0.796148,0.000000,0.796148,0.000000,0.800000,0.600000,0.800000,0.603843,0.796157,0.603843,0.796157,$1*%
%AMFreePoly1*
4,1,37,0.000000,0.796148,0.078414,0.796148,0.232228,0.765552,0.377117,0.705537,0.507515,0.618408,0.618408,0.507515,0.705537,0.377117,0.765552,0.232228,0.796148,0.078414,0.796148,-0.078414,0.765552,-0.232228,0.705537,-0.377117,0.618408,-0.507515,0.507515,-0.618408,0.377117,-0.705537,0.232228,-0.765552,0.078414,-0.796148,0.000000,-0.796148,0.000000,-0.800000,-0.600000,-0.800000,
-0.603843,-0.796157,-0.639018,-0.796157,-0.711114,-0.766294,-0.766294,-0.711114,-0.796157,-0.639018,-0.796157,-0.603843,-0.800000,-0.600000,-0.800000,0.600000,-0.796157,0.603843,-0.796157,0.639018,-0.766294,0.711114,-0.711114,0.766294,-0.639018,0.796157,-0.603843,0.796157,-0.600000,0.800000,0.000000,0.800000,0.000000,0.796148,0.000000,0.796148,$1*%
G04 Aperture macros list end*
%TA.AperFunction,ComponentPad*%
%ADD10R,1.350000X1.350000*%
%TD*%
%TA.AperFunction,ComponentPad*%
%ADD11O,1.350000X1.350000*%
%TD*%
%TA.AperFunction,ComponentPad*%
%ADD12C,0.600000*%
%TD*%
%TA.AperFunction,ComponentPad*%
%ADD13RoundRect,0.200000X-0.600000X-0.600000X0.600000X-0.600000X0.600000X0.600000X-0.600000X0.600000X0*%
%TD*%
%TA.AperFunction,ComponentPad*%
%ADD14C,1.600000*%
%TD*%
%TA.AperFunction,ComponentPad*%
%ADD15FreePoly0,0.000000*%
%TD*%
%TA.AperFunction,ComponentPad*%
%ADD16FreePoly1,0.000000*%
%TD*%
%TA.AperFunction,ViaPad*%
%ADD17C,0.600000*%
%TD*%
%TA.AperFunction,Conductor*%
%ADD18C,0.203200*%
%TD*%
G04 APERTURE END LIST*
D10*
%TO.P,J5,1,Pin_1*%
%TO.N,Net-(J5-Pin_1)*%
X109220000Y-100584000D03*
D11*
%TO.P,J5,2,Pin_2*%
%TO.N,unconnected-(J5-Pin_2-Pad2)*%
X109220000Y-102584000D03*
%TO.P,J5,3,Pin_3*%
%TO.N,Net-(J5-Pin_3)*%
X109220000Y-104584000D03*
%TO.P,J5,4,Pin_4*%
%TO.N,Net-(J5-Pin_4)*%
X109220000Y-106584000D03*
%TO.P,J5,5,Pin_5*%
%TO.N,unconnected-(J5-Pin_5-Pad5)*%
X109220000Y-108584000D03*
%TO.P,J5,6,Pin_6*%
%TO.N,Net-(J5-Pin_6)*%
X109220000Y-110584000D03*
%TD*%
D12*
%TO.P,TP1,1,1*%
%TO.N,+12V*%
X131604000Y-135906000D03*
X131604000Y-136906000D03*
X131604000Y-137906000D03*
X132104000Y-136406000D03*
X132104000Y-137406000D03*
X132604000Y-135906000D03*
X132604000Y-136906000D03*
X132604000Y-137906000D03*
X133089900Y-137404281D03*
X133104000Y-136406000D03*
X133604000Y-135906000D03*
X133604000Y-136906000D03*
X133604000Y-137906000D03*
X134104000Y-136406000D03*
X134104000Y-137406000D03*
X134604000Y-135906000D03*
X134604000Y-136906000D03*
X134604000Y-137906000D03*
X135104000Y-136406000D03*
X135104000Y-137406000D03*
X135604000Y-135906000D03*
X135604000Y-136906000D03*
X135604000Y-137906000D03*
%TD*%
%TO.P,TP3,1,1*%
%TO.N,GND*%
X121444000Y-135906000D03*
X121444000Y-136906000D03*
X121444000Y-137906000D03*
X121944000Y-136406000D03*
X121944000Y-137406000D03*
X122444000Y-135906000D03*
X122444000Y-136906000D03*
X122444000Y-137906000D03*
X122929900Y-137404281D03*
X122944000Y-136406000D03*
X123444000Y-135906000D03*
X123444000Y-136906000D03*
X123444000Y-137906000D03*
X123944000Y-136406000D03*
X123944000Y-137406000D03*
X124444000Y-135906000D03*
X124444000Y-136906000D03*
X124444000Y-137906000D03*
X124944000Y-136406000D03*
X124944000Y-137406000D03*
X125444000Y-135906000D03*
X125444000Y-136906000D03*
X125444000Y-137906000D03*
%TD*%
%TO.P,TP2,1,1*%
%TO.N,+3.3V*%
X153956000Y-87900000D03*
X153956000Y-88900000D03*
X153956000Y-89900000D03*
X154456000Y-88400000D03*
X154456000Y-89400000D03*
X154956000Y-87900000D03*
X154956000Y-88900000D03*
X154956000Y-89900000D03*
X155441900Y-89398281D03*
X155456000Y-88400000D03*
X155956000Y-87900000D03*
X155956000Y-88900000D03*
X155956000Y-89900000D03*
X156456000Y-88400000D03*
X156456000Y-89400000D03*
X156956000Y-87900000D03*
X156956000Y-88900000D03*
X156956000Y-89900000D03*
X157456000Y-88400000D03*
X157456000Y-89400000D03*
X157956000Y-87900000D03*
X157956000Y-88900000D03*
X157956000Y-89900000D03*
%TD*%
D13*
%TO.P,A1,1,GPIO0*%
%TO.N,Net-(A1-GPIO0)*%
X129209500Y-73613000D03*
D14*
%TO.P,A1,2,GPIO1*%
%TO.N,Net-(A1-GPIO1)*%
X129209500Y-76153000D03*
D15*
%TO.P,A1,3,GND*%
%TO.N,GND*%
X129209500Y-78693000D03*
D14*
%TO.P,A1,4,GPIO2*%
%TO.N,Net-(A1-GPIO2)*%
X129209500Y-81233000D03*
%TO.P,A1,5,GPIO3*%
%TO.N,Net-(A1-GPIO3)*%
X129209500Y-83773000D03*
%TO.P,A1,6,GPIO4*%
%TO.N,Net-(A1-GPIO4)*%
X129209500Y-86313000D03*
%TO.P,A1,7,GPIO5*%
%TO.N,Net-(A1-GPIO5)*%
X129209500Y-88853000D03*
D15*
%TO.P,A1,8,GND*%
%TO.N,GND*%
X129209500Y-91393000D03*
D14*
%TO.P,A1,9,GPIO6*%
%TO.N,Net-(A1-GPIO6)*%
X129209500Y-93933000D03*
%TO.P,A1,10,GPIO7*%
%TO.N,Net-(A1-GPIO7)*%
X129209500Y-96473000D03*
%TO.P,A1,11,GPIO8*%
%TO.N,Net-(A1-GPIO8)*%
X129209500Y-99013000D03*
%TO.P,A1,12,GPIO9*%
%TO.N,Net-(A1-GPIO9)*%
X129209500Y-101553000D03*
D15*
%TO.P,A1,13,GND*%
%TO.N,GND*%
X129209500Y-104093000D03*
D14*
%TO.P,A1,14,GPIO10*%
%TO.N,Net-(A1-GPIO10)*%
X129209500Y-106633000D03*
%TO.P,A1,15,GPIO11*%
%TO.N,Net-(A1-GPIO11)*%
X129209500Y-109173000D03*
%TO.P,A1,16,GPIO12*%
%TO.N,unconnected-(A1-GPIO12-Pad16)*%
X129209500Y-111713000D03*
%TO.P,A1,17,GPIO13*%
%TO.N,unconnected-(A1-GPIO13-Pad17)*%
X129209500Y-114253000D03*
D15*
%TO.P,A1,18,GND*%
%TO.N,GND*%
X129209500Y-116793000D03*
D14*
%TO.P,A1,19,GPIO14*%
%TO.N,unconnected-(A1-GPIO14-Pad19)*%
X129209500Y-119333000D03*
%TO.P,A1,20,GPIO15*%
%TO.N,unconnected-(A1-GPIO15-Pad20)*%
X129209500Y-121873000D03*
%TO.P,A1,21,GPIO16*%
%TO.N,unconnected-(A1-GPIO16-Pad21)*%
X146989500Y-121873000D03*
%TO.P,A1,22,GPIO17*%
%TO.N,unconnected-(A1-GPIO17-Pad22)*%
X146989500Y-119333000D03*
D16*
%TO.P,A1,23,GND*%
%TO.N,GND*%
X146989500Y-116793000D03*
D14*
%TO.P,A1,24,GPIO18*%
%TO.N,unconnected-(A1-GPIO18-Pad24)*%
X146989500Y-114253000D03*
%TO.P,A1,25,GPIO19*%
%TO.N,unconnected-(A1-GPIO19-Pad25)*%
X146989500Y-111713000D03*
%TO.P,A1,26,GPIO20*%
%TO.N,unconnected-(A1-GPIO20-Pad26)*%
X146989500Y-109173000D03*
%TO.P,A1,27,GPIO21*%
%TO.N,unconnected-(A1-GPIO21-Pad27)*%
X146989500Y-106633000D03*
D16*
%TO.P,A1,28,GND*%
%TO.N,GND*%
X146989500Y-104093000D03*
D14*
%TO.P,A1,29,GPIO22*%
%TO.N,unconnected-(A1-GPIO22-Pad29)*%
X146989500Y-101553000D03*
%TO.P,A1,30,RUN*%
%TO.N,unconnected-(A1-RUN-Pad30)*%
X146989500Y-99013000D03*
%TO.P,A1,31,GPIO26_ADC0*%
%TO.N,Net-(A1-GPIO26_ADC0)*%
X146989500Y-96473000D03*
%TO.P,A1,32,GPIO27_ADC1*%
%TO.N,Net-(A1-GPIO27_ADC1)*%
X146989500Y-93933000D03*
D16*
%TO.P,A1,33,AGND*%
%TO.N,unconnected-(A1-AGND-Pad33)*%
X146989500Y-91393000D03*
D14*
%TO.P,A1,34,GPIO28_ADC2*%
%TO.N,unconnected-(A1-GPIO28_ADC2-Pad34)*%
X146989500Y-88853000D03*
%TO.P,A1,35,ADC_VREF*%
%TO.N,unconnected-(A1-ADC_VREF-Pad35)*%
X146989500Y-86313000D03*
%TO.P,A1,36,3V3*%
%TO.N,+3.3V*%
X146989500Y-83773000D03*
%TO.P,A1,37,3V3_EN*%
%TO.N,unconnected-(A1-3V3_EN-Pad37)*%
X146989500Y-81233000D03*
D16*
%TO.P,A1,38,GND*%
%TO.N,GND*%
X146989500Y-78693000D03*
D14*
%TO.P,A1,39,VSYS*%
%TO.N,unconnected-(A1-VSYS-Pad39)*%
X146989500Y-76153000D03*
%TO.P,A1,40,VBUS*%
%TO.N,unconnected-(A1-VBUS-Pad40)*%
X146989500Y-73613000D03*
%TD*%
D10*
%TO.P,J2,1,Pin_1*%
%TO.N,Net-(J2-Pin_1)*%
X109474000Y-81868000D03*
D11*
%TO.P,J2,2,Pin_2*%
%TO.N,unconnected-(J2-Pin_2-Pad2)*%
X109474000Y-83868000D03*
%TO.P,J2,3,Pin_3*%
%TO.N,Net-(J2-Pin_3)*%
X109474000Y-85868000D03*
%TO.P,J2,4,Pin_4*%
%TO.N,Net-(J2-Pin_4)*%
X109474000Y-87868000D03*
%TO.P,J2,5,Pin_5*%
%TO.N,unconnected-(J2-Pin_5-Pad5)*%
X109474000Y-89868000D03*
%TO.P,J2,6,Pin_6*%
%TO.N,Net-(J2-Pin_6)*%
X109474000Y-91868000D03*
%TD*%
D12*
%TO.P,TP4,1,1*%
%TO.N,GND*%
X153956000Y-82312000D03*
X153956000Y-83312000D03*
X153956000Y-84312000D03*
X154456000Y-82812000D03*
X154456000Y-83812000D03*
X154956000Y-82312000D03*
X154956000Y-83312000D03*
X154956000Y-84312000D03*
X155441900Y-83810281D03*
X155456000Y-82812000D03*
X155956000Y-82312000D03*
X155956000Y-83312000D03*
X155956000Y-84312000D03*
X156456000Y-82812000D03*
X156456000Y-83812000D03*
X156956000Y-82312000D03*
X156956000Y-83312000D03*
X156956000Y-84312000D03*
X157456000Y-82812000D03*
X157456000Y-83812000D03*
X157956000Y-82312000D03*
X157956000Y-83312000D03*
X157956000Y-84312000D03*
%TD*%
D17*
%TO.N,GND*%
X110490000Y-126365000D03*
X111760000Y-126365000D03*
X113030000Y-126365000D03*
X114300000Y-126365000D03*
X115570000Y-126365000D03*
X115570000Y-121920000D03*
X110490000Y-121920000D03*
X111760000Y-121920000D03*
X114300000Y-121920000D03*
X113030000Y-121920000D03*
X110998000Y-84709000D03*
X110998000Y-83820000D03*
X111506000Y-83058000D03*
X112395000Y-83058000D03*
X113284000Y-83058000D03*
X113284000Y-83820000D03*
X113284000Y-84582000D03*
X110998000Y-87884000D03*
X110998000Y-88900000D03*
X110998000Y-89789000D03*
X110998000Y-90678000D03*
X111887000Y-90678000D03*
X112649000Y-90678000D03*
X111760000Y-87884000D03*
X112649000Y-87884000D03*
X113538000Y-87884000D03*
X113538000Y-88900000D03*
X113538000Y-89789000D03*
X113538000Y-90678000D03*
X120904000Y-84074000D03*
X120904000Y-85852000D03*
X119380000Y-85852000D03*
X120142000Y-86360000D03*
X120904000Y-86868000D03*
X120142000Y-84328000D03*
X120142000Y-85344000D03*
X119380000Y-86868000D03*
X119380000Y-84836000D03*
X120142000Y-87122000D03*
X120904000Y-84836000D03*
X119380000Y-84074000D03*
X113284000Y-107696000D03*
X113284000Y-108585000D03*
X113665000Y-109474000D03*
X112776000Y-109474000D03*
X111887000Y-109474000D03*
X110998000Y-109347000D03*
X110998000Y-108458000D03*
X110998000Y-107696000D03*
X112649000Y-102108000D03*
X110998000Y-104140000D03*
X110998000Y-103124000D03*
X110998000Y-102108000D03*
X111887000Y-102108000D03*
X113538000Y-102108000D03*
X113538000Y-103124000D03*
X113538000Y-104140000D03*
X120142000Y-106426000D03*
X120904000Y-103378000D03*
X119380000Y-103378000D03*
X120142000Y-103632000D03*
X120904000Y-104140000D03*
X119380000Y-104140000D03*
X120142000Y-104648000D03*
X120904000Y-105156000D03*
X119380000Y-105156000D03*
X120142000Y-105664000D03*
X120904000Y-106172000D03*
X119380000Y-106172000D03*
X123952000Y-103886000D03*
X124206000Y-84836000D03*
%TO.N,Net-(A1-GPIO6)*%
X117348000Y-108204000D03*
%TO.N,Net-(A1-GPIO7)*%
X117348000Y-101854000D03*
%TO.N,Net-(A1-GPIO11)*%
X122135997Y-107950000D03*
%TO.N,Net-(A1-GPIO10)*%
X122936000Y-107950000D03*
%TO.N,Net-(A1-GPIO9)*%
X123742396Y-101644396D03*
%TO.N,Net-(A1-GPIO8)*%
X122936000Y-101600000D03*
%TO.N,+3.3V*%
X124460000Y-80010000D03*
X122936000Y-98806000D03*
%TO.N,GND*%
X152400000Y-94996000D03*
X152654000Y-104394000D03*
%TO.N,Net-(A1-GPIO5)*%
X122135997Y-88900000D03*
%TO.N,Net-(A1-GPIO4)*%
X122936000Y-88900000D03*
%TD*%
D18*
%TO.N,Net-(A1-GPIO6)*%
X127301000Y-93933000D02*
X129209500Y-93933000D01*
X121666000Y-101092000D02*
X125222000Y-97536000D01*
X125222000Y-97536000D02*
X125222000Y-96012000D01*
X116745400Y-101604394D02*
X117257794Y-101092000D01*
X125222000Y-96012000D02*
X127301000Y-93933000D01*
X116745400Y-107601400D02*
X116745400Y-101604394D01*
X117257794Y-101092000D02*
X121666000Y-101092000D01*
X117348000Y-108204000D02*
X116745400Y-107601400D01*
%TO.N,Net-(A1-GPIO7)*%
X127047000Y-96473000D02*
X129209500Y-96473000D01*
X117348000Y-101854000D02*
X121666000Y-101854000D01*
X121666000Y-101854000D02*
X127047000Y-96473000D01*
%TO.N,Net-(A1-GPIO11)*%
X123306794Y-109173000D02*
X129209500Y-109173000D01*
X122135997Y-108002203D02*
X123306794Y-109173000D01*
X122135997Y-107950000D02*
X122135997Y-108002203D01*
%TO.N,Net-(A1-GPIO10)*%
X124253000Y-106633000D02*
X129209500Y-106633000D01*
X122936000Y-107950000D02*
X124253000Y-106633000D01*
%TO.N,Net-(A1-GPIO9)*%
X123833792Y-101553000D02*
X129209500Y-101553000D01*
X123742396Y-101644396D02*
X123833792Y-101553000D01*
%TO.N,Net-(A1-GPIO8)*%
X125523000Y-99013000D02*
X122936000Y-101600000D01*
X129209500Y-99013000D02*
X125523000Y-99013000D01*
%TO.N,+3.3V*%
X121533397Y-82936603D02*
X124460000Y-80010000D01*
X122936000Y-98806000D02*
X121533397Y-97403397D01*
X121533397Y-97403397D02*
X121533397Y-82936603D01*
%TO.N,Net-(A1-GPIO5)*%
X122135997Y-89192003D02*
X122135997Y-88900000D01*
X122596993Y-89652999D02*
X122135997Y-89192003D01*
X129209500Y-88853000D02*
X128409501Y-89652999D01*
X128409501Y-89652999D02*
X122596993Y-89652999D01*
%TO.N,Net-(A1-GPIO4)*%
X125523000Y-86313000D02*
X129209500Y-86313000D01*
X122936000Y-88900000D02*
X125523000Y-86313000D01*
%TD*%
%TA.AperFunction,Conductor*%
%TO.N,GND*%
G36*
X122321497Y-90189186D02*
G01*
X122364591Y-90214066D01*
X122517725Y-90255099D01*
X122517727Y-90255099D01*
X128202489Y-90255099D01*
X128269528Y-90274784D01*
X128315283Y-90327588D01*
X128325227Y-90396746D01*
X128296202Y-90460302D01*
X128290170Y-90466780D01*
X128231014Y-90525935D01*
X128168208Y-90602463D01*
X128168204Y-90602469D01*
X128080667Y-90733478D01*
X128080655Y-90733498D01*
X128033990Y-90820801D01*
X127973685Y-90966387D01*
X127944944Y-91061135D01*
X127914201Y-91215697D01*
X127914201Y-91215700D01*
X127904500Y-91314210D01*
X127904500Y-91471789D01*
X127914201Y-91570299D01*
X127914201Y-91570302D01*
X127944944Y-91724864D01*
X127973685Y-91819612D01*
X128033990Y-91965198D01*
X128080655Y-92052501D01*
X128080661Y-92052511D01*
X128127034Y-92121912D01*
X128726537Y-91522409D01*
X128743575Y-91585993D01*
X128809401Y-91700007D01*
X128902493Y-91793099D01*
X129016507Y-91858925D01*
X129080089Y-91875962D01*
X128480585Y-92475465D01*
X128549988Y-92521838D01*
X128549998Y-92521844D01*
X128615954Y-92557099D01*
X128665798Y-92606062D01*
X128681258Y-92674200D01*
X128657426Y-92739879D01*
X128613795Y-92776942D01*
X128527886Y-92820715D01*
X128362286Y-92941028D01*
X128217534Y-93085780D01*
X128217530Y-93085786D01*
X128097213Y-93251390D01*
X128091198Y-93263195D01*
X128043226Y-93313990D01*
X127980714Y-93330900D01*
X127221732Y-93330900D01*
X127119642Y-93358255D01*
X127068597Y-93371933D01*
X126961473Y-93433781D01*
X126961472Y-93433780D01*
X126931305Y-93451197D01*
X126931300Y-93451201D01*
X124740201Y-95642300D01*
X124740199Y-95642303D01*
X124660933Y-95779597D01*
X124640999Y-95853990D01*
X124619901Y-95932731D01*
X124619900Y-95932733D01*
X124619900Y-97235239D01*
X124600215Y-97302278D01*
X124583581Y-97322920D01*
X123671971Y-98234530D01*
X123610648Y-98268015D01*
X123540956Y-98263031D01*
X123496609Y-98234530D01*
X123446292Y-98184213D01*
X123446288Y-98184210D01*
X123315185Y-98096609D01*
X123315172Y-98096602D01*
X123169501Y-98036264D01*
X123169491Y-98036261D01*
X123016974Y-98005923D01*
X122955063Y-97973538D01*
X122953485Y-97971987D01*
X122171816Y-97190318D01*
X122138331Y-97128995D01*
X122135497Y-97102637D01*
X122135497Y-90296573D01*
X122155182Y-90229534D01*
X122207986Y-90183779D01*
X122277144Y-90173835D01*
X122321497Y-90189186D01*
G37*
%TD.AperFunction*%
%TA.AperFunction,Conductor*%
G36*
X159462539Y-71640185D02*
G01*
X159508294Y-71692989D01*
X159519500Y-71744500D01*
X159519500Y-141615500D01*
X159499815Y-141682539D01*
X159447011Y-141728294D01*
X159395500Y-141739500D01*
X107304500Y-141739500D01*
X107237461Y-141719815D01*
X107191706Y-141667011D01*
X107180500Y-141615500D01*
X107180500Y-138562711D01*
X108385500Y-138562711D01*
X108385500Y-138805288D01*
X108417161Y-139045785D01*
X108479947Y-139280104D01*
X108572773Y-139504205D01*
X108572776Y-139504212D01*
X108694064Y-139714289D01*
X108694066Y-139714292D01*
X108694067Y-139714293D01*
X108841733Y-139906736D01*
X108841739Y-139906743D01*
X109013256Y-140078260D01*
X109013262Y-140078265D01*
X109205711Y-140225936D01*
X109415788Y-140347224D01*
X109639900Y-140440054D01*
X109874211Y-140502838D01*
X110054586Y-140526584D01*
X110114711Y-140534500D01*
X110114712Y-140534500D01*
X110357289Y-140534500D01*
X110405388Y-140528167D01*
X110597789Y-140502838D01*
X110832100Y-140440054D01*
X111056212Y-140347224D01*
X111266289Y-140225936D01*
X111458738Y-140078265D01*
X111630265Y-139906738D01*
X111777936Y-139714289D01*
X111899224Y-139504212D01*
X111992054Y-139280100D01*
X112054838Y-139045789D01*
X112086500Y-138805288D01*
X112086500Y-138621845D01*
X121081706Y-138621845D01*
X121210652Y-138675257D01*
X121210656Y-138675258D01*
X121365202Y-138705999D01*
X121365206Y-138706000D01*
X121522794Y-138706000D01*
X121522797Y-138705999D01*
X121677343Y-138675258D01*
X121677347Y-138675257D01*
X121806293Y-138621845D01*
X122081706Y-138621845D01*
X122210652Y-138675257D01*
X122210656Y-138675258D01*
X122365202Y-138705999D01*
X122365206Y-138706000D01*
X122522794Y-138706000D01*
X122522797Y-138705999D01*
X122677343Y-138675258D01*
X122677347Y-138675257D01*
X122806293Y-138621845D01*
X123081706Y-138621845D01*
X123210652Y-138675257D01*
X123210656Y-138675258D01*
X123365202Y-138705999D01*
X123365206Y-138706000D01*
X123522794Y-138706000D01*
X123522797Y-138705999D01*
X123677343Y-138675258D01*
X123677347Y-138675257D01*
X123806293Y-138621845D01*
X124081706Y-138621845D01*
X124210652Y-138675257D01*
X124210656Y-138675258D01*
X124365202Y-138705999D01*
X124365206Y-138706000D01*
X124522794Y-138706000D01*
X124522797Y-138705999D01*
X124677343Y-138675258D01*
X124677347Y-138675257D01*
X124806293Y-138621845D01*
X125081706Y-138621845D01*
X125210652Y-138675257D01*
X125210656Y-138675258D01*
X125365202Y-138705999D01*
X125365206Y-138706000D01*
X125522794Y-138706000D01*
X125522797Y-138705999D01*
X125677343Y-138675258D01*
X125677347Y-138675257D01*
X125806293Y-138621845D01*
X125444001Y-138259553D01*
X125444000Y-138259553D01*
X125081706Y-138621845D01*
X124806293Y-138621845D01*
X124444001Y-138259553D01*
X124444000Y-138259553D01*
X124081706Y-138621845D01*
X123806293Y-138621845D01*
X123444001Y-138259553D01*
X123444000Y-138259553D01*
X123081706Y-138621845D01*
X122806293Y-138621845D01*
X122444001Y-138259553D01*
X122444000Y-138259553D01*
X122081706Y-138621845D01*
X121806293Y-138621845D01*
X121444001Y-138259553D01*
X121444000Y-138259553D01*
X121081706Y-138621845D01*
X112086500Y-138621845D01*
X112086500Y-138562712D01*
X112054838Y-138322211D01*
X111992054Y-138087900D01*
X111949347Y-137984797D01*
X111901204Y-137868568D01*
X111901203Y-137868567D01*
X111899224Y-137863788D01*
X111878101Y-137827202D01*
X120644000Y-137827202D01*
X120644000Y-137984797D01*
X120674741Y-138139343D01*
X120674743Y-138139351D01*
X120728153Y-138268293D01*
X121090446Y-137906001D01*
X121090446Y-137905999D01*
X121060610Y-137876163D01*
X121294000Y-137876163D01*
X121294000Y-137935837D01*
X121316836Y-137990968D01*
X121359032Y-138033164D01*
X121414163Y-138056000D01*
X121473837Y-138056000D01*
X121528968Y-138033164D01*
X121571164Y-137990968D01*
X121594000Y-137935837D01*
X121594000Y-137906000D01*
X121797553Y-137906000D01*
X121944000Y-138052446D01*
X122090446Y-137906000D01*
X122060609Y-137876163D01*
X122294000Y-137876163D01*
X122294000Y-137935837D01*
X122316836Y-137990968D01*
X122359032Y-138033164D01*
X122414163Y-138056000D01*
X122473837Y-138056000D01*
X122528968Y-138033164D01*
X122571164Y-137990968D01*
X122594000Y-137935837D01*
X122594000Y-137905999D01*
X122797553Y-137905999D01*
X122944000Y-138052445D01*
X123084255Y-137912189D01*
X123048229Y-137876163D01*
X123294000Y-137876163D01*
X123294000Y-137935837D01*
X123316836Y-137990968D01*
X123359032Y-138033164D01*
X123414163Y-138056000D01*
X123473837Y-138056000D01*
X123528968Y-138033164D01*
X123571164Y-137990968D01*
X123594000Y-137935837D01*
X123594000Y-137905999D01*
X123797553Y-137905999D01*
X123944000Y-138052446D01*
X124090446Y-137906000D01*
X124060609Y-137876163D01*
X124294000Y-137876163D01*
X124294000Y-137935837D01*
X124316836Y-137990968D01*
X124359032Y-138033164D01*
X124414163Y-138056000D01*
X124473837Y-138056000D01*
X124528968Y-138033164D01*
X124571164Y-137990968D01*
X124594000Y-137935837D01*
X124594000Y-137905999D01*
X124797553Y-137905999D01*
X124944000Y-138052446D01*
X125090446Y-137906001D01*
X125090446Y-137906000D01*
X125060609Y-137876163D01*
X125294000Y-137876163D01*
X125294000Y-137935837D01*
X125316836Y-137990968D01*
X125359032Y-138033164D01*
X125414163Y-138056000D01*
X125473837Y-138056000D01*
X125528968Y-138033164D01*
X125571164Y-137990968D01*
X125594000Y-137935837D01*
X125594000Y-137905999D01*
X125797553Y-137905999D01*
X125797553Y-137906001D01*
X126159845Y-138268293D01*
X126213257Y-138139347D01*
X126213258Y-138139343D01*
X126243999Y-137984797D01*
X126244000Y-137984794D01*
X126244000Y-137827206D01*
X126243999Y-137827202D01*
X126213258Y-137672656D01*
X126213257Y-137672652D01*
X126159845Y-137543706D01*
X125797553Y-137905999D01*
X125594000Y-137905999D01*
X125594000Y-137876163D01*
X125571164Y-137821032D01*
X125528968Y-137778836D01*
X125473837Y-137756000D01*
X125414163Y-137756000D01*
X125359032Y-137778836D01*
X125316836Y-137821032D01*
X125294000Y-137876163D01*
X125060609Y-137876163D01*
X124944000Y-137759553D01*
X124876397Y-137827157D01*
X124876396Y-137827158D01*
X124797553Y-137905999D01*
X124594000Y-137905999D01*
X124594000Y-137876163D01*
X124571164Y-137821032D01*
X124528968Y-137778836D01*
X124473837Y-137756000D01*
X124414163Y-137756000D01*
X124359032Y-137778836D01*
X124316836Y-137821032D01*
X124294000Y-137876163D01*
X124060609Y-137876163D01*
X124011604Y-137827158D01*
X123944000Y-137759553D01*
X123876397Y-137827157D01*
X123876396Y-137827158D01*
X123797553Y-137905999D01*
X123594000Y-137905999D01*
X123594000Y-137876163D01*
X123571164Y-137821032D01*
X123528968Y-137778836D01*
X123473837Y-137756000D01*
X123414163Y-137756000D01*
X123359032Y-137778836D01*
X123316836Y-137821032D01*
X123294000Y-137876163D01*
X123048229Y-137876163D01*
X122937809Y-137765744D01*
X122797553Y-137905999D01*
X122594000Y-137905999D01*
X122594000Y-137876163D01*
X122571164Y-137821032D01*
X122528968Y-137778836D01*
X122473837Y-137756000D01*
X122414163Y-137756000D01*
X122359032Y-137778836D01*
X122316836Y-137821032D01*
X122294000Y-137876163D01*
X122060609Y-137876163D01*
X121943999Y-137759553D01*
X121797553Y-137906000D01*
X121594000Y-137906000D01*
X121594000Y-137876163D01*
X121571164Y-137821032D01*
X121528968Y-137778836D01*
X121473837Y-137756000D01*
X121414163Y-137756000D01*
X121359032Y-137778836D01*
X121316836Y-137821032D01*
X121294000Y-137876163D01*
X121060610Y-137876163D01*
X120728153Y-137543705D01*
X120674743Y-137672648D01*
X120674741Y-137672656D01*
X120644000Y-137827202D01*
X111878101Y-137827202D01*
X111777936Y-137653711D01*
X111700233Y-137552446D01*
X111630266Y-137461263D01*
X111630260Y-137461256D01*
X111575003Y-137405999D01*
X121297553Y-137405999D01*
X121444000Y-137552446D01*
X121590446Y-137406000D01*
X121560609Y-137376163D01*
X121794000Y-137376163D01*
X121794000Y-137435837D01*
X121816836Y-137490968D01*
X121859032Y-137533164D01*
X121914163Y-137556000D01*
X121973837Y-137556000D01*
X122028968Y-137533164D01*
X122071164Y-137490968D01*
X122094000Y-137435837D01*
X122094000Y-137405999D01*
X122297553Y-137405999D01*
X122436089Y-137544535D01*
X122576346Y-137404280D01*
X122546510Y-137374444D01*
X122779900Y-137374444D01*
X122779900Y-137434118D01*
X122802736Y-137489249D01*
X122844932Y-137531445D01*
X122900063Y-137554281D01*
X122959737Y-137554281D01*
X123014868Y-137531445D01*
X123057064Y-137489249D01*
X123079900Y-137434118D01*
X123079900Y-137405999D01*
X123297553Y-137405999D01*
X123444000Y-137552446D01*
X123590446Y-137406000D01*
X123560609Y-137376163D01*
X123794000Y-137376163D01*
X123794000Y-137435837D01*
X123816836Y-137490968D01*
X123859032Y-137533164D01*
X123914163Y-137556000D01*
X123973837Y-137556000D01*
X124028968Y-137533164D01*
X124071164Y-137490968D01*
X124094000Y-137435837D01*
X124094000Y-137405999D01*
X124297553Y-137405999D01*
X124444000Y-137552446D01*
X124590446Y-137406000D01*
X124560609Y-137376163D01*
X124794000Y-137376163D01*
X124794000Y-137435837D01*
X124816836Y-137490968D01*
X124859032Y-137533164D01*
X124914163Y-137556000D01*
X124973837Y-137556000D01*
X125028968Y-137533164D01*
X125071164Y-137490968D01*
X125094000Y-137435837D01*
X125094000Y-137405999D01*
X125297553Y-137405999D01*
X125444000Y-137552446D01*
X125590446Y-137406001D01*
X125590446Y-137405999D01*
X125444000Y-137259553D01*
X125418614Y-137284940D01*
X125418612Y-137284942D01*
X125297553Y-137405999D01*
X125094000Y-137405999D01*
X125094000Y-137376163D01*
X125071164Y-137321032D01*
X125028968Y-137278836D01*
X124973837Y-137256000D01*
X124914163Y-137256000D01*
X124859032Y-137278836D01*
X124816836Y-137321032D01*
X124794000Y-137376163D01*
X124560609Y-137376163D01*
X124469388Y-137284942D01*
X124444000Y-137259553D01*
X124418614Y-137284940D01*
X124418612Y-137284942D01*
X124297553Y-137405999D01*
X124094000Y-137405999D01*
X124094000Y-137376163D01*
X124071164Y-137321032D01*
X124028968Y-137278836D01*
X123973837Y-137256000D01*
X123914163Y-137256000D01*
X123859032Y-137278836D01*
X123816836Y-137321032D01*
X123794000Y-137376163D01*
X123560609Y-137376163D01*
X123443999Y-137259553D01*
X123297553Y-137405999D01*
X123079900Y-137405999D01*
X123079900Y-137374444D01*
X123057064Y-137319313D01*
X123014868Y-137277117D01*
X122959737Y-137254281D01*
X122900063Y-137254281D01*
X122844932Y-137277117D01*
X122802736Y-137319313D01*
X122779900Y-137374444D01*
X122546510Y-137374444D01*
X122437809Y-137265743D01*
X122437809Y-137265744D01*
X122418614Y-137284940D01*
X122418612Y-137284942D01*
X122297553Y-137405999D01*
X122094000Y-137405999D01*
X122094000Y-137376163D01*
X122071164Y-137321032D01*
X122028968Y-137278836D01*
X121973837Y-137256000D01*
X121914163Y-137256000D01*
X121859032Y-137278836D01*
X121816836Y-137321032D01*
X121794000Y-137376163D01*
X121560609Y-137376163D01*
X121443999Y-137259553D01*
X121297553Y-137405999D01*
X111575003Y-137405999D01*
X111458743Y-137289739D01*
X111458736Y-137289733D01*
X111266293Y-137142067D01*
X111266292Y-137142066D01*
X111266289Y-137142064D01*
X111056212Y-137020776D01*
X110984249Y-136990968D01*
X110850763Y-136935676D01*
X110850761Y-136935675D01*
X110832107Y-136927948D01*
X110750200Y-136906001D01*
X110597789Y-136865162D01*
X110597788Y-136865161D01*
X110597785Y-136865161D01*
X110357289Y-136833500D01*
X110357288Y-136833500D01*
X110114712Y-136833500D01*
X110114711Y-136833500D01*
X109874214Y-136865161D01*
X109639895Y-136927947D01*
X109415794Y-137020773D01*
X109415785Y-137020777D01*
X109205706Y-137142067D01*
X109013263Y-137289733D01*
X109013256Y-137289739D01*
X108841739Y-137461256D01*
X108841733Y-137461263D01*
X108694067Y-137653706D01*
X108572777Y-137863785D01*
X108572773Y-137863794D01*
X108479947Y-138087895D01*
X108417161Y-138322214D01*
X108385500Y-138562711D01*
X107180500Y-138562711D01*
X107180500Y-136827202D01*
X120644000Y-136827202D01*
X120644000Y-136984797D01*
X120674741Y-137139343D01*
X120674743Y-137139351D01*
X120728153Y-137268293D01*
X120729490Y-137266957D01*
X121090446Y-136906001D01*
X121090446Y-136905999D01*
X121060610Y-136876163D01*
X121294000Y-136876163D01*
X121294000Y-136935837D01*
X121316836Y-136990968D01*
X121359032Y-137033164D01*
X121414163Y-137056000D01*
X121473837Y-137056000D01*
X121528968Y-137033164D01*
X121571164Y-136990968D01*
X121594000Y-136935837D01*
X121594000Y-136905999D01*
X121797553Y-136905999D01*
X121944000Y-137052446D01*
X122090446Y-136906000D01*
X122060609Y-136876163D01*
X122294000Y-136876163D01*
X122294000Y-136935837D01*
X122316836Y-136990968D01*
X122359032Y-137033164D01*
X122414163Y-137056000D01*
X122473837Y-137056000D01*
X122528968Y-137033164D01*
X122571164Y-136990968D01*
X122594000Y-136935837D01*
X122594000Y-136905999D01*
X122797553Y-136905999D01*
X122936090Y-137044536D01*
X123079958Y-136900668D01*
X123057136Y-136876163D01*
X123294000Y-136876163D01*
X123294000Y-136935837D01*
X123316836Y-136990968D01*
X123359032Y-137033164D01*
X123414163Y-137056000D01*
X123473837Y-137056000D01*
X123528968Y-137033164D01*
X123571164Y-136990968D01*
X123594000Y-136935837D01*
X123594000Y-136887570D01*
X123815983Y-136887570D01*
X123835277Y-136943723D01*
X123944000Y-137052446D01*
X124090446Y-136906000D01*
X124060609Y-136876163D01*
X124294000Y-136876163D01*
X124294000Y-136935837D01*
X124316836Y-136990968D01*
X124359032Y-137033164D01*
X124414163Y-137056000D01*
X124473837Y-137056000D01*
X124528968Y-137033164D01*
X124571164Y-136990968D01*
X124594000Y-136935837D01*
X124594000Y-136905999D01*
X124797553Y-136905999D01*
X124944000Y-137052446D01*
X125090446Y-136906000D01*
X125060609Y-136876163D01*
X125294000Y-136876163D01*
X125294000Y-136935837D01*
X125316836Y-136990968D01*
X125359032Y-137033164D01*
X125414163Y-137056000D01*
X125473837Y-137056000D01*
X125528968Y-137033164D01*
X125571164Y-136990968D01*
X125594000Y-136935837D01*
X125594000Y-136905999D01*
X125797553Y-136905999D01*
X125797553Y-136906001D01*
X126159845Y-137268293D01*
X126213257Y-137139347D01*
X126213258Y-137139343D01*
X126243999Y-136984797D01*
X126244000Y-136984794D01*
X126244000Y-136827206D01*
X126243999Y-136827202D01*
X126213258Y-136672656D01*
X126213257Y-136672652D01*
X126159845Y-136543706D01*
X125797553Y-136905999D01*
X125594000Y-136905999D01*
X125594000Y-136876163D01*
X125571164Y-136821032D01*
X125528968Y-136778836D01*
X125473837Y-136756000D01*
X125414163Y-136756000D01*
X125359032Y-136778836D01*
X125316836Y-136821032D01*
X125294000Y-136876163D01*
X125060609Y-136876163D01*
X125011604Y-136827158D01*
X124944000Y-136759553D01*
X124876397Y-136827157D01*
X124876396Y-136827158D01*
X124797553Y-136905999D01*
X124594000Y-136905999D01*
X124594000Y-136876163D01*
X124571164Y-136821032D01*
X124528968Y-136778836D01*
X124473837Y-136756000D01*
X124414163Y-136756000D01*
X124359032Y-136778836D01*
X124316836Y-136821032D01*
X124294000Y-136876163D01*
X124060609Y-136876163D01*
X124011604Y-136827158D01*
X123944000Y-136759553D01*
X123876397Y-136827157D01*
X123876396Y-136827158D01*
X123815983Y-136887570D01*
X123594000Y-136887570D01*
X123594000Y-136876163D01*
X123571164Y-136821032D01*
X123528968Y-136778836D01*
X123473837Y-136756000D01*
X123414163Y-136756000D01*
X123359032Y-136778836D01*
X123316836Y-136821032D01*
X123294000Y-136876163D01*
X123057136Y-136876163D01*
X123010047Y-136825601D01*
X122944000Y-136759553D01*
X122876397Y-136827157D01*
X122876396Y-136827158D01*
X122797553Y-136905999D01*
X122594000Y-136905999D01*
X122594000Y-136876163D01*
X122571164Y-136821032D01*
X122528968Y-136778836D01*
X122473837Y-136756000D01*
X122414163Y-136756000D01*
X122359032Y-136778836D01*
X122316836Y-136821032D01*
X122294000Y-136876163D01*
X122060609Y-136876163D01*
X122011604Y-136827158D01*
X121944000Y-136759553D01*
X121876397Y-136827157D01*
X121876396Y-136827158D01*
X121797553Y-136905999D01*
X121594000Y-136905999D01*
X121594000Y-136876163D01*
X121571164Y-136821032D01*
X121528968Y-136778836D01*
X121473837Y-136756000D01*
X121414163Y-136756000D01*
X121359032Y-136778836D01*
X121316836Y-136821032D01*
X121294000Y-136876163D01*
X121060610Y-136876163D01*
X120728153Y-136543705D01*
X120674743Y-136672648D01*
X120674741Y-136672656D01*
X120644000Y-136827202D01*
X107180500Y-136827202D01*
X107180500Y-136405999D01*
X121297553Y-136405999D01*
X121444000Y-136552446D01*
X121590445Y-136406000D01*
X121590446Y-136405999D01*
X121560610Y-136376163D01*
X121794000Y-136376163D01*
X121794000Y-136435837D01*
X121816836Y-136490968D01*
X121859032Y-136533164D01*
X121914163Y-136556000D01*
X121973837Y-136556000D01*
X122028968Y-136533164D01*
X122071164Y-136490968D01*
X122094000Y-136435837D01*
X122094000Y-136405999D01*
X122297553Y-136405999D01*
X122444000Y-136552446D01*
X122590446Y-136406000D01*
X122560609Y-136376163D01*
X122794000Y-136376163D01*
X122794000Y-136435837D01*
X122816836Y-136490968D01*
X122859032Y-136533164D01*
X122914163Y-136556000D01*
X122973837Y-136556000D01*
X123028968Y-136533164D01*
X123071164Y-136490968D01*
X123094000Y-136435837D01*
X123094000Y-136405999D01*
X123297553Y-136405999D01*
X123444000Y-136552446D01*
X123590446Y-136406000D01*
X123560609Y-136376163D01*
X123794000Y-136376163D01*
X123794000Y-136435837D01*
X123816836Y-136490968D01*
X123859032Y-136533164D01*
X123914163Y-136556000D01*
X123973837Y-136556000D01*
X124028968Y-136533164D01*
X124071164Y-136490968D01*
X124094000Y-136435837D01*
X124094000Y-136405999D01*
X124297553Y-136405999D01*
X124444000Y-136552446D01*
X124590446Y-136406000D01*
X124560609Y-136376163D01*
X124794000Y-136376163D01*
X124794000Y-136435837D01*
X124816836Y-136490968D01*
X124859032Y-136533164D01*
X124914163Y-136556000D01*
X124973837Y-136556000D01*
X125028968Y-136533164D01*
X125071164Y-136490968D01*
X125094000Y-136435837D01*
X125094000Y-136405999D01*
X125297553Y-136405999D01*
X125444000Y-136552446D01*
X125590446Y-136406000D01*
X125444000Y-136259553D01*
X125297553Y-136405999D01*
X125094000Y-136405999D01*
X125094000Y-136376163D01*
X125071164Y-136321032D01*
X125028968Y-136278836D01*
X124973837Y-136256000D01*
X124914163Y-136256000D01*
X124859032Y-136278836D01*
X124816836Y-136321032D01*
X124794000Y-136376163D01*
X124560609Y-136376163D01*
X124469388Y-136284942D01*
X124444000Y-136259553D01*
X124418614Y-136284940D01*
X124418612Y-136284942D01*
X124297553Y-136405999D01*
X124094000Y-136405999D01*
X124094000Y-136376163D01*
X124071164Y-136321032D01*
X124028968Y-136278836D01*
X123973837Y-136256000D01*
X123914163Y-136256000D01*
X123859032Y-136278836D01*
X123816836Y-136321032D01*
X123794000Y-136376163D01*
X123560609Y-136376163D01*
X123469388Y-136284942D01*
X123444000Y-136259553D01*
X123418614Y-136284940D01*
X123418612Y-136284942D01*
X123297553Y-136405999D01*
X123094000Y-136405999D01*
X123094000Y-136376163D01*
X123071164Y-136321032D01*
X123028968Y-136278836D01*
X122973837Y-136256000D01*
X122914163Y-136256000D01*
X122859032Y-136278836D01*
X122816836Y-136321032D01*
X122794000Y-136376163D01*
X122560609Y-136376163D01*
X122469388Y-136284942D01*
X122444000Y-136259553D01*
X122418614Y-136284940D01*
X122418612Y-136284942D01*
X122297553Y-136405999D01*
X122094000Y-136405999D01*
X122094000Y-136376163D01*
X122071164Y-136321032D01*
X122028968Y-136278836D01*
X121973837Y-136256000D01*
X121914163Y-136256000D01*
X121859032Y-136278836D01*
X121816836Y-136321032D01*
X121794000Y-136376163D01*
X121560610Y-136376163D01*
X121444000Y-136259553D01*
X121297553Y-136405999D01*
X107180500Y-136405999D01*
X107180500Y-135827202D01*
X120644000Y-135827202D01*
X120644000Y-135984797D01*
X120674741Y-136139343D01*
X120674743Y-136139351D01*
X120728153Y-136268293D01*
X120729490Y-136266957D01*
X121090446Y-135906001D01*
X121090446Y-135905999D01*
X121060610Y-135876163D01*
X121294000Y-135876163D01*
X121294000Y-135935837D01*
X121316836Y-135990968D01*
X121359032Y-136033164D01*
X121414163Y-136056000D01*
X121473837Y-136056000D01*
X121528968Y-136033164D01*
X121571164Y-135990968D01*
X121594000Y-135935837D01*
X121594000Y-135906000D01*
X121797553Y-135906000D01*
X121943998Y-136052446D01*
X122051299Y-135945145D01*
X122071627Y-135887182D01*
X122060608Y-135876163D01*
X122294000Y-135876163D01*
X122294000Y-135935837D01*
X122316836Y-135990968D01*
X122359032Y-136033164D01*
X122414163Y-136056000D01*
X122473837Y-136056000D01*
X122528968Y-136033164D01*
X122571164Y-135990968D01*
X122594000Y-135935837D01*
X122594000Y-135887180D01*
X122816371Y-135887180D01*
X122836703Y-135945149D01*
X122944000Y-136052446D01*
X123051299Y-135945146D01*
X123071627Y-135887182D01*
X123060608Y-135876163D01*
X123294000Y-135876163D01*
X123294000Y-135935837D01*
X123316836Y-135990968D01*
X123359032Y-136033164D01*
X123414163Y-136056000D01*
X123473837Y-136056000D01*
X123528968Y-136033164D01*
X123571164Y-135990968D01*
X123594000Y-135935837D01*
X123594000Y-135887180D01*
X123816371Y-135887180D01*
X123836703Y-135945149D01*
X123944000Y-136052446D01*
X124051299Y-135945146D01*
X124071627Y-135887182D01*
X124060608Y-135876163D01*
X124294000Y-135876163D01*
X124294000Y-135935837D01*
X124316836Y-135990968D01*
X124359032Y-136033164D01*
X124414163Y-136056000D01*
X124473837Y-136056000D01*
X124528968Y-136033164D01*
X124571164Y-135990968D01*
X124594000Y-135935837D01*
X124594000Y-135887180D01*
X124816371Y-135887180D01*
X124836703Y-135945149D01*
X124944000Y-136052446D01*
X125090446Y-135906000D01*
X125060609Y-135876163D01*
X125294000Y-135876163D01*
X125294000Y-135935837D01*
X125316836Y-135990968D01*
X125359032Y-136033164D01*
X125414163Y-136056000D01*
X125473837Y-136056000D01*
X125528968Y-136033164D01*
X125571164Y-135990968D01*
X125594000Y-135935837D01*
X125594000Y-135905999D01*
X125797553Y-135905999D01*
X125797553Y-135906001D01*
X126159845Y-136268293D01*
X126213257Y-136139347D01*
X126213258Y-136139343D01*
X126243999Y-135984797D01*
X126244000Y-135984794D01*
X126244000Y-135827204D01*
X126243999Y-135827203D01*
X126243989Y-135827153D01*
X130803500Y-135827153D01*
X130803500Y-135984846D01*
X130834261Y-136139489D01*
X130834264Y-136139501D01*
X130894602Y-136285172D01*
X130894609Y-136285185D01*
X130929304Y-136337109D01*
X130950182Y-136403786D01*
X130931698Y-136471167D01*
X130929304Y-136474891D01*
X130894609Y-136526814D01*
X130894602Y-136526827D01*
X130834264Y-136672498D01*
X130834261Y-136672510D01*
X130803500Y-136827153D01*
X130803500Y-136984846D01*
X130834261Y-137139489D01*
X130834264Y-137139501D01*
X130894602Y-137285172D01*
X130894609Y-137285185D01*
X130929304Y-137337109D01*
X130950182Y-137403786D01*
X130931698Y-137471167D01*
X130929304Y-137474891D01*
X130894609Y-137526814D01*
X130894602Y-137526827D01*
X130834264Y-137672498D01*
X130834261Y-137672510D01*
X130803500Y-137827153D01*
X130803500Y-137984846D01*
X130834261Y-138139489D01*
X130834264Y-138139501D01*
X130894602Y-138285172D01*
X130894609Y-138285185D01*
X130982210Y-138416288D01*
X130982213Y-138416292D01*
X131093707Y-138527786D01*
X131093711Y-138527789D01*
X131224814Y-138615390D01*
X131224827Y-138615397D01*
X131370498Y-138675735D01*
X131370503Y-138675737D01*
X131522639Y-138705999D01*
X131525153Y-138706499D01*
X131525156Y-138706500D01*
X131525158Y-138706500D01*
X131682844Y-138706500D01*
X131682845Y-138706499D01*
X131837497Y-138675737D01*
X131983179Y-138615394D01*
X132035110Y-138580694D01*
X132101785Y-138559816D01*
X132169165Y-138578300D01*
X132172863Y-138580676D01*
X132224821Y-138615394D01*
X132224823Y-138615395D01*
X132224825Y-138615396D01*
X132370498Y-138675735D01*
X132370503Y-138675737D01*
X132522639Y-138705999D01*
X132525153Y-138706499D01*
X132525156Y-138706500D01*
X132525158Y-138706500D01*
X132682844Y-138706500D01*
X132682845Y-138706499D01*
X132837497Y-138675737D01*
X132983179Y-138615394D01*
X133035110Y-138580694D01*
X133101785Y-138559816D01*
X133169165Y-138578300D01*
X133172863Y-138580676D01*
X133224821Y-138615394D01*
X133224823Y-138615395D01*
X133224825Y-138615396D01*
X133370498Y-138675735D01*
X133370503Y-138675737D01*
X133522639Y-138705999D01*
X133525153Y-138706499D01*
X133525156Y-138706500D01*
X133525158Y-138706500D01*
X133682844Y-138706500D01*
X133682845Y-138706499D01*
X133837497Y-138675737D01*
X133983179Y-138615394D01*
X134035110Y-138580694D01*
X134101785Y-138559816D01*
X134169165Y-138578300D01*
X134172863Y-138580676D01*
X134224821Y-138615394D01*
X134224823Y-138615395D01*
X134224825Y-138615396D01*
X134370498Y-138675735D01*
X134370503Y-138675737D01*
X134522639Y-138705999D01*
X134525153Y-138706499D01*
X134525156Y-138706500D01*
X134525158Y-138706500D01*
X134682844Y-138706500D01*
X134682845Y-138706499D01*
X134837497Y-138675737D01*
X134983179Y-138615394D01*
X135035110Y-138580694D01*
X135101785Y-138559816D01*
X135169165Y-138578300D01*
X135172863Y-138580676D01*
X135224821Y-138615394D01*
X135224823Y-138615395D01*
X135224825Y-138615396D01*
X135370498Y-138675735D01*
X135370503Y-138675737D01*
X135522639Y-138705999D01*
X135525153Y-138706499D01*
X135525156Y-138706500D01*
X135525158Y-138706500D01*
X135682844Y-138706500D01*
X135682845Y-138706499D01*
X135837497Y-138675737D01*
X135983179Y-138615394D01*
X136062025Y-138562711D01*
X154613500Y-138562711D01*
X154613500Y-138805288D01*
X154645161Y-139045785D01*
X154707947Y-139280104D01*
X154800773Y-139504205D01*
X154800776Y-139504212D01*
X154922064Y-139714289D01*
X154922066Y-139714292D01*
X154922067Y-139714293D01*
X155069733Y-139906736D01*
X155069739Y-139906743D01*
X155241256Y-140078260D01*
X155241262Y-140078265D01*
X155433711Y-140225936D01*
X155643788Y-140347224D01*
X155867900Y-140440054D01*
X156102211Y-140502838D01*
X156282586Y-140526584D01*
X156342711Y-140534500D01*
X156342712Y-140534500D01*
X156585289Y-140534500D01*
X156633388Y-140528167D01*
X156825789Y-140502838D01*
X157060100Y-140440054D01*
X157284212Y-140347224D01*
X157494289Y-140225936D01*
X157686738Y-140078265D01*
X157858265Y-139906738D01*
X158005936Y-139714289D01*
X158127224Y-139504212D01*
X158220054Y-139280100D01*
X158282838Y-139045789D01*
X158314500Y-138805288D01*
X158314500Y-138562712D01*
X158282838Y-138322211D01*
X158220054Y-138087900D01*
X158127224Y-137863788D01*
X158005936Y-137653711D01*
X157928233Y-137552446D01*
X157858266Y-137461263D01*
X157858260Y-137461256D01*
X157686743Y-137289739D01*
X157686736Y-137289733D01*
X157494293Y-137142067D01*
X157494292Y-137142066D01*
X157494289Y-137142064D01*
X157284212Y-137020776D01*
X157284205Y-137020773D01*
X157060104Y-136927947D01*
X156825785Y-136865161D01*
X156585289Y-136833500D01*
X156585288Y-136833500D01*
X156342712Y-136833500D01*
X156342711Y-136833500D01*
X156102214Y-136865161D01*
X155867895Y-136927947D01*
X155643794Y-137020773D01*
X155643785Y-137020777D01*
X155433706Y-137142067D01*
X155241263Y-137289733D01*
X155241256Y-137289739D01*
X155069739Y-137461256D01*
X155069733Y-137461263D01*
X154922067Y-137653706D01*
X154800777Y-137863785D01*
X154800773Y-137863794D01*
X154707947Y-138087895D01*
X154645161Y-138322214D01*
X154613500Y-138562711D01*
X136062025Y-138562711D01*
X136114289Y-138527789D01*
X136114292Y-138527786D01*
X136171107Y-138470972D01*
X136225786Y-138416292D01*
X136225789Y-138416289D01*
X136313394Y-138285179D01*
X136373737Y-138139497D01*
X136404500Y-137984842D01*
X136404500Y-137827158D01*
X136404500Y-137827157D01*
X136404500Y-137827155D01*
X136404499Y-137827153D01*
X136373767Y-137672656D01*
X136373737Y-137672503D01*
X136365951Y-137653706D01*
X136313396Y-137526825D01*
X136313394Y-137526822D01*
X136313394Y-137526821D01*
X136278694Y-137474889D01*
X136257816Y-137408215D01*
X136276300Y-137340835D01*
X136278676Y-137337136D01*
X136313394Y-137285179D01*
X136373737Y-137139497D01*
X136404500Y-136984842D01*
X136404500Y-136827158D01*
X136404500Y-136827157D01*
X136404500Y-136827155D01*
X136404499Y-136827153D01*
X136373767Y-136672656D01*
X136373737Y-136672503D01*
X136373735Y-136672498D01*
X136313396Y-136526825D01*
X136313394Y-136526822D01*
X136313394Y-136526821D01*
X136278694Y-136474889D01*
X136257816Y-136408215D01*
X136276300Y-136340835D01*
X136278676Y-136337136D01*
X136313394Y-136285179D01*
X136373737Y-136139497D01*
X136404500Y-135984842D01*
X136404500Y-135827158D01*
X136404500Y-135827155D01*
X136404499Y-135827153D01*
X136373767Y-135672656D01*
X136373737Y-135672503D01*
X136373735Y-135672498D01*
X136313397Y-135526827D01*
X136313390Y-135526814D01*
X136225789Y-135395711D01*
X136225786Y-135395707D01*
X136114292Y-135284213D01*
X136114288Y-135284210D01*
X135983185Y-135196609D01*
X135983172Y-135196602D01*
X135837501Y-135136264D01*
X135837489Y-135136261D01*
X135682845Y-135105500D01*
X135682842Y-135105500D01*
X135525158Y-135105500D01*
X135525155Y-135105500D01*
X135370510Y-135136261D01*
X135370498Y-135136264D01*
X135224827Y-135196602D01*
X135224814Y-135196609D01*
X135172891Y-135231304D01*
X135106214Y-135252182D01*
X135038833Y-135233698D01*
X135035109Y-135231304D01*
X134983185Y-135196609D01*
X134983172Y-135196602D01*
X134837501Y-135136264D01*
X134837489Y-135136261D01*
X134682845Y-135105500D01*
X134682842Y-135105500D01*
X134525158Y-135105500D01*
X134525155Y-135105500D01*
X134370510Y-135136261D01*
X134370498Y-135136264D01*
X134224827Y-135196602D01*
X134224814Y-135196609D01*
X134172891Y-135231304D01*
X134106214Y-135252182D01*
X134038833Y-135233698D01*
X134035109Y-135231304D01*
X133983185Y-135196609D01*
X133983172Y-135196602D01*
X133837501Y-135136264D01*
X133837489Y-135136261D01*
X133682845Y-135105500D01*
X133682842Y-135105500D01*
X133525158Y-135105500D01*
X133525155Y-135105500D01*
X133370510Y-135136261D01*
X133370498Y-135136264D01*
X133224827Y-135196602D01*
X133224814Y-135196609D01*
X133172891Y-135231304D01*
X133106214Y-135252182D01*
X133038833Y-135233698D01*
X133035109Y-135231304D01*
X132983185Y-135196609D01*
X132983172Y-135196602D01*
X132837501Y-135136264D01*
X132837489Y-135136261D01*
X132682845Y-135105500D01*
X132682842Y-135105500D01*
X132525158Y-135105500D01*
X132525155Y-135105500D01*
X132370510Y-135136261D01*
X132370498Y-135136264D01*
X132224827Y-135196602D01*
X132224814Y-135196609D01*
X132172891Y-135231304D01*
X132106214Y-135252182D01*
X132038833Y-135233698D01*
X132035109Y-135231304D01*
X131983185Y-135196609D01*
X131983172Y-135196602D01*
X131837501Y-135136264D01*
X131837489Y-135136261D01*
X131682845Y-135105500D01*
X131682842Y-135105500D01*
X131525158Y-135105500D01*
X131525155Y-135105500D01*
X131370510Y-135136261D01*
X131370498Y-135136264D01*
X131224827Y-135196602D01*
X131224814Y-135196609D01*
X131093711Y-135284210D01*
X131093707Y-135284213D01*
X130982213Y-135395707D01*
X130982210Y-135395711D01*
X130894609Y-135526814D01*
X130894602Y-135526827D01*
X130834264Y-135672498D01*
X130834261Y-135672510D01*
X130803500Y-135827153D01*
X126243989Y-135827153D01*
X126213258Y-135672656D01*
X126213257Y-135672652D01*
X126159845Y-135543706D01*
X125797553Y-135905999D01*
X125594000Y-135905999D01*
X125594000Y-135876163D01*
X125571164Y-135821032D01*
X125528968Y-135778836D01*
X125473837Y-135756000D01*
X125414163Y-135756000D01*
X125359032Y-135778836D01*
X125316836Y-135821032D01*
X125294000Y-135876163D01*
X125060609Y-135876163D01*
X124944000Y-135759553D01*
X124816371Y-135887180D01*
X124594000Y-135887180D01*
X124594000Y-135876163D01*
X124571164Y-135821032D01*
X124528968Y-135778836D01*
X124473837Y-135756000D01*
X124414163Y-135756000D01*
X124359032Y-135778836D01*
X124316836Y-135821032D01*
X124294000Y-135876163D01*
X124060608Y-135876163D01*
X123944000Y-135759553D01*
X123816371Y-135887180D01*
X123594000Y-135887180D01*
X123594000Y-135876163D01*
X123571164Y-135821032D01*
X123528968Y-135778836D01*
X123473837Y-135756000D01*
X123414163Y-135756000D01*
X123359032Y-135778836D01*
X123316836Y-135821032D01*
X123294000Y-135876163D01*
X123060608Y-135876163D01*
X122944000Y-135759553D01*
X122816371Y-135887180D01*
X122594000Y-135887180D01*
X122594000Y-135876163D01*
X122571164Y-135821032D01*
X122528968Y-135778836D01*
X122473837Y-135756000D01*
X122414163Y-135756000D01*
X122359032Y-135778836D01*
X122316836Y-135821032D01*
X122294000Y-135876163D01*
X122060608Y-135876163D01*
X121944000Y-135759553D01*
X121797553Y-135906000D01*
X121594000Y-135906000D01*
X121594000Y-135876163D01*
X121571164Y-135821032D01*
X121528968Y-135778836D01*
X121473837Y-135756000D01*
X121414163Y-135756000D01*
X121359032Y-135778836D01*
X121316836Y-135821032D01*
X121294000Y-135876163D01*
X121060610Y-135876163D01*
X120728153Y-135543705D01*
X120674743Y-135672648D01*
X120674741Y-135672656D01*
X120644000Y-135827202D01*
X107180500Y-135827202D01*
X107180500Y-135190153D01*
X121081705Y-135190153D01*
X121444000Y-135552446D01*
X121444001Y-135552446D01*
X121806293Y-135190153D01*
X122081705Y-135190153D01*
X122444000Y-135552446D01*
X122444001Y-135552446D01*
X122806293Y-135190153D01*
X123081705Y-135190153D01*
X123444000Y-135552446D01*
X123444001Y-135552446D01*
X123806293Y-135190153D01*
X124081705Y-135190153D01*
X124444000Y-135552446D01*
X124444001Y-135552446D01*
X124806293Y-135190153D01*
X125081705Y-135190153D01*
X125444000Y-135552446D01*
X125444001Y-135552446D01*
X125806293Y-135190153D01*
X125677351Y-135136743D01*
X125677343Y-135136741D01*
X125522797Y-135106000D01*
X125365202Y-135106000D01*
X125210656Y-135136741D01*
X125210648Y-135136743D01*
X125081705Y-135190153D01*
X124806293Y-135190153D01*
X124677351Y-135136743D01*
X124677343Y-135136741D01*
X124522797Y-135106000D01*
X124365202Y-135106000D01*
X124210656Y-135136741D01*
X124210648Y-135136743D01*
X124081705Y-135190153D01*
X123806293Y-135190153D01*
X123677351Y-135136743D01*
X123677343Y-135136741D01*
X123522797Y-135106000D01*
X123365202Y-135106000D01*
X123210656Y-135136741D01*
X123210648Y-135136743D01*
X123081705Y-135190153D01*
X122806293Y-135190153D01*
X122677351Y-135136743D01*
X122677343Y-135136741D01*
X122522797Y-135106000D01*
X122365202Y-135106000D01*
X122210656Y-135136741D01*
X122210648Y-135136743D01*
X122081705Y-135190153D01*
X121806293Y-135190153D01*
X121677351Y-135136743D01*
X121677343Y-135136741D01*
X121522797Y-135106000D01*
X121365202Y-135106000D01*
X121210656Y-135136741D01*
X121210648Y-135136743D01*
X121081705Y-135190153D01*
X107180500Y-135190153D01*
X107180500Y-99861135D01*
X108044500Y-99861135D01*
X108044500Y-101306870D01*
X108044501Y-101306876D01*
X108050908Y-101366483D01*
X108101202Y-101501328D01*
X108101206Y-101501335D01*
X108187452Y-101616544D01*
X108187453Y-101616544D01*
X108187454Y-101616546D01*
X108238740Y-101654939D01*
X108272539Y-101680241D01*
X108314409Y-101736175D01*
X108319393Y-101805867D01*
X108298545Y-101852392D01*
X108214624Y-101967900D01*
X108130620Y-102132764D01*
X108130619Y-102132767D01*
X108073445Y-102308734D01*
X108044500Y-102491486D01*
X108044500Y-102676513D01*
X108073445Y-102859265D01*
X108130619Y-103035232D01*
X108130620Y-103035235D01*
X108214622Y-103200096D01*
X108323379Y-103349787D01*
X108454213Y-103480621D01*
X108458421Y-103483678D01*
X108458432Y-103483686D01*
X108501094Y-103539019D01*
X108507069Y-103608633D01*
X108474459Y-103670426D01*
X108458432Y-103684314D01*
X108454210Y-103687381D01*
X108323381Y-103818210D01*
X108323381Y-103818211D01*
X108323379Y-103818213D01*
X108276672Y-103882499D01*
X108214622Y-103967903D01*
X108130620Y-104132764D01*
X108130619Y-104132767D01*
X108073445Y-104308734D01*
X108073445Y-104308736D01*
X108044500Y-104491486D01*
X108044500Y-104676514D01*
X108058972Y-104767889D01*
X108073445Y-104859265D01*
X108130619Y-105035232D01*
X108130620Y-105035235D01*
X108202072Y-105175465D01*
X108214622Y-105200096D01*
X108323379Y-105349787D01*
X108454213Y-105480621D01*
X108458421Y-105483678D01*
X108458432Y-105483686D01*
X108501094Y-105539019D01*
X108507069Y-105608633D01*
X108474459Y-105670426D01*
X108458432Y-105684314D01*
X108454210Y-105687381D01*
X108323381Y-105818210D01*
X108323381Y-105818211D01*
X108323379Y-105818213D01*
X108276672Y-105882499D01*
X108214622Y-105967903D01*
X108130620Y-106132764D01*
X108130621Y-106132765D01*
X108073445Y-106308734D01*
X108044500Y-106491486D01*
X108044500Y-106676513D01*
X108073445Y-106859265D01*
X108130619Y-107035232D01*
X108130620Y-107035235D01*
X108204517Y-107180264D01*
X108214622Y-107200096D01*
X108323379Y-107349787D01*
X108454213Y-107480621D01*
X108458421Y-107483678D01*
X108458432Y-107483686D01*
X108501094Y-107539019D01*
X108507069Y-107608633D01*
X108474459Y-107670426D01*
X108458432Y-107684314D01*
X108454210Y-107687381D01*
X108323381Y-107818210D01*
X108323381Y-107818211D01*
X108323379Y-107818213D01*
X108308843Y-107838220D01*
X108214622Y-107967903D01*
X108130620Y-108132764D01*
X108130619Y-108132767D01*
X108073445Y-108308734D01*
X108070208Y-108329172D01*
X108044500Y-108491486D01*
X108044500Y-108676514D01*
X108051346Y-108719736D01*
X108073445Y-108859265D01*
X108130619Y-109035232D01*
X108130620Y-109035235D01*
X108214622Y-109200096D01*
X108323379Y-109349787D01*
X108454213Y-109480621D01*
X108458421Y-109483678D01*
X108458432Y-109483686D01*
X108501094Y-109539019D01*
X108507069Y-109608633D01*
X108474459Y-109670426D01*
X108458432Y-109684314D01*
X108454210Y-109687381D01*
X108323381Y-109818210D01*
X108323381Y-109818211D01*
X108323379Y-109818213D01*
X108296935Y-109854610D01*
X108214622Y-109967903D01*
X108130620Y-110132764D01*
X108130619Y-110132767D01*
X108073445Y-110308734D01*
X108044500Y-110491486D01*
X108044500Y-110676513D01*
X108073445Y-110859265D01*
X108130619Y-111035232D01*
X108130620Y-111035235D01*
X108214622Y-111200096D01*
X108323379Y-111349787D01*
X108454213Y-111480621D01*
X108603904Y-111589378D01*
X108645649Y-111610648D01*
X108768764Y-111673379D01*
X108768767Y-111673380D01*
X108856750Y-111701967D01*
X108944736Y-111730555D01*
X109127486Y-111759500D01*
X109127487Y-111759500D01*
X109312513Y-111759500D01*
X109312514Y-111759500D01*
X109495264Y-111730555D01*
X109671235Y-111673379D01*
X109836096Y-111589378D01*
X109985787Y-111480621D01*
X110116621Y-111349787D01*
X110225378Y-111200096D01*
X110309379Y-111035235D01*
X110366555Y-110859264D01*
X110395500Y-110676514D01*
X110395500Y-110491486D01*
X110366555Y-110308736D01*
X110337967Y-110220750D01*
X110309380Y-110132767D01*
X110309379Y-110132764D01*
X110225377Y-109967903D01*
X110116621Y-109818213D01*
X109985787Y-109687379D01*
X109981576Y-109684319D01*
X109938909Y-109628994D01*
X109932926Y-109559381D01*
X109965529Y-109497585D01*
X109981570Y-109483684D01*
X109985787Y-109480621D01*
X110116621Y-109349787D01*
X110225378Y-109200096D01*
X110309379Y-109035235D01*
X110366555Y-108859264D01*
X110395500Y-108676514D01*
X110395500Y-108491486D01*
X110366555Y-108308736D01*
X110325860Y-108183489D01*
X110309380Y-108132767D01*
X110309379Y-108132764D01*
X110257514Y-108030975D01*
X110225378Y-107967904D01*
X110116621Y-107818213D01*
X109985787Y-107687379D01*
X109981576Y-107684319D01*
X109938909Y-107628994D01*
X109932926Y-107559381D01*
X109965529Y-107497585D01*
X109981570Y-107483684D01*
X109985787Y-107480621D01*
X110116621Y-107349787D01*
X110225378Y-107200096D01*
X110309379Y-107035235D01*
X110366555Y-106859264D01*
X110395500Y-106676514D01*
X110395500Y-106491486D01*
X110366555Y-106308736D01*
X110309379Y-106132765D01*
X110309379Y-106132764D01*
X110225377Y-105967903D01*
X110221955Y-105963193D01*
X110116621Y-105818213D01*
X109985787Y-105687379D01*
X109981576Y-105684319D01*
X109938909Y-105628994D01*
X109932926Y-105559381D01*
X109965529Y-105497585D01*
X109981570Y-105483684D01*
X109985787Y-105480621D01*
X110116621Y-105349787D01*
X110225378Y-105200096D01*
X110309379Y-105035235D01*
X110366555Y-104859264D01*
X110395500Y-104676514D01*
X110395500Y-104491486D01*
X110366555Y-104308736D01*
X110309379Y-104132765D01*
X110309379Y-104132764D01*
X110266577Y-104048763D01*
X110225378Y-103967904D01*
X110116621Y-103818213D01*
X109985787Y-103687379D01*
X109981576Y-103684319D01*
X109938909Y-103628994D01*
X109932926Y-103559381D01*
X109965529Y-103497585D01*
X109981570Y-103483684D01*
X109985787Y-103480621D01*
X110116621Y-103349787D01*
X110225378Y-103200096D01*
X110309379Y-103035235D01*
X110366555Y-102859264D01*
X110395500Y-102676514D01*
X110395500Y-102491486D01*
X110366555Y-102308736D01*
X110309379Y-102132765D01*
X110309379Y-102132764D01*
X110225377Y-101967903D01*
X110141454Y-101852393D01*
X110117974Y-101786586D01*
X110133799Y-101718532D01*
X110167459Y-101680241D01*
X110252546Y-101616546D01*
X110320983Y-101525126D01*
X116143300Y-101525126D01*
X116143300Y-107680668D01*
X116152904Y-107716510D01*
X116184333Y-107833803D01*
X116184334Y-107833804D01*
X116241893Y-107933500D01*
X116241894Y-107933501D01*
X116263597Y-107971094D01*
X116263601Y-107971099D01*
X116513987Y-108221485D01*
X116547472Y-108282808D01*
X116547923Y-108284974D01*
X116578261Y-108437491D01*
X116578264Y-108437501D01*
X116638602Y-108583172D01*
X116638609Y-108583185D01*
X116726210Y-108714288D01*
X116726213Y-108714292D01*
X116837707Y-108825786D01*
X116837711Y-108825789D01*
X116968814Y-108913390D01*
X116968827Y-108913397D01*
X117114498Y-108973735D01*
X117114503Y-108973737D01*
X117269153Y-109004499D01*
X117269156Y-109004500D01*
X117269158Y-109004500D01*
X117426844Y-109004500D01*
X117426845Y-109004499D01*
X117581497Y-108973737D01*
X117727179Y-108913394D01*
X117858289Y-108825789D01*
X117969789Y-108714289D01*
X118057394Y-108583179D01*
X118117737Y-108437497D01*
X118148500Y-108282842D01*
X118148500Y-108125158D01*
X118148500Y-108125155D01*
X118148499Y-108125153D01*
X118135681Y-108060713D01*
X118117737Y-107970503D01*
X118076585Y-107871153D01*
X118057397Y-107824826D01*
X118057390Y-107824814D01*
X117969789Y-107693711D01*
X117969786Y-107693707D01*
X117858292Y-107582213D01*
X117858288Y-107582210D01*
X117727185Y-107494609D01*
X117727172Y-107494602D01*
X117581501Y-107434264D01*
X117581491Y-107434261D01*
X117447308Y-107407570D01*
X117385397Y-107375185D01*
X117350823Y-107314469D01*
X117347500Y-107285953D01*
X117347500Y-102772046D01*
X117367185Y-102705007D01*
X117419989Y-102659252D01*
X117447309Y-102650429D01*
X117476848Y-102644552D01*
X117581497Y-102623737D01*
X117727179Y-102563394D01*
X117754757Y-102544967D01*
X117856480Y-102476998D01*
X117923157Y-102456120D01*
X117925371Y-102456100D01*
X121745266Y-102456100D01*
X121745268Y-102456100D01*
X121898402Y-102415067D01*
X122035698Y-102335800D01*
X122147800Y-102223698D01*
X122200028Y-102171469D01*
X122261350Y-102137984D01*
X122331041Y-102142968D01*
X122375390Y-102171469D01*
X122425707Y-102221786D01*
X122425711Y-102221789D01*
X122556814Y-102309390D01*
X122556827Y-102309397D01*
X122663996Y-102353787D01*
X122702503Y-102369737D01*
X122855715Y-102400213D01*
X122857153Y-102400499D01*
X122857156Y-102400500D01*
X122857158Y-102400500D01*
X123014844Y-102400500D01*
X123014845Y-102400499D01*
X123169497Y-102369737D01*
X123242583Y-102339463D01*
X123312050Y-102331995D01*
X123358924Y-102350922D01*
X123363212Y-102353787D01*
X123363223Y-102353793D01*
X123508894Y-102414131D01*
X123508899Y-102414133D01*
X123663549Y-102444895D01*
X123663552Y-102444896D01*
X123663554Y-102444896D01*
X123821240Y-102444896D01*
X123821241Y-102444895D01*
X123975893Y-102414133D01*
X124121575Y-102353790D01*
X124252685Y-102266185D01*
X124327452Y-102191417D01*
X124388773Y-102157934D01*
X124415132Y-102155100D01*
X127980714Y-102155100D01*
X128047753Y-102174785D01*
X128091197Y-102222804D01*
X128097213Y-102234610D01*
X128217530Y-102400213D01*
X128217534Y-102400219D01*
X128362286Y-102544971D01*
X128527888Y-102665286D01*
X128527890Y-102665287D01*
X128613794Y-102709057D01*
X128664590Y-102757031D01*
X128681386Y-102824852D01*
X128658849Y-102890987D01*
X128615955Y-102928899D01*
X128549997Y-102964155D01*
X128480586Y-103010534D01*
X128480585Y-103010534D01*
X129080089Y-103610037D01*
X129016507Y-103627075D01*
X128902493Y-103692901D01*
X128809401Y-103785993D01*
X128743575Y-103900007D01*
X128726537Y-103963588D01*
X128127034Y-103364085D01*
X128127034Y-103364086D01*
X128080658Y-103433493D01*
X128033990Y-103520801D01*
X127973685Y-103666387D01*
X127944944Y-103761135D01*
X127914201Y-103915697D01*
X127914201Y-103915700D01*
X127904500Y-104014210D01*
X127904500Y-104171789D01*
X127914201Y-104270299D01*
X127914201Y-104270302D01*
X127944944Y-104424864D01*
X127973685Y-104519612D01*
X128033990Y-104665198D01*
X128080655Y-104752501D01*
X128080661Y-104752511D01*
X128127034Y-104821912D01*
X128726537Y-104222410D01*
X128743575Y-104285993D01*
X128809401Y-104400007D01*
X128902493Y-104493099D01*
X129016507Y-104558925D01*
X129080089Y-104575962D01*
X128480585Y-105175465D01*
X128549988Y-105221838D01*
X128549998Y-105221844D01*
X128615954Y-105257099D01*
X128665798Y-105306062D01*
X128681258Y-105374200D01*
X128657426Y-105439879D01*
X128613795Y-105476942D01*
X128527886Y-105520715D01*
X128362286Y-105641028D01*
X128217534Y-105785780D01*
X128217530Y-105785786D01*
X128097213Y-105951390D01*
X128091198Y-105963195D01*
X128043226Y-106013990D01*
X127980714Y-106030900D01*
X124173732Y-106030900D01*
X124071642Y-106058255D01*
X124020597Y-106071933D01*
X123915233Y-106132765D01*
X123883303Y-106151199D01*
X123883300Y-106151201D01*
X122918514Y-107115987D01*
X122857191Y-107149472D01*
X122855025Y-107149923D01*
X122702508Y-107180261D01*
X122702498Y-107180264D01*
X122583450Y-107229575D01*
X122513980Y-107237044D01*
X122488546Y-107229575D01*
X122369498Y-107180264D01*
X122369486Y-107180261D01*
X122214842Y-107149500D01*
X122214839Y-107149500D01*
X122057155Y-107149500D01*
X122057152Y-107149500D01*
X121902507Y-107180261D01*
X121902495Y-107180264D01*
X121756824Y-107240602D01*
X121756811Y-107240609D01*
X121625708Y-107328210D01*
X121625704Y-107328213D01*
X121514210Y-107439707D01*
X121514207Y-107439711D01*
X121426606Y-107570814D01*
X121426599Y-107570827D01*
X121366261Y-107716498D01*
X121366258Y-107716510D01*
X121335497Y-107871153D01*
X121335497Y-108028846D01*
X121366258Y-108183489D01*
X121366261Y-108183501D01*
X121426599Y-108329172D01*
X121426606Y-108329185D01*
X121514207Y-108460288D01*
X121514210Y-108460292D01*
X121625704Y-108571786D01*
X121625708Y-108571789D01*
X121756811Y-108659390D01*
X121756824Y-108659397D01*
X121866079Y-108704651D01*
X121902500Y-108719737D01*
X121989857Y-108737113D01*
X122051764Y-108769496D01*
X122053344Y-108771048D01*
X122824994Y-109542698D01*
X122937096Y-109654800D01*
X123074392Y-109734067D01*
X123227526Y-109775100D01*
X123386062Y-109775100D01*
X127980714Y-109775100D01*
X128047753Y-109794785D01*
X128091197Y-109842804D01*
X128097213Y-109854610D01*
X128217530Y-110020213D01*
X128217534Y-110020219D01*
X128362286Y-110164971D01*
X128517249Y-110277556D01*
X128527890Y-110285287D01*
X128619340Y-110331883D01*
X128620580Y-110332515D01*
X128671376Y-110380490D01*
X128688171Y-110448311D01*
X128665634Y-110514446D01*
X128620580Y-110553485D01*
X128527886Y-110600715D01*
X128362286Y-110721028D01*
X128217528Y-110865786D01*
X128097215Y-111031386D01*
X128004281Y-111213776D01*
X127941022Y-111408465D01*
X127909000Y-111610648D01*
X127909000Y-111815351D01*
X127941022Y-112017534D01*
X128004281Y-112212223D01*
X128097215Y-112394613D01*
X128217528Y-112560213D01*
X128362286Y-112704971D01*
X128517249Y-112817556D01*
X128527890Y-112825287D01*
X128619340Y-112871883D01*
X128620580Y-112872515D01*
X128671376Y-112920490D01*
X128688171Y-112988311D01*
X128665634Y-113054446D01*
X128620580Y-113093485D01*
X128527886Y-113140715D01*
X128362286Y-113261028D01*
X128217528Y-113405786D01*
X128097215Y-113571386D01*
X128004281Y-113753776D01*
X127941022Y-113948465D01*
X127909000Y-114150648D01*
X127909000Y-114355351D01*
X127941022Y-114557534D01*
X128004281Y-114752223D01*
X128097215Y-114934613D01*
X128217528Y-115100213D01*
X128362286Y-115244971D01*
X128527888Y-115365286D01*
X128527890Y-115365287D01*
X128613794Y-115409057D01*
X128664590Y-115457031D01*
X128681386Y-115524852D01*
X128658849Y-115590987D01*
X128615955Y-115628899D01*
X128549997Y-115664155D01*
X128480586Y-115710534D01*
X128480585Y-115710534D01*
X129080089Y-116310037D01*
X129016507Y-116327075D01*
X128902493Y-116392901D01*
X128809401Y-116485993D01*
X128743575Y-116600007D01*
X128726537Y-116663588D01*
X128127034Y-116064085D01*
X128127034Y-116064086D01*
X128080658Y-116133493D01*
X128033990Y-116220801D01*
X127973685Y-116366387D01*
X127944944Y-116461135D01*
X127914201Y-116615697D01*
X127914201Y-116615700D01*
X127904500Y-116714210D01*
X127904500Y-116871789D01*
X127914201Y-116970299D01*
X127914201Y-116970302D01*
X127944944Y-117124864D01*
X127973685Y-117219612D01*
X128033990Y-117365198D01*
X128080655Y-117452501D01*
X128080661Y-117452511D01*
X128127034Y-117521912D01*
X128726537Y-116922410D01*
X128743575Y-116985993D01*
X128809401Y-117100007D01*
X128902493Y-117193099D01*
X129016507Y-117258925D01*
X129080089Y-117275962D01*
X128480585Y-117875465D01*
X128549988Y-117921838D01*
X128549998Y-117921844D01*
X128615954Y-117957099D01*
X128665798Y-118006062D01*
X128681258Y-118074200D01*
X128657426Y-118139879D01*
X128613795Y-118176942D01*
X128527886Y-118220715D01*
X128362286Y-118341028D01*
X128217528Y-118485786D01*
X128097215Y-118651386D01*
X128004281Y-118833776D01*
X127941022Y-119028465D01*
X127909000Y-119230648D01*
X127909000Y-119435351D01*
X127941022Y-119637534D01*
X128004281Y-119832223D01*
X128097215Y-120014613D01*
X128217528Y-120180213D01*
X128362286Y-120324971D01*
X128517249Y-120437556D01*
X128527890Y-120445287D01*
X128619340Y-120491883D01*
X128620580Y-120492515D01*
X128671376Y-120540490D01*
X128688171Y-120608311D01*
X128665634Y-120674446D01*
X128620580Y-120713485D01*
X128527886Y-120760715D01*
X128362286Y-120881028D01*
X128217528Y-121025786D01*
X128097215Y-121191386D01*
X128004281Y-121373776D01*
X127941022Y-121568465D01*
X127909000Y-121770648D01*
X127909000Y-121975351D01*
X127941022Y-122177534D01*
X128004281Y-122372223D01*
X128097215Y-122554613D01*
X128217528Y-122720213D01*
X128362286Y-122864971D01*
X128517249Y-122977556D01*
X128527890Y-122985287D01*
X128644107Y-123044503D01*
X128710276Y-123078218D01*
X128710278Y-123078218D01*
X128710281Y-123078220D01*
X128814637Y-123112127D01*
X128904965Y-123141477D01*
X129006057Y-123157488D01*
X129107148Y-123173500D01*
X129107149Y-123173500D01*
X129311851Y-123173500D01*
X129311852Y-123173500D01*
X129514034Y-123141477D01*
X129708719Y-123078220D01*
X129891110Y-122985287D01*
X129984090Y-122917732D01*
X130056713Y-122864971D01*
X130056715Y-122864968D01*
X130056719Y-122864966D01*
X130201466Y-122720219D01*
X130201468Y-122720215D01*
X130201471Y-122720213D01*
X130254232Y-122647590D01*
X130321787Y-122554610D01*
X130414720Y-122372219D01*
X130477977Y-122177534D01*
X130510000Y-121975352D01*
X130510000Y-121770648D01*
X130477977Y-121568466D01*
X130414720Y-121373781D01*
X130414718Y-121373778D01*
X130414718Y-121373776D01*
X130381003Y-121307607D01*
X130321787Y-121191390D01*
X130314056Y-121180749D01*
X130201471Y-121025786D01*
X130056713Y-120881028D01*
X129891114Y-120760715D01*
X129884506Y-120757348D01*
X129798417Y-120713483D01*
X129747623Y-120665511D01*
X129730828Y-120597690D01*
X129753365Y-120531555D01*
X129798417Y-120492516D01*
X129891110Y-120445287D01*
X129912270Y-120429913D01*
X130056713Y-120324971D01*
X130056715Y-120324968D01*
X130056719Y-120324966D01*
X130201466Y-120180219D01*
X130201468Y-120180215D01*
X130201471Y-120180213D01*
X130254232Y-120107590D01*
X130321787Y-120014610D01*
X130414720Y-119832219D01*
X130477977Y-119637534D01*
X130510000Y-119435352D01*
X130510000Y-119230648D01*
X130486598Y-119082895D01*
X130999500Y-119082895D01*
X135651557Y-122695663D01*
X135692431Y-122752327D01*
X135699500Y-122793597D01*
X135699500Y-123743000D01*
X140499500Y-123743000D01*
X140499500Y-122793597D01*
X140519185Y-122726558D01*
X140547441Y-122695664D01*
X145199500Y-119082895D01*
X145199500Y-114743000D01*
X130999500Y-114743000D01*
X130999500Y-119082895D01*
X130486598Y-119082895D01*
X130477977Y-119028466D01*
X130414720Y-118833781D01*
X130414718Y-118833778D01*
X130414718Y-118833776D01*
X130381003Y-118767607D01*
X130321787Y-118651390D01*
X130314056Y-118640749D01*
X130201471Y-118485786D01*
X130056717Y-118341032D01*
X129979915Y-118285232D01*
X129937250Y-118229902D01*
X129931271Y-118160288D01*
X129963877Y-118098494D01*
X130022140Y-118064765D01*
X130042539Y-118059559D01*
X130099084Y-118036136D01*
X130099084Y-118036135D01*
X129338910Y-117275962D01*
X129402493Y-117258925D01*
X129516507Y-117193099D01*
X129609599Y-117100007D01*
X129675425Y-116985993D01*
X129692462Y-116922411D01*
X130452635Y-117682584D01*
X130452636Y-117682584D01*
X130476052Y-117626053D01*
X130494044Y-117575053D01*
X130514499Y-117432780D01*
X130514500Y-117432779D01*
X130514500Y-116153214D01*
X130511606Y-116099237D01*
X130511606Y-116099235D01*
X130476061Y-115959969D01*
X130476059Y-115959962D01*
X130452635Y-115903414D01*
X129692462Y-116663588D01*
X129675425Y-116600007D01*
X129609599Y-116485993D01*
X129516507Y-116392901D01*
X129402493Y-116327075D01*
X129338910Y-116310037D01*
X130099084Y-115549862D01*
X130042559Y-115526449D01*
X130042548Y-115526445D01*
X130013874Y-115516329D01*
X129957203Y-115475462D01*
X129931622Y-115410443D01*
X129945254Y-115341916D01*
X129982245Y-115299074D01*
X130056715Y-115244969D01*
X130056715Y-115244968D01*
X130056719Y-115244966D01*
X130201466Y-115100219D01*
X130201468Y-115100215D01*
X130201471Y-115100213D01*
X130254232Y-115027590D01*
X130321787Y-114934610D01*
X130414720Y-114752219D01*
X130477977Y-114557534D01*
X130510000Y-114355352D01*
X130510000Y-114150648D01*
X130477977Y-113948466D01*
X130414720Y-113753781D01*
X130414718Y-113753778D01*
X130414718Y-113753776D01*
X130381003Y-113687607D01*
X130321787Y-113571390D01*
X130314056Y-113560749D01*
X130201471Y-113405786D01*
X130056713Y-113261028D01*
X129891114Y-113140715D01*
X129884506Y-113137348D01*
X129798417Y-113093483D01*
X129747623Y-113045511D01*
X129730828Y-112977690D01*
X129753365Y-112911555D01*
X129798417Y-112872516D01*
X129891110Y-112825287D01*
X129912270Y-112809913D01*
X130056713Y-112704971D01*
X130056715Y-112704968D01*
X130056719Y-112704966D01*
X130201466Y-112560219D01*
X130201468Y-112560215D01*
X130201471Y-112560213D01*
X130254232Y-112487590D01*
X130321787Y-112394610D01*
X130414720Y-112212219D01*
X130477977Y-112017534D01*
X130510000Y-111815352D01*
X130510000Y-111610648D01*
X130506631Y-111589377D01*
X130477977Y-111408465D01*
X130414718Y-111213776D01*
X130381003Y-111147607D01*
X130321787Y-111031390D01*
X130314056Y-111020749D01*
X130201471Y-110865786D01*
X130056713Y-110721028D01*
X129891114Y-110600715D01*
X129884506Y-110597348D01*
X129798417Y-110553483D01*
X129747623Y-110505511D01*
X129730828Y-110437690D01*
X129753365Y-110371555D01*
X129798417Y-110332516D01*
X129891110Y-110285287D01*
X129912270Y-110269913D01*
X130056713Y-110164971D01*
X130056715Y-110164968D01*
X130056719Y-110164966D01*
X130201466Y-110020219D01*
X130201468Y-110020215D01*
X130201471Y-110020213D01*
X130254232Y-109947590D01*
X130321787Y-109854610D01*
X130414720Y-109672219D01*
X130477977Y-109477534D01*
X130510000Y-109275352D01*
X130510000Y-109070648D01*
X130494650Y-108973735D01*
X130477977Y-108868465D01*
X130429652Y-108719737D01*
X130414720Y-108673781D01*
X130414718Y-108673778D01*
X130414718Y-108673776D01*
X130352269Y-108551215D01*
X130321787Y-108491390D01*
X130282632Y-108437497D01*
X130201471Y-108325786D01*
X130056713Y-108181028D01*
X129891114Y-108060715D01*
X129884506Y-108057348D01*
X129798417Y-108013483D01*
X129747623Y-107965511D01*
X129730828Y-107897690D01*
X129753365Y-107831555D01*
X129798417Y-107792516D01*
X129891110Y-107745287D01*
X129912270Y-107729913D01*
X130056713Y-107624971D01*
X130056715Y-107624968D01*
X130056719Y-107624966D01*
X130201466Y-107480219D01*
X130201468Y-107480215D01*
X130201471Y-107480213D01*
X130296228Y-107349789D01*
X130321787Y-107314610D01*
X130414720Y-107132219D01*
X130477977Y-106937534D01*
X130510000Y-106735352D01*
X130510000Y-106530648D01*
X130477977Y-106328466D01*
X130471566Y-106308736D01*
X130420380Y-106151201D01*
X130414720Y-106133781D01*
X130414718Y-106133778D01*
X130414718Y-106133776D01*
X130353683Y-106013990D01*
X130321787Y-105951390D01*
X130314056Y-105940749D01*
X130201471Y-105785786D01*
X130056717Y-105641032D01*
X129979915Y-105585232D01*
X129937250Y-105529902D01*
X129931271Y-105460288D01*
X129963877Y-105398494D01*
X130022140Y-105364765D01*
X130042539Y-105359559D01*
X130099084Y-105336136D01*
X130099084Y-105336135D01*
X129338910Y-104575962D01*
X129402493Y-104558925D01*
X129516507Y-104493099D01*
X129609599Y-104400007D01*
X129675425Y-104285993D01*
X129692462Y-104222411D01*
X130452635Y-104982584D01*
X130452636Y-104982584D01*
X130476052Y-104926053D01*
X130494044Y-104875053D01*
X130514499Y-104732780D01*
X130514500Y-104732779D01*
X130514500Y-103453224D01*
X130514499Y-103453204D01*
X130511606Y-103399237D01*
X130511606Y-103399235D01*
X130476061Y-103259969D01*
X130476059Y-103259962D01*
X130452635Y-103203414D01*
X129692462Y-103963588D01*
X129675425Y-103900007D01*
X129609599Y-103785993D01*
X129516507Y-103692901D01*
X129402493Y-103627075D01*
X129338910Y-103610037D01*
X130099084Y-102849862D01*
X130042559Y-102826449D01*
X130042548Y-102826445D01*
X130013874Y-102816329D01*
X129957203Y-102775462D01*
X129931622Y-102710443D01*
X129945254Y-102641916D01*
X129982245Y-102599074D01*
X130056715Y-102544969D01*
X130056715Y-102544968D01*
X130056719Y-102544966D01*
X130201466Y-102400219D01*
X130201468Y-102400215D01*
X130201471Y-102400213D01*
X130254232Y-102327590D01*
X130321787Y-102234610D01*
X130414720Y-102052219D01*
X130477977Y-101857534D01*
X130510000Y-101655352D01*
X130510000Y-101450648D01*
X130496669Y-101366482D01*
X130477977Y-101248465D01*
X130414718Y-101053776D01*
X130352269Y-100931215D01*
X130321787Y-100871390D01*
X130314056Y-100860749D01*
X130201471Y-100705786D01*
X130056713Y-100561028D01*
X129891114Y-100440715D01*
X129884506Y-100437348D01*
X129798417Y-100393483D01*
X129747623Y-100345511D01*
X129730828Y-100277690D01*
X129753365Y-100211555D01*
X129798417Y-100172516D01*
X129891110Y-100125287D01*
X129912270Y-100109913D01*
X130056713Y-100004971D01*
X130056715Y-100004968D01*
X130056719Y-100004966D01*
X130201466Y-99860219D01*
X130201468Y-99860215D01*
X130201471Y-99860213D01*
X130254232Y-99787590D01*
X130321787Y-99694610D01*
X130414720Y-99512219D01*
X130477977Y-99317534D01*
X130510000Y-99115352D01*
X130510000Y-98910648D01*
X130477977Y-98708466D01*
X130414720Y-98513781D01*
X130414718Y-98513778D01*
X130414718Y-98513776D01*
X130352269Y-98391215D01*
X130321787Y-98331390D01*
X130295865Y-98295711D01*
X130201471Y-98165786D01*
X130056713Y-98021028D01*
X129891114Y-97900715D01*
X129884506Y-97897348D01*
X129798417Y-97853483D01*
X129747623Y-97805511D01*
X129730828Y-97737690D01*
X129753365Y-97671555D01*
X129798417Y-97632516D01*
X129891110Y-97585287D01*
X129912270Y-97569913D01*
X130056713Y-97464971D01*
X130056715Y-97464968D01*
X130056719Y-97464966D01*
X130201466Y-97320219D01*
X130201468Y-97320215D01*
X130201471Y-97320213D01*
X130263207Y-97235239D01*
X130321787Y-97154610D01*
X130414720Y-96972219D01*
X130477977Y-96777534D01*
X130510000Y-96575352D01*
X130510000Y-96370648D01*
X130477977Y-96168466D01*
X130414720Y-95973781D01*
X130414718Y-95973778D01*
X130414718Y-95973776D01*
X130353683Y-95853990D01*
X130321787Y-95791390D01*
X130313219Y-95779597D01*
X130201471Y-95625786D01*
X130056713Y-95481028D01*
X129891114Y-95360715D01*
X129884506Y-95357348D01*
X129798417Y-95313483D01*
X129747623Y-95265511D01*
X129730828Y-95197690D01*
X129753365Y-95131555D01*
X129798417Y-95092516D01*
X129891110Y-95045287D01*
X129912270Y-95029913D01*
X130056713Y-94924971D01*
X130056715Y-94924968D01*
X130056719Y-94924966D01*
X130201466Y-94780219D01*
X130201468Y-94780215D01*
X130201471Y-94780213D01*
X130254232Y-94707590D01*
X130321787Y-94614610D01*
X130414720Y-94432219D01*
X130477977Y-94237534D01*
X130510000Y-94035352D01*
X130510000Y-93830648D01*
X130477977Y-93628466D01*
X130414720Y-93433781D01*
X130414718Y-93433778D01*
X130414718Y-93433776D01*
X130353683Y-93313990D01*
X130321787Y-93251390D01*
X130314056Y-93240749D01*
X130201471Y-93085786D01*
X130056717Y-92941032D01*
X129979915Y-92885232D01*
X129937250Y-92829902D01*
X129931271Y-92760288D01*
X129963877Y-92698494D01*
X130022140Y-92664765D01*
X130042539Y-92659559D01*
X130099084Y-92636136D01*
X130099084Y-92636135D01*
X129338910Y-91875962D01*
X129402493Y-91858925D01*
X129516507Y-91793099D01*
X129609599Y-91700007D01*
X129675425Y-91585993D01*
X129692462Y-91522411D01*
X130452635Y-92282584D01*
X130452636Y-92282584D01*
X130476052Y-92226053D01*
X130494044Y-92175053D01*
X130514499Y-92032780D01*
X130514500Y-92032779D01*
X130514500Y-90753224D01*
X130514500Y-90753219D01*
X145684000Y-90753219D01*
X145684000Y-92032784D01*
X145686895Y-92086814D01*
X145686896Y-92086818D01*
X145722476Y-92226221D01*
X145722480Y-92226233D01*
X145752919Y-92299719D01*
X145752931Y-92299747D01*
X145776279Y-92348548D01*
X145776281Y-92348551D01*
X145862506Y-92463733D01*
X145862510Y-92463737D01*
X145862515Y-92463743D01*
X145918752Y-92519980D01*
X145918761Y-92519988D01*
X145918767Y-92519994D01*
X145959024Y-92556156D01*
X145959032Y-92556162D01*
X146082763Y-92629573D01*
X146082762Y-92629573D01*
X146092941Y-92633789D01*
X146156274Y-92660022D01*
X146172145Y-92665621D01*
X146184633Y-92670027D01*
X146241305Y-92710894D01*
X146266886Y-92775912D01*
X146253254Y-92844439D01*
X146216265Y-92887281D01*
X146142282Y-92941032D01*
X145997528Y-93085786D01*
X145877215Y-93251386D01*
X145784281Y-93433776D01*
X145721022Y-93628465D01*
X145689000Y-93830648D01*
X145689000Y-94035351D01*
X145721022Y-94237534D01*
X145784281Y-94432223D01*
X145877215Y-94614613D01*
X145997528Y-94780213D01*
X146142286Y-94924971D01*
X146297249Y-95037556D01*
X146307890Y-95045287D01*
X146399340Y-95091883D01*
X146400580Y-95092515D01*
X146451376Y-95140490D01*
X146468171Y-95208311D01*
X146445634Y-95274446D01*
X146400580Y-95313485D01*
X146307886Y-95360715D01*
X146142286Y-95481028D01*
X145997528Y-95625786D01*
X145877215Y-95791386D01*
X145784281Y-95973776D01*
X145721022Y-96168465D01*
X145689000Y-96370648D01*
X145689000Y-96575351D01*
X145721022Y-96777534D01*
X145784281Y-96972223D01*
X145838553Y-97078736D01*
X145864161Y-97128995D01*
X145877215Y-97154613D01*
X145997528Y-97320213D01*
X146142286Y-97464971D01*
X146297249Y-97577556D01*
X146307890Y-97585287D01*
X146399340Y-97631883D01*
X146400580Y-97632515D01*
X146451376Y-97680490D01*
X146468171Y-97748311D01*
X146445634Y-97814446D01*
X146400580Y-97853485D01*
X146307886Y-97900715D01*
X146142286Y-98021028D01*
X145997528Y-98165786D01*
X145877215Y-98331386D01*
X145784281Y-98513776D01*
X145721022Y-98708465D01*
X145689000Y-98910648D01*
X145689000Y-99115351D01*
X145721022Y-99317534D01*
X145784281Y-99512223D01*
X145846731Y-99634785D01*
X145862977Y-99666671D01*
X145877215Y-99694613D01*
X145997528Y-99860213D01*
X146142286Y-100004971D01*
X146297249Y-100117556D01*
X146307890Y-100125287D01*
X146399340Y-100171883D01*
X146400580Y-100172515D01*
X146451376Y-100220490D01*
X146468171Y-100288311D01*
X146445634Y-100354446D01*
X146400580Y-100393485D01*
X146307886Y-100440715D01*
X146142286Y-100561028D01*
X145997528Y-100705786D01*
X145877215Y-100871386D01*
X145784281Y-101053776D01*
X145721022Y-101248465D01*
X145689000Y-101450648D01*
X145689000Y-101655351D01*
X145721022Y-101857534D01*
X145784281Y-102052223D01*
X145846731Y-102174785D01*
X145870680Y-102221789D01*
X145877215Y-102234613D01*
X145997528Y-102400213D01*
X146142282Y-102544967D01*
X146142287Y-102544971D01*
X146219083Y-102600767D01*
X146261749Y-102656097D01*
X146267728Y-102725710D01*
X146235122Y-102787505D01*
X146176865Y-102821233D01*
X146156473Y-102826437D01*
X146156462Y-102826441D01*
X146099915Y-102849863D01*
X146860089Y-103610037D01*
X146796507Y-103627075D01*
X146682493Y-103692901D01*
X146589401Y-103785993D01*
X146523575Y-103900007D01*
X146506537Y-103963589D01*
X145746363Y-103203415D01*
X145746362Y-103203415D01*
X145722946Y-103259947D01*
X145722931Y-103259987D01*
X145704957Y-103310939D01*
X145704955Y-103310946D01*
X145684500Y-103453219D01*
X145684500Y-104732785D01*
X145687393Y-104786762D01*
X145687393Y-104786764D01*
X145722938Y-104926030D01*
X145722942Y-104926043D01*
X145746362Y-104982584D01*
X146506537Y-104222410D01*
X146523575Y-104285993D01*
X146589401Y-104400007D01*
X146682493Y-104493099D01*
X146796507Y-104558925D01*
X146860089Y-104575962D01*
X146099914Y-105336135D01*
X146156460Y-105359557D01*
X146156486Y-105359567D01*
X146185121Y-105369669D01*
X146241794Y-105410534D01*
X146267376Y-105475552D01*
X146253746Y-105544080D01*
X146216756Y-105586924D01*
X146142282Y-105641032D01*
X145997528Y-105785786D01*
X145877215Y-105951386D01*
X145784281Y-106133776D01*
X145721022Y-106328465D01*
X145689000Y-106530648D01*
X145689000Y-106735351D01*
X145721022Y-106937534D01*
X145784281Y-107132223D01*
X145846595Y-107254519D01*
X145877141Y-107314469D01*
X145877215Y-107314613D01*
X145997528Y-107480213D01*
X146142286Y-107624971D01*
X146297249Y-107737556D01*
X146307890Y-107745287D01*
X146399340Y-107791883D01*
X146400580Y-107792515D01*
X146451376Y-107840490D01*
X146468171Y-107908311D01*
X146445634Y-107974446D01*
X146400580Y-108013485D01*
X146307886Y-108060715D01*
X146142286Y-108181028D01*
X145997528Y-108325786D01*
X145877215Y-108491386D01*
X145784281Y-108673776D01*
X145721022Y-108868465D01*
X145689000Y-109070648D01*
X145689000Y-109275351D01*
X145721022Y-109477534D01*
X145784281Y-109672223D01*
X145877215Y-109854613D01*
X145997528Y-110020213D01*
X146142286Y-110164971D01*
X146297249Y-110277556D01*
X146307890Y-110285287D01*
X146399340Y-110331883D01*
X146400580Y-110332515D01*
X146451376Y-110380490D01*
X146468171Y-110448311D01*
X146445634Y-110514446D01*
X146400580Y-110553485D01*
X146307886Y-110600715D01*
X146142286Y-110721028D01*
X145997528Y-110865786D01*
X145877215Y-111031386D01*
X145784281Y-111213776D01*
X145721022Y-111408465D01*
X145689000Y-111610648D01*
X145689000Y-111815351D01*
X145721022Y-112017534D01*
X145784281Y-112212223D01*
X145877215Y-112394613D01*
X145997528Y-112560213D01*
X146142286Y-112704971D01*
X146297249Y-112817556D01*
X146307890Y-112825287D01*
X146399340Y-112871883D01*
X146400580Y-112872515D01*
X146451376Y-112920490D01*
X146468171Y-112988311D01*
X146445634Y-113054446D01*
X146400580Y-113093485D01*
X146307886Y-113140715D01*
X146142286Y-113261028D01*
X145997528Y-113405786D01*
X145877215Y-113571386D01*
X145784281Y-113753776D01*
X145721022Y-113948465D01*
X145689000Y-114150648D01*
X145689000Y-114355351D01*
X145721022Y-114557534D01*
X145784281Y-114752223D01*
X145877215Y-114934613D01*
X145997528Y-115100213D01*
X146142282Y-115244967D01*
X146142287Y-115244971D01*
X146219083Y-115300767D01*
X146261749Y-115356097D01*
X146267728Y-115425710D01*
X146235122Y-115487505D01*
X146176865Y-115521233D01*
X146156473Y-115526437D01*
X146156462Y-115526441D01*
X146099915Y-115549863D01*
X146860089Y-116310037D01*
X146796507Y-116327075D01*
X146682493Y-116392901D01*
X146589401Y-116485993D01*
X146523575Y-116600007D01*
X146506537Y-116663589D01*
X145746363Y-115903415D01*
X145746362Y-115903415D01*
X145722946Y-115959947D01*
X145722931Y-115959987D01*
X145704957Y-116010939D01*
X145704955Y-116010946D01*
X145684500Y-116153219D01*
X145684500Y-117432785D01*
X145687393Y-117486762D01*
X145687393Y-117486764D01*
X145722938Y-117626030D01*
X145722942Y-117626043D01*
X145746362Y-117682584D01*
X146506537Y-116922410D01*
X146523575Y-116985993D01*
X146589401Y-117100007D01*
X146682493Y-117193099D01*
X146796507Y-117258925D01*
X146860089Y-117275962D01*
X146099914Y-118036135D01*
X146156460Y-118059557D01*
X146156486Y-118059567D01*
X146185121Y-118069669D01*
X146241794Y-118110534D01*
X146267376Y-118175552D01*
X146253746Y-118244080D01*
X146216756Y-118286924D01*
X146142282Y-118341032D01*
X145997528Y-118485786D01*
X145877215Y-118651386D01*
X145784281Y-118833776D01*
X145721022Y-119028465D01*
X145689000Y-119230648D01*
X145689000Y-119435351D01*
X145721022Y-119637534D01*
X145784281Y-119832223D01*
X145877215Y-120014613D01*
X145997528Y-120180213D01*
X146142286Y-120324971D01*
X146297249Y-120437556D01*
X146307890Y-120445287D01*
X146399340Y-120491883D01*
X146400580Y-120492515D01*
X146451376Y-120540490D01*
X146468171Y-120608311D01*
X146445634Y-120674446D01*
X146400580Y-120713485D01*
X146307886Y-120760715D01*
X146142286Y-120881028D01*
X145997528Y-121025786D01*
X145877215Y-121191386D01*
X145784281Y-121373776D01*
X145721022Y-121568465D01*
X145689000Y-121770648D01*
X145689000Y-121975351D01*
X145721022Y-122177534D01*
X145784281Y-122372223D01*
X145877215Y-122554613D01*
X145997528Y-122720213D01*
X146142286Y-122864971D01*
X146297249Y-122977556D01*
X146307890Y-122985287D01*
X146424107Y-123044503D01*
X146490276Y-123078218D01*
X146490278Y-123078218D01*
X146490281Y-123078220D01*
X146594637Y-123112127D01*
X146684965Y-123141477D01*
X146786057Y-123157488D01*
X146887148Y-123173500D01*
X146887149Y-123173500D01*
X147091851Y-123173500D01*
X147091852Y-123173500D01*
X147294034Y-123141477D01*
X147488719Y-123078220D01*
X147671110Y-122985287D01*
X147764090Y-122917732D01*
X147836713Y-122864971D01*
X147836715Y-122864968D01*
X147836719Y-122864966D01*
X147981466Y-122720219D01*
X147981468Y-122720215D01*
X147981471Y-122720213D01*
X148034232Y-122647590D01*
X148101787Y-122554610D01*
X148194720Y-122372219D01*
X148257977Y-122177534D01*
X148290000Y-121975352D01*
X148290000Y-121770648D01*
X148257977Y-121568466D01*
X148194720Y-121373781D01*
X148194718Y-121373778D01*
X148194718Y-121373776D01*
X148161003Y-121307607D01*
X148101787Y-121191390D01*
X148094056Y-121180749D01*
X147981471Y-121025786D01*
X147836713Y-120881028D01*
X147671114Y-120760715D01*
X147664506Y-120757348D01*
X147578417Y-120713483D01*
X147527623Y-120665511D01*
X147510828Y-120597690D01*
X147533365Y-120531555D01*
X147578417Y-120492516D01*
X147671110Y-120445287D01*
X147692270Y-120429913D01*
X147836713Y-120324971D01*
X147836715Y-120324968D01*
X147836719Y-120324966D01*
X147981466Y-120180219D01*
X147981468Y-120180215D01*
X147981471Y-120180213D01*
X148034232Y-120107590D01*
X148101787Y-120014610D01*
X148194720Y-119832219D01*
X148257977Y-119637534D01*
X148290000Y-119435352D01*
X148290000Y-119230648D01*
X148257977Y-119028466D01*
X148194720Y-118833781D01*
X148194718Y-118833778D01*
X148194718Y-118833776D01*
X148161003Y-118767607D01*
X148101787Y-118651390D01*
X148094056Y-118640749D01*
X147981471Y-118485786D01*
X147836713Y-118341028D01*
X147671114Y-118220715D01*
X147662910Y-118216535D01*
X147585203Y-118176941D01*
X147534408Y-118128968D01*
X147517613Y-118061147D01*
X147540150Y-117995012D01*
X147583046Y-117957099D01*
X147649003Y-117921843D01*
X147649015Y-117921837D01*
X147718413Y-117875465D01*
X147118910Y-117275962D01*
X147182493Y-117258925D01*
X147296507Y-117193099D01*
X147389599Y-117100007D01*
X147455425Y-116985993D01*
X147472462Y-116922410D01*
X148071965Y-117521913D01*
X148118337Y-117452515D01*
X148118338Y-117452511D01*
X148165009Y-117365198D01*
X148225314Y-117219612D01*
X148254055Y-117124864D01*
X148284798Y-116970302D01*
X148284798Y-116970299D01*
X148294500Y-116871789D01*
X148294500Y-116714210D01*
X148284798Y-116615700D01*
X148284798Y-116615697D01*
X148254055Y-116461135D01*
X148225314Y-116366387D01*
X148165009Y-116220801D01*
X148118344Y-116133498D01*
X148118338Y-116133488D01*
X148071965Y-116064085D01*
X147472462Y-116663588D01*
X147455425Y-116600007D01*
X147389599Y-116485993D01*
X147296507Y-116392901D01*
X147182493Y-116327075D01*
X147118910Y-116310037D01*
X147718412Y-115710534D01*
X147649011Y-115664161D01*
X147649000Y-115664155D01*
X147583045Y-115628900D01*
X147533201Y-115579937D01*
X147517741Y-115511799D01*
X147541573Y-115446119D01*
X147585202Y-115409059D01*
X147671110Y-115365287D01*
X147762245Y-115299074D01*
X147836713Y-115244971D01*
X147836715Y-115244968D01*
X147836719Y-115244966D01*
X147981466Y-115100219D01*
X147981468Y-115100215D01*
X147981471Y-115100213D01*
X148034232Y-115027590D01*
X148101787Y-114934610D01*
X148194720Y-114752219D01*
X148257977Y-114557534D01*
X148290000Y-114355352D01*
X148290000Y-114150648D01*
X148257977Y-113948466D01*
X148194720Y-113753781D01*
X148194718Y-113753778D01*
X148194718Y-113753776D01*
X148161003Y-113687607D01*
X148101787Y-113571390D01*
X148094056Y-113560749D01*
X147981471Y-113405786D01*
X147836713Y-113261028D01*
X147671114Y-113140715D01*
X147664506Y-113137348D01*
X147578417Y-113093483D01*
X147527623Y-113045511D01*
X147510828Y-112977690D01*
X147533365Y-112911555D01*
X147578417Y-112872516D01*
X147671110Y-112825287D01*
X147692270Y-112809913D01*
X147836713Y-112704971D01*
X147836715Y-112704968D01*
X147836719Y-112704966D01*
X147981466Y-112560219D01*
X147981468Y-112560215D01*
X147981471Y-112560213D01*
X148034232Y-112487590D01*
X148101787Y-112394610D01*
X148194720Y-112212219D01*
X148257977Y-112017534D01*
X148290000Y-111815352D01*
X148290000Y-111610648D01*
X148286631Y-111589377D01*
X148257977Y-111408465D01*
X148194718Y-111213776D01*
X148161003Y-111147607D01*
X148101787Y-111031390D01*
X148094056Y-111020749D01*
X147981471Y-110865786D01*
X147836713Y-110721028D01*
X147671114Y-110600715D01*
X147664506Y-110597348D01*
X147578417Y-110553483D01*
X147527623Y-110505511D01*
X147510828Y-110437690D01*
X147533365Y-110371555D01*
X147578417Y-110332516D01*
X147671110Y-110285287D01*
X147692270Y-110269913D01*
X147836713Y-110164971D01*
X147836715Y-110164968D01*
X147836719Y-110164966D01*
X147981466Y-110020219D01*
X147981468Y-110020215D01*
X147981471Y-110020213D01*
X148034232Y-109947590D01*
X148101787Y-109854610D01*
X148194720Y-109672219D01*
X148257977Y-109477534D01*
X148290000Y-109275352D01*
X148290000Y-109070648D01*
X148274650Y-108973735D01*
X148257977Y-108868465D01*
X148209652Y-108719737D01*
X148194720Y-108673781D01*
X148194718Y-108673778D01*
X148194718Y-108673776D01*
X148132269Y-108551215D01*
X148101787Y-108491390D01*
X148062632Y-108437497D01*
X147981471Y-108325786D01*
X147836713Y-108181028D01*
X147671114Y-108060715D01*
X147664506Y-108057348D01*
X147578417Y-108013483D01*
X147527623Y-107965511D01*
X147510828Y-107897690D01*
X147533365Y-107831555D01*
X147578417Y-107792516D01*
X147671110Y-107745287D01*
X147692270Y-107729913D01*
X147836713Y-107624971D01*
X147836715Y-107624968D01*
X147836719Y-107624966D01*
X147981466Y-107480219D01*
X147981468Y-107480215D01*
X147981471Y-107480213D01*
X148076228Y-107349789D01*
X148101787Y-107314610D01*
X148194720Y-107132219D01*
X148257977Y-106937534D01*
X148290000Y-106735352D01*
X148290000Y-106530648D01*
X148257977Y-106328466D01*
X148251566Y-106308736D01*
X148200380Y-106151201D01*
X148194720Y-106133781D01*
X148194718Y-106133778D01*
X148194718Y-106133776D01*
X148133683Y-106013990D01*
X148101787Y-105951390D01*
X148094056Y-105940749D01*
X147981471Y-105785786D01*
X147836713Y-105641028D01*
X147671114Y-105520715D01*
X147662910Y-105516535D01*
X147585203Y-105476941D01*
X147534408Y-105428968D01*
X147517613Y-105361147D01*
X147540150Y-105295012D01*
X147583046Y-105257099D01*
X147649003Y-105221843D01*
X147649015Y-105221837D01*
X147718413Y-105175465D01*
X147118910Y-104575962D01*
X147182493Y-104558925D01*
X147296507Y-104493099D01*
X147389599Y-104400007D01*
X147455425Y-104285993D01*
X147472462Y-104222410D01*
X148071965Y-104821913D01*
X148118337Y-104752515D01*
X148118338Y-104752511D01*
X148165009Y-104665198D01*
X148225314Y-104519612D01*
X148254055Y-104424864D01*
X148284798Y-104270302D01*
X148284798Y-104270299D01*
X148294500Y-104171789D01*
X148294500Y-104014210D01*
X148284798Y-103915700D01*
X148284798Y-103915697D01*
X148254055Y-103761135D01*
X148225314Y-103666387D01*
X148165009Y-103520801D01*
X148118344Y-103433498D01*
X148118338Y-103433488D01*
X148071965Y-103364085D01*
X147472462Y-103963588D01*
X147455425Y-103900007D01*
X147389599Y-103785993D01*
X147296507Y-103692901D01*
X147182493Y-103627075D01*
X147118910Y-103610037D01*
X147718412Y-103010534D01*
X147649011Y-102964161D01*
X147649000Y-102964155D01*
X147583045Y-102928900D01*
X147533201Y-102879937D01*
X147517741Y-102811799D01*
X147541573Y-102746119D01*
X147585202Y-102709059D01*
X147671110Y-102665287D01*
X147811351Y-102563397D01*
X147836713Y-102544971D01*
X147836715Y-102544968D01*
X147836719Y-102544966D01*
X147981466Y-102400219D01*
X147981468Y-102400215D01*
X147981471Y-102400213D01*
X148034232Y-102327590D01*
X148101787Y-102234610D01*
X148194720Y-102052219D01*
X148257977Y-101857534D01*
X148290000Y-101655352D01*
X148290000Y-101450648D01*
X148276669Y-101366482D01*
X148257977Y-101248465D01*
X148194718Y-101053776D01*
X148132269Y-100931215D01*
X148101787Y-100871390D01*
X148094056Y-100860749D01*
X147981471Y-100705786D01*
X147836713Y-100561028D01*
X147671114Y-100440715D01*
X147664506Y-100437348D01*
X147578417Y-100393483D01*
X147527623Y-100345511D01*
X147510828Y-100277690D01*
X147533365Y-100211555D01*
X147578417Y-100172516D01*
X147671110Y-100125287D01*
X147692270Y-100109913D01*
X147836713Y-100004971D01*
X147836715Y-100004968D01*
X147836719Y-100004966D01*
X147981466Y-99860219D01*
X147981468Y-99860215D01*
X147981471Y-99860213D01*
X148034232Y-99787590D01*
X148101787Y-99694610D01*
X148194720Y-99512219D01*
X148257977Y-99317534D01*
X148290000Y-99115352D01*
X148290000Y-98910648D01*
X148257977Y-98708466D01*
X148194720Y-98513781D01*
X148194718Y-98513778D01*
X148194718Y-98513776D01*
X148132269Y-98391215D01*
X148101787Y-98331390D01*
X148075865Y-98295711D01*
X147981471Y-98165786D01*
X147836713Y-98021028D01*
X147671114Y-97900715D01*
X147664506Y-97897348D01*
X147578417Y-97853483D01*
X147527623Y-97805511D01*
X147510828Y-97737690D01*
X147533365Y-97671555D01*
X147578417Y-97632516D01*
X147671110Y-97585287D01*
X147692270Y-97569913D01*
X147836713Y-97464971D01*
X147836715Y-97464968D01*
X147836719Y-97464966D01*
X147981466Y-97320219D01*
X147981468Y-97320215D01*
X147981471Y-97320213D01*
X148043207Y-97235239D01*
X148101787Y-97154610D01*
X148194720Y-96972219D01*
X148257977Y-96777534D01*
X148290000Y-96575352D01*
X148290000Y-96370648D01*
X148257977Y-96168466D01*
X148194720Y-95973781D01*
X148194718Y-95973778D01*
X148194718Y-95973776D01*
X148133683Y-95853990D01*
X148101787Y-95791390D01*
X148093219Y-95779597D01*
X147981471Y-95625786D01*
X147836713Y-95481028D01*
X147671114Y-95360715D01*
X147664506Y-95357348D01*
X147578417Y-95313483D01*
X147527623Y-95265511D01*
X147510828Y-95197690D01*
X147533365Y-95131555D01*
X147578417Y-95092516D01*
X147671110Y-95045287D01*
X147692270Y-95029913D01*
X147836713Y-94924971D01*
X147836715Y-94924968D01*
X147836719Y-94924966D01*
X147981466Y-94780219D01*
X147981468Y-94780215D01*
X147981471Y-94780213D01*
X148034232Y-94707590D01*
X148101787Y-94614610D01*
X148194720Y-94432219D01*
X148257977Y-94237534D01*
X148290000Y-94035352D01*
X148290000Y-93830648D01*
X148257977Y-93628466D01*
X148194720Y-93433781D01*
X148194718Y-93433778D01*
X148194718Y-93433776D01*
X148133683Y-93313990D01*
X148101787Y-93251390D01*
X148094056Y-93240749D01*
X147981471Y-93085786D01*
X147836713Y-92941028D01*
X147671113Y-92820715D01*
X147671112Y-92820714D01*
X147671110Y-92820713D01*
X147618447Y-92793880D01*
X147585745Y-92777217D01*
X147534949Y-92729242D01*
X147518154Y-92661421D01*
X147540692Y-92595286D01*
X147583583Y-92557376D01*
X147649283Y-92522259D01*
X147780311Y-92434709D01*
X147856912Y-92371843D01*
X147968343Y-92260412D01*
X148031209Y-92183811D01*
X148118759Y-92052783D01*
X148165472Y-91965389D01*
X148225778Y-91819798D01*
X148254544Y-91724968D01*
X148285287Y-91570410D01*
X148295000Y-91471793D01*
X148295000Y-91314207D01*
X148285287Y-91215590D01*
X148254544Y-91061032D01*
X148225778Y-90966202D01*
X148165472Y-90820611D01*
X148118759Y-90733217D01*
X148118748Y-90733200D01*
X148031221Y-90602206D01*
X148031212Y-90602194D01*
X148031209Y-90602189D01*
X147968343Y-90525588D01*
X147856912Y-90414157D01*
X147780311Y-90351291D01*
X147780304Y-90351286D01*
X147780293Y-90351278D01*
X147649299Y-90263751D01*
X147649288Y-90263744D01*
X147649283Y-90263741D01*
X147627145Y-90251908D01*
X147583586Y-90228625D01*
X147533742Y-90179662D01*
X147518282Y-90111524D01*
X147542114Y-90045845D01*
X147585746Y-90008782D01*
X147671110Y-89965287D01*
X147762245Y-89899074D01*
X147836713Y-89844971D01*
X147836715Y-89844968D01*
X147836719Y-89844966D01*
X147981466Y-89700219D01*
X147981468Y-89700215D01*
X147981471Y-89700213D01*
X148059556Y-89592736D01*
X148101787Y-89534610D01*
X148194720Y-89352219D01*
X148257977Y-89157534D01*
X148290000Y-88955352D01*
X148290000Y-88750648D01*
X148257977Y-88548466D01*
X148248992Y-88520814D01*
X148194718Y-88353776D01*
X148156705Y-88279172D01*
X148101787Y-88171390D01*
X148081353Y-88143265D01*
X147981471Y-88005786D01*
X147836713Y-87861028D01*
X147781829Y-87821153D01*
X153155500Y-87821153D01*
X153155500Y-87978846D01*
X153186261Y-88133489D01*
X153186264Y-88133501D01*
X153246602Y-88279172D01*
X153246609Y-88279185D01*
X153281304Y-88331109D01*
X153302182Y-88397786D01*
X153283698Y-88465167D01*
X153281304Y-88468891D01*
X153246609Y-88520814D01*
X153246602Y-88520827D01*
X153186264Y-88666498D01*
X153186261Y-88666510D01*
X153155500Y-88821153D01*
X153155500Y-88978846D01*
X153186261Y-89133489D01*
X153186264Y-89133501D01*
X153246602Y-89279172D01*
X153246609Y-89279185D01*
X153281304Y-89331109D01*
X153302182Y-89397786D01*
X153283698Y-89465167D01*
X153281304Y-89468891D01*
X153246609Y-89520814D01*
X153246602Y-89520827D01*
X153186264Y-89666498D01*
X153186261Y-89666510D01*
X153155500Y-89821153D01*
X153155500Y-89978846D01*
X153186261Y-90133489D01*
X153186264Y-90133501D01*
X153246602Y-90279172D01*
X153246609Y-90279185D01*
X153334210Y-90410288D01*
X153334213Y-90410292D01*
X153445707Y-90521786D01*
X153445711Y-90521789D01*
X153576814Y-90609390D01*
X153576827Y-90609397D01*
X153722498Y-90669735D01*
X153722503Y-90669737D01*
X153870809Y-90699237D01*
X153877153Y-90700499D01*
X153877156Y-90700500D01*
X153877158Y-90700500D01*
X154034844Y-90700500D01*
X154034845Y-90700499D01*
X154189497Y-90669737D01*
X154335179Y-90609394D01*
X154387110Y-90574694D01*
X154453785Y-90553816D01*
X154521165Y-90572300D01*
X154524863Y-90574676D01*
X154576821Y-90609394D01*
X154576823Y-90609395D01*
X154576825Y-90609396D01*
X154635716Y-90633789D01*
X154722503Y-90669737D01*
X154870809Y-90699237D01*
X154877153Y-90700499D01*
X154877156Y-90700500D01*
X154877158Y-90700500D01*
X155034844Y-90700500D01*
X155034845Y-90700499D01*
X155189497Y-90669737D01*
X155335179Y-90609394D01*
X155387110Y-90574694D01*
X155453785Y-90553816D01*
X155521165Y-90572300D01*
X155524863Y-90574676D01*
X155576821Y-90609394D01*
X155576823Y-90609395D01*
X155576825Y-90609396D01*
X155635716Y-90633789D01*
X155722503Y-90669737D01*
X155870809Y-90699237D01*
X155877153Y-90700499D01*
X155877156Y-90700500D01*
X155877158Y-90700500D01*
X156034844Y-90700500D01*
X156034845Y-90700499D01*
X156189497Y-90669737D01*
X156335179Y-90609394D01*
X156387110Y-90574694D01*
X156453785Y-90553816D01*
X156521165Y-90572300D01*
X156524863Y-90574676D01*
X156576821Y-90609394D01*
X156576823Y-90609395D01*
X156576825Y-90609396D01*
X156635716Y-90633789D01*
X156722503Y-90669737D01*
X156870809Y-90699237D01*
X156877153Y-90700499D01*
X156877156Y-90700500D01*
X156877158Y-90700500D01*
X157034844Y-90700500D01*
X157034845Y-90700499D01*
X157189497Y-90669737D01*
X157335179Y-90609394D01*
X157387110Y-90574694D01*
X157453785Y-90553816D01*
X157521165Y-90572300D01*
X157524863Y-90574676D01*
X157576821Y-90609394D01*
X157576823Y-90609395D01*
X157576825Y-90609396D01*
X157635716Y-90633789D01*
X157722503Y-90669737D01*
X157870809Y-90699237D01*
X157877153Y-90700499D01*
X157877156Y-90700500D01*
X157877158Y-90700500D01*
X158034844Y-90700500D01*
X158034845Y-90700499D01*
X158189497Y-90669737D01*
X158335179Y-90609394D01*
X158466289Y-90521789D01*
X158577789Y-90410289D01*
X158665394Y-90279179D01*
X158667215Y-90274784D01*
X158702670Y-90189186D01*
X158725737Y-90133497D01*
X158756500Y-89978842D01*
X158756500Y-89821158D01*
X158756500Y-89821155D01*
X158756499Y-89821153D01*
X158747415Y-89775486D01*
X158725737Y-89666503D01*
X158671106Y-89534610D01*
X158665396Y-89520825D01*
X158665394Y-89520822D01*
X158665394Y-89520821D01*
X158630694Y-89468889D01*
X158609816Y-89402215D01*
X158628300Y-89334835D01*
X158630676Y-89331136D01*
X158665394Y-89279179D01*
X158725737Y-89133497D01*
X158756500Y-88978842D01*
X158756500Y-88821158D01*
X158756500Y-88821155D01*
X158756499Y-88821153D01*
X158745253Y-88764618D01*
X158725737Y-88666503D01*
X158676845Y-88548466D01*
X158665396Y-88520825D01*
X158665394Y-88520822D01*
X158665394Y-88520821D01*
X158630694Y-88468889D01*
X158609816Y-88402215D01*
X158628300Y-88334835D01*
X158630676Y-88331136D01*
X158665394Y-88279179D01*
X158725737Y-88133497D01*
X158756500Y-87978842D01*
X158756500Y-87821158D01*
X158756500Y-87821155D01*
X158756499Y-87821153D01*
X158725738Y-87666510D01*
X158725737Y-87666503D01*
X158691780Y-87584523D01*
X158665397Y-87520827D01*
X158665390Y-87520814D01*
X158577789Y-87389711D01*
X158577786Y-87389707D01*
X158466292Y-87278213D01*
X158466288Y-87278210D01*
X158335185Y-87190609D01*
X158335172Y-87190602D01*
X158189501Y-87130264D01*
X158189489Y-87130261D01*
X158034845Y-87099500D01*
X158034842Y-87099500D01*
X157877158Y-87099500D01*
X157877155Y-87099500D01*
X157722510Y-87130261D01*
X157722498Y-87130264D01*
X157576827Y-87190602D01*
X157576814Y-87190609D01*
X157524891Y-87225304D01*
X157458214Y-87246182D01*
X157390833Y-87227698D01*
X157387109Y-87225304D01*
X157335185Y-87190609D01*
X157335172Y-87190602D01*
X157189501Y-87130264D01*
X157189489Y-87130261D01*
X157034845Y-87099500D01*
X157034842Y-87099500D01*
X156877158Y-87099500D01*
X156877155Y-87099500D01*
X156722510Y-87130261D01*
X156722498Y-87130264D01*
X156576827Y-87190602D01*
X156576814Y-87190609D01*
X156524891Y-87225304D01*
X156458214Y-87246182D01*
X156390833Y-87227698D01*
X156387109Y-87225304D01*
X156335185Y-87190609D01*
X156335172Y-87190602D01*
X156189501Y-87130264D01*
X156189489Y-87130261D01*
X156034845Y-87099500D01*
X156034842Y-87099500D01*
X155877158Y-87099500D01*
X155877155Y-87099500D01*
X155722510Y-87130261D01*
X155722498Y-87130264D01*
X155576827Y-87190602D01*
X155576814Y-87190609D01*
X155524891Y-87225304D01*
X155458214Y-87246182D01*
X155390833Y-87227698D01*
X155387109Y-87225304D01*
X155335185Y-87190609D01*
X155335172Y-87190602D01*
X155189501Y-87130264D01*
X155189489Y-87130261D01*
X155034845Y-87099500D01*
X155034842Y-87099500D01*
X154877158Y-87099500D01*
X154877155Y-87099500D01*
X154722510Y-87130261D01*
X154722498Y-87130264D01*
X154576827Y-87190602D01*
X154576814Y-87190609D01*
X154524891Y-87225304D01*
X154458214Y-87246182D01*
X154390833Y-87227698D01*
X154387109Y-87225304D01*
X154335185Y-87190609D01*
X154335172Y-87190602D01*
X154189501Y-87130264D01*
X154189489Y-87130261D01*
X154034845Y-87099500D01*
X154034842Y-87099500D01*
X153877158Y-87099500D01*
X153877155Y-87099500D01*
X153722510Y-87130261D01*
X153722498Y-87130264D01*
X153576827Y-87190602D01*
X153576814Y-87190609D01*
X153445711Y-87278210D01*
X153445707Y-87278213D01*
X153334213Y-87389707D01*
X153334210Y-87389711D01*
X153246609Y-87520814D01*
X153246602Y-87520827D01*
X153186264Y-87666498D01*
X153186261Y-87666510D01*
X153155500Y-87821153D01*
X147781829Y-87821153D01*
X147671114Y-87740715D01*
X147664506Y-87737348D01*
X147578417Y-87693483D01*
X147527623Y-87645511D01*
X147510828Y-87577690D01*
X147533365Y-87511555D01*
X147578417Y-87472516D01*
X147671110Y-87425287D01*
X147720082Y-87389707D01*
X147836713Y-87304971D01*
X147836715Y-87304968D01*
X147836719Y-87304966D01*
X147981466Y-87160219D01*
X147981468Y-87160215D01*
X147981471Y-87160213D01*
X148034232Y-87087590D01*
X148101787Y-86994610D01*
X148194720Y-86812219D01*
X148257977Y-86617534D01*
X148290000Y-86415352D01*
X148290000Y-86210648D01*
X148257977Y-86008466D01*
X148242396Y-85960514D01*
X148200380Y-85831201D01*
X148194720Y-85813781D01*
X148194718Y-85813778D01*
X148194718Y-85813776D01*
X148133683Y-85693990D01*
X148101787Y-85631390D01*
X148094056Y-85620749D01*
X147981471Y-85465786D01*
X147836713Y-85321028D01*
X147671114Y-85200715D01*
X147664506Y-85197348D01*
X147578417Y-85153483D01*
X147569689Y-85145240D01*
X147558523Y-85140831D01*
X147544760Y-85121696D01*
X147527623Y-85105511D01*
X147524736Y-85093856D01*
X147517726Y-85084109D01*
X147516493Y-85060568D01*
X147510828Y-85037690D01*
X147514182Y-85027845D01*
X153593706Y-85027845D01*
X153722652Y-85081257D01*
X153722656Y-85081258D01*
X153877202Y-85111999D01*
X153877206Y-85112000D01*
X154034794Y-85112000D01*
X154034797Y-85111999D01*
X154189343Y-85081258D01*
X154189347Y-85081257D01*
X154318293Y-85027845D01*
X154593706Y-85027845D01*
X154722652Y-85081257D01*
X154722656Y-85081258D01*
X154877202Y-85111999D01*
X154877206Y-85112000D01*
X155034794Y-85112000D01*
X155034797Y-85111999D01*
X155189343Y-85081258D01*
X155189347Y-85081257D01*
X155318293Y-85027845D01*
X155593706Y-85027845D01*
X155722652Y-85081257D01*
X155722656Y-85081258D01*
X155877202Y-85111999D01*
X155877206Y-85112000D01*
X156034794Y-85112000D01*
X156034797Y-85111999D01*
X156189343Y-85081258D01*
X156189347Y-85081257D01*
X156318293Y-85027845D01*
X156593706Y-85027845D01*
X156722652Y-85081257D01*
X156722656Y-85081258D01*
X156877202Y-85111999D01*
X156877206Y-85112000D01*
X157034794Y-85112000D01*
X157034797Y-85111999D01*
X157189343Y-85081258D01*
X157189347Y-85081257D01*
X157318293Y-85027845D01*
X157593706Y-85027845D01*
X157722652Y-85081257D01*
X157722656Y-85081258D01*
X157877202Y-85111999D01*
X157877206Y-85112000D01*
X158034794Y-85112000D01*
X158034797Y-85111999D01*
X158189343Y-85081258D01*
X158189347Y-85081257D01*
X158318293Y-85027845D01*
X157956001Y-84665553D01*
X157956000Y-84665553D01*
X157593706Y-85027845D01*
X157318293Y-85027845D01*
X156956001Y-84665553D01*
X156956000Y-84665553D01*
X156593706Y-85027845D01*
X156318293Y-85027845D01*
X155956001Y-84665553D01*
X155956000Y-84665553D01*
X155593706Y-85027845D01*
X155318293Y-85027845D01*
X154956001Y-84665553D01*
X154956000Y-84665553D01*
X154593706Y-85027845D01*
X154318293Y-85027845D01*
X153956001Y-84665553D01*
X153956000Y-84665553D01*
X153593706Y-85027845D01*
X147514182Y-85027845D01*
X147514700Y-85026325D01*
X147514073Y-85014335D01*
X147525761Y-84993867D01*
X147533365Y-84971555D01*
X147543634Y-84962571D01*
X147548722Y-84953662D01*
X147576118Y-84934152D01*
X147577375Y-84933054D01*
X147577921Y-84932768D01*
X147671110Y-84885287D01*
X147836719Y-84764966D01*
X147981466Y-84620219D01*
X147981468Y-84620215D01*
X147981471Y-84620213D01*
X148080364Y-84484096D01*
X148101787Y-84454610D01*
X148194720Y-84272219D01*
X148207397Y-84233202D01*
X153156000Y-84233202D01*
X153156000Y-84390797D01*
X153186741Y-84545343D01*
X153186743Y-84545351D01*
X153240153Y-84674293D01*
X153602446Y-84312001D01*
X153602446Y-84311999D01*
X153572610Y-84282163D01*
X153806000Y-84282163D01*
X153806000Y-84341837D01*
X153828836Y-84396968D01*
X153871032Y-84439164D01*
X153926163Y-84462000D01*
X153985837Y-84462000D01*
X154040968Y-84439164D01*
X154083164Y-84396968D01*
X154106000Y-84341837D01*
X154106000Y-84312000D01*
X154309553Y-84312000D01*
X154456000Y-84458446D01*
X154602446Y-84312000D01*
X154572609Y-84282163D01*
X154806000Y-84282163D01*
X154806000Y-84341837D01*
X154828836Y-84396968D01*
X154871032Y-84439164D01*
X154926163Y-84462000D01*
X154985837Y-84462000D01*
X155040968Y-84439164D01*
X155083164Y-84396968D01*
X155106000Y-84341837D01*
X155106000Y-84311999D01*
X155309553Y-84311999D01*
X155456000Y-84458445D01*
X155596255Y-84318189D01*
X155560229Y-84282163D01*
X155806000Y-84282163D01*
X155806000Y-84341837D01*
X155828836Y-84396968D01*
X155871032Y-84439164D01*
X155926163Y-84462000D01*
X155985837Y-84462000D01*
X156040968Y-84439164D01*
X156083164Y-84396968D01*
X156106000Y-84341837D01*
X156106000Y-84311999D01*
X156309553Y-84311999D01*
X156456000Y-84458446D01*
X156602446Y-84312000D01*
X156572609Y-84282163D01*
X156806000Y-84282163D01*
X156806000Y-84341837D01*
X156828836Y-84396968D01*
X156871032Y-84439164D01*
X156926163Y-84462000D01*
X156985837Y-84462000D01*
X157040968Y-84439164D01*
X157083164Y-84396968D01*
X157106000Y-84341837D01*
X157106000Y-84311999D01*
X157309553Y-84311999D01*
X157456000Y-84458446D01*
X157602446Y-84312001D01*
X157602446Y-84312000D01*
X157572609Y-84282163D01*
X157806000Y-84282163D01*
X157806000Y-84341837D01*
X157828836Y-84396968D01*
X157871032Y-84439164D01*
X157926163Y-84462000D01*
X157985837Y-84462000D01*
X158040968Y-84439164D01*
X158083164Y-84396968D01*
X158106000Y-84341837D01*
X158106000Y-84311999D01*
X158309553Y-84311999D01*
X158309553Y-84312001D01*
X158671845Y-84674293D01*
X158725257Y-84545347D01*
X158725258Y-84545343D01*
X158755999Y-84390797D01*
X158756000Y-84390794D01*
X158756000Y-84233206D01*
X158755999Y-84233202D01*
X158725258Y-84078656D01*
X158725257Y-84078652D01*
X158671845Y-83949706D01*
X158309553Y-84311999D01*
X158106000Y-84311999D01*
X158106000Y-84282163D01*
X158083164Y-84227032D01*
X158040968Y-84184836D01*
X157985837Y-84162000D01*
X157926163Y-84162000D01*
X157871032Y-84184836D01*
X157828836Y-84227032D01*
X157806000Y-84282163D01*
X157572609Y-84282163D01*
X157456000Y-84165553D01*
X157388348Y-84233206D01*
X157388347Y-84233207D01*
X157309553Y-84311999D01*
X157106000Y-84311999D01*
X157106000Y-84282163D01*
X157083164Y-84227032D01*
X157040968Y-84184836D01*
X156985837Y-84162000D01*
X156926163Y-84162000D01*
X156871032Y-84184836D01*
X156828836Y-84227032D01*
X156806000Y-84282163D01*
X156572609Y-84282163D01*
X156523653Y-84233207D01*
X156456000Y-84165553D01*
X156388348Y-84233206D01*
X156388347Y-84233207D01*
X156309553Y-84311999D01*
X156106000Y-84311999D01*
X156106000Y-84282163D01*
X156083164Y-84227032D01*
X156040968Y-84184836D01*
X155985837Y-84162000D01*
X155926163Y-84162000D01*
X155871032Y-84184836D01*
X155828836Y-84227032D01*
X155806000Y-84282163D01*
X155560229Y-84282163D01*
X155449809Y-84171744D01*
X155309553Y-84311999D01*
X155106000Y-84311999D01*
X155106000Y-84282163D01*
X155083164Y-84227032D01*
X155040968Y-84184836D01*
X154985837Y-84162000D01*
X154926163Y-84162000D01*
X154871032Y-84184836D01*
X154828836Y-84227032D01*
X154806000Y-84282163D01*
X154572609Y-84282163D01*
X154455999Y-84165553D01*
X154309553Y-84312000D01*
X154106000Y-84312000D01*
X154106000Y-84282163D01*
X154083164Y-84227032D01*
X154040968Y-84184836D01*
X153985837Y-84162000D01*
X153926163Y-84162000D01*
X153871032Y-84184836D01*
X153828836Y-84227032D01*
X153806000Y-84282163D01*
X153572610Y-84282163D01*
X153240153Y-83949705D01*
X153186743Y-84078648D01*
X153186741Y-84078656D01*
X153156000Y-84233202D01*
X148207397Y-84233202D01*
X148236620Y-84143264D01*
X148257976Y-84077538D01*
X148257976Y-84077537D01*
X148257977Y-84077534D01*
X148290000Y-83875352D01*
X148290000Y-83811999D01*
X153809553Y-83811999D01*
X153956000Y-83958446D01*
X154102446Y-83812000D01*
X154072609Y-83782163D01*
X154306000Y-83782163D01*
X154306000Y-83841837D01*
X154328836Y-83896968D01*
X154371032Y-83939164D01*
X154426163Y-83962000D01*
X154485837Y-83962000D01*
X154540968Y-83939164D01*
X154583164Y-83896968D01*
X154606000Y-83841837D01*
X154606000Y-83811999D01*
X154809553Y-83811999D01*
X154948089Y-83950535D01*
X155088345Y-83810280D01*
X155058509Y-83780444D01*
X155291900Y-83780444D01*
X155291900Y-83840118D01*
X155314736Y-83895249D01*
X155356932Y-83937445D01*
X155412063Y-83960281D01*
X155471737Y-83960281D01*
X155526868Y-83937445D01*
X155569064Y-83895249D01*
X155591900Y-83840118D01*
X155591900Y-83811999D01*
X155809553Y-83811999D01*
X155956000Y-83958446D01*
X156102446Y-83812000D01*
X156072609Y-83782163D01*
X156306000Y-83782163D01*
X156306000Y-83841837D01*
X156328836Y-83896968D01*
X156371032Y-83939164D01*
X156426163Y-83962000D01*
X156485837Y-83962000D01*
X156540968Y-83939164D01*
X156583164Y-83896968D01*
X156606000Y-83841837D01*
X156606000Y-83811999D01*
X156809553Y-83811999D01*
X156956000Y-83958446D01*
X156956001Y-83958446D01*
X157102446Y-83812000D01*
X157072609Y-83782163D01*
X157306000Y-83782163D01*
X157306000Y-83841837D01*
X157328836Y-83896968D01*
X157371032Y-83939164D01*
X157426163Y-83962000D01*
X157485837Y-83962000D01*
X157540968Y-83939164D01*
X157583164Y-83896968D01*
X157606000Y-83841837D01*
X157606000Y-83811999D01*
X157809553Y-83811999D01*
X157956000Y-83958446D01*
X158102446Y-83812001D01*
X158102446Y-83811999D01*
X157955999Y-83665553D01*
X157950915Y-83670639D01*
X157950906Y-83670647D01*
X157809553Y-83811999D01*
X157606000Y-83811999D01*
X157606000Y-83782163D01*
X157583164Y-83727032D01*
X157540968Y-83684836D01*
X157485837Y-83662000D01*
X157426163Y-83662000D01*
X157371032Y-83684836D01*
X157328836Y-83727032D01*
X157306000Y-83782163D01*
X157072609Y-83782163D01*
X156997418Y-83706972D01*
X156914584Y-83706968D01*
X156809553Y-83811999D01*
X156606000Y-83811999D01*
X156606000Y-83782163D01*
X156583164Y-83727032D01*
X156540968Y-83684836D01*
X156485837Y-83662000D01*
X156426163Y-83662000D01*
X156371032Y-83684836D01*
X156328836Y-83727032D01*
X156306000Y-83782163D01*
X156072609Y-83782163D01*
X155961102Y-83670656D01*
X155961097Y-83670646D01*
X155961095Y-83670649D01*
X155955999Y-83665553D01*
X155809553Y-83811999D01*
X155591900Y-83811999D01*
X155591900Y-83780444D01*
X155569064Y-83725313D01*
X155526868Y-83683117D01*
X155471737Y-83660281D01*
X155412063Y-83660281D01*
X155356932Y-83683117D01*
X155314736Y-83725313D01*
X155291900Y-83780444D01*
X155058509Y-83780444D01*
X154949809Y-83671744D01*
X154809553Y-83811999D01*
X154606000Y-83811999D01*
X154606000Y-83782163D01*
X154583164Y-83727032D01*
X154540968Y-83684836D01*
X154485837Y-83662000D01*
X154426163Y-83662000D01*
X154371032Y-83684836D01*
X154328836Y-83727032D01*
X154306000Y-83782163D01*
X154072609Y-83782163D01*
X153961102Y-83670656D01*
X153961097Y-83670646D01*
X153961095Y-83670649D01*
X153955999Y-83665553D01*
X153809553Y-83811999D01*
X148290000Y-83811999D01*
X148290000Y-83670648D01*
X148277660Y-83592734D01*
X148257977Y-83468465D01*
X148205535Y-83307066D01*
X148194720Y-83273781D01*
X148194718Y-83273778D01*
X148194718Y-83273776D01*
X148174044Y-83233202D01*
X153156000Y-83233202D01*
X153156000Y-83390797D01*
X153186741Y-83545343D01*
X153186743Y-83545351D01*
X153240153Y-83674293D01*
X153241490Y-83672957D01*
X153602446Y-83312001D01*
X153602446Y-83311999D01*
X153572610Y-83282163D01*
X153806000Y-83282163D01*
X153806000Y-83341837D01*
X153828836Y-83396968D01*
X153871032Y-83439164D01*
X153926163Y-83462000D01*
X153985837Y-83462000D01*
X154040968Y-83439164D01*
X154083164Y-83396968D01*
X154106000Y-83341837D01*
X154106000Y-83293569D01*
X154327983Y-83293569D01*
X154347277Y-83349723D01*
X154456000Y-83458446D01*
X154602446Y-83312000D01*
X154572609Y-83282163D01*
X154806000Y-83282163D01*
X154806000Y-83341837D01*
X154828836Y-83396968D01*
X154871032Y-83439164D01*
X154926163Y-83462000D01*
X154985837Y-83462000D01*
X155040968Y-83439164D01*
X155083164Y-83396968D01*
X155106000Y-83341837D01*
X155106000Y-83311999D01*
X155309553Y-83311999D01*
X155448090Y-83450536D01*
X155591559Y-83307066D01*
X155567869Y-83282163D01*
X155806000Y-83282163D01*
X155806000Y-83341837D01*
X155828836Y-83396968D01*
X155871032Y-83439164D01*
X155926163Y-83462000D01*
X155985837Y-83462000D01*
X156040968Y-83439164D01*
X156083164Y-83396968D01*
X156106000Y-83341837D01*
X156106000Y-83293569D01*
X156327983Y-83293569D01*
X156347277Y-83349723D01*
X156456000Y-83458446D01*
X156602446Y-83312000D01*
X156572609Y-83282163D01*
X156806000Y-83282163D01*
X156806000Y-83341837D01*
X156828836Y-83396968D01*
X156871032Y-83439164D01*
X156926163Y-83462000D01*
X156985837Y-83462000D01*
X157040968Y-83439164D01*
X157083164Y-83396968D01*
X157106000Y-83341837D01*
X157106000Y-83311999D01*
X157309553Y-83311999D01*
X157456000Y-83458446D01*
X157602446Y-83312000D01*
X157572609Y-83282163D01*
X157806000Y-83282163D01*
X157806000Y-83341837D01*
X157828836Y-83396968D01*
X157871032Y-83439164D01*
X157926163Y-83462000D01*
X157985837Y-83462000D01*
X158040968Y-83439164D01*
X158083164Y-83396968D01*
X158106000Y-83341837D01*
X158106000Y-83311999D01*
X158309553Y-83311999D01*
X158309553Y-83312001D01*
X158671845Y-83674293D01*
X158725257Y-83545347D01*
X158725258Y-83545343D01*
X158755999Y-83390797D01*
X158756000Y-83390794D01*
X158756000Y-83233206D01*
X158755999Y-83233202D01*
X158725258Y-83078656D01*
X158725257Y-83078652D01*
X158671845Y-82949706D01*
X158309553Y-83311999D01*
X158106000Y-83311999D01*
X158106000Y-83282163D01*
X158083164Y-83227032D01*
X158040968Y-83184836D01*
X157985837Y-83162000D01*
X157926163Y-83162000D01*
X157871032Y-83184836D01*
X157828836Y-83227032D01*
X157806000Y-83282163D01*
X157572609Y-83282163D01*
X157476447Y-83186001D01*
X157476444Y-83185999D01*
X157455999Y-83165553D01*
X157435555Y-83185999D01*
X157435553Y-83186001D01*
X157309553Y-83311999D01*
X157106000Y-83311999D01*
X157106000Y-83282163D01*
X157083164Y-83227032D01*
X157040968Y-83184836D01*
X156985837Y-83162000D01*
X156926163Y-83162000D01*
X156871032Y-83184836D01*
X156828836Y-83227032D01*
X156806000Y-83282163D01*
X156572609Y-83282163D01*
X156476447Y-83186001D01*
X156476444Y-83185999D01*
X156455999Y-83165553D01*
X156435555Y-83185999D01*
X156435553Y-83186001D01*
X156327983Y-83293569D01*
X156106000Y-83293569D01*
X156106000Y-83282163D01*
X156083164Y-83227032D01*
X156040968Y-83184836D01*
X155985837Y-83162000D01*
X155926163Y-83162000D01*
X155871032Y-83184836D01*
X155828836Y-83227032D01*
X155806000Y-83282163D01*
X155567869Y-83282163D01*
X155475357Y-83184912D01*
X155455999Y-83165553D01*
X155435555Y-83185999D01*
X155435553Y-83186001D01*
X155309553Y-83311999D01*
X155106000Y-83311999D01*
X155106000Y-83282163D01*
X155083164Y-83227032D01*
X155040968Y-83184836D01*
X154985837Y-83162000D01*
X154926163Y-83162000D01*
X154871032Y-83184836D01*
X154828836Y-83227032D01*
X154806000Y-83282163D01*
X154572609Y-83282163D01*
X154476447Y-83186001D01*
X154476444Y-83185999D01*
X154455999Y-83165553D01*
X154435555Y-83185999D01*
X154435553Y-83186001D01*
X154327983Y-83293569D01*
X154106000Y-83293569D01*
X154106000Y-83282163D01*
X154083164Y-83227032D01*
X154040968Y-83184836D01*
X153985837Y-83162000D01*
X153926163Y-83162000D01*
X153871032Y-83184836D01*
X153828836Y-83227032D01*
X153806000Y-83282163D01*
X153572610Y-83282163D01*
X153240153Y-82949705D01*
X153186743Y-83078648D01*
X153186741Y-83078656D01*
X153156000Y-83233202D01*
X148174044Y-83233202D01*
X148139575Y-83165553D01*
X148101787Y-83091390D01*
X148086672Y-83070586D01*
X147981471Y-82925786D01*
X147867684Y-82811999D01*
X153809553Y-82811999D01*
X153956000Y-82958446D01*
X154102445Y-82812000D01*
X154102445Y-82811998D01*
X154072610Y-82782163D01*
X154306000Y-82782163D01*
X154306000Y-82841837D01*
X154328836Y-82896968D01*
X154371032Y-82939164D01*
X154426163Y-82962000D01*
X154485837Y-82962000D01*
X154540968Y-82939164D01*
X154583164Y-82896968D01*
X154606000Y-82841837D01*
X154606000Y-82811999D01*
X154809553Y-82811999D01*
X154956000Y-82958446D01*
X155102446Y-82812001D01*
X155102446Y-82812000D01*
X155072609Y-82782163D01*
X155306000Y-82782163D01*
X155306000Y-82841837D01*
X155328836Y-82896968D01*
X155371032Y-82939164D01*
X155426163Y-82962000D01*
X155485837Y-82962000D01*
X155540968Y-82939164D01*
X155583164Y-82896968D01*
X155606000Y-82841837D01*
X155606000Y-82811999D01*
X155809553Y-82811999D01*
X155956000Y-82958446D01*
X156102446Y-82812001D01*
X156102446Y-82812000D01*
X156072609Y-82782163D01*
X156306000Y-82782163D01*
X156306000Y-82841837D01*
X156328836Y-82896968D01*
X156371032Y-82939164D01*
X156426163Y-82962000D01*
X156485837Y-82962000D01*
X156540968Y-82939164D01*
X156583164Y-82896968D01*
X156606000Y-82841837D01*
X156606000Y-82811999D01*
X156809553Y-82811999D01*
X156956000Y-82958446D01*
X157102446Y-82812001D01*
X157102446Y-82812000D01*
X157072609Y-82782163D01*
X157306000Y-82782163D01*
X157306000Y-82841837D01*
X157328836Y-82896968D01*
X157371032Y-82939164D01*
X157426163Y-82962000D01*
X157485837Y-82962000D01*
X157540968Y-82939164D01*
X157583164Y-82896968D01*
X157606000Y-82841837D01*
X157606000Y-82811999D01*
X157809553Y-82811999D01*
X157956000Y-82958446D01*
X158102446Y-82812000D01*
X157956000Y-82665553D01*
X157809553Y-82811999D01*
X157606000Y-82811999D01*
X157606000Y-82782163D01*
X157583164Y-82727032D01*
X157540968Y-82684836D01*
X157485837Y-82662000D01*
X157426163Y-82662000D01*
X157371032Y-82684836D01*
X157328836Y-82727032D01*
X157306000Y-82782163D01*
X157072609Y-82782163D01*
X156956000Y-82665553D01*
X156809553Y-82811999D01*
X156606000Y-82811999D01*
X156606000Y-82782163D01*
X156583164Y-82727032D01*
X156540968Y-82684836D01*
X156485837Y-82662000D01*
X156426163Y-82662000D01*
X156371032Y-82684836D01*
X156328836Y-82727032D01*
X156306000Y-82782163D01*
X156072609Y-82782163D01*
X155956000Y-82665553D01*
X155809553Y-82811999D01*
X155606000Y-82811999D01*
X155606000Y-82782163D01*
X155583164Y-82727032D01*
X155540968Y-82684836D01*
X155485837Y-82662000D01*
X155426163Y-82662000D01*
X155371032Y-82684836D01*
X155328836Y-82727032D01*
X155306000Y-82782163D01*
X155072609Y-82782163D01*
X154956000Y-82665553D01*
X154809553Y-82811999D01*
X154606000Y-82811999D01*
X154606000Y-82782163D01*
X154583164Y-82727032D01*
X154540968Y-82684836D01*
X154485837Y-82662000D01*
X154426163Y-82662000D01*
X154371032Y-82684836D01*
X154328836Y-82727032D01*
X154306000Y-82782163D01*
X154072610Y-82782163D01*
X153956000Y-82665553D01*
X153809553Y-82811999D01*
X147867684Y-82811999D01*
X147836713Y-82781028D01*
X147671114Y-82660715D01*
X147664506Y-82657348D01*
X147578417Y-82613483D01*
X147527623Y-82565511D01*
X147510828Y-82497690D01*
X147533365Y-82431555D01*
X147578417Y-82392516D01*
X147671110Y-82345287D01*
X147716926Y-82312000D01*
X147825384Y-82233202D01*
X153156000Y-82233202D01*
X153156000Y-82390797D01*
X153186741Y-82545343D01*
X153186743Y-82545351D01*
X153240153Y-82674293D01*
X153241490Y-82672957D01*
X153602446Y-82312001D01*
X153602446Y-82311999D01*
X153572610Y-82282163D01*
X153806000Y-82282163D01*
X153806000Y-82341837D01*
X153828836Y-82396968D01*
X153871032Y-82439164D01*
X153926163Y-82462000D01*
X153985837Y-82462000D01*
X154040968Y-82439164D01*
X154083164Y-82396968D01*
X154106000Y-82341837D01*
X154106000Y-82312000D01*
X154309553Y-82312000D01*
X154455998Y-82458446D01*
X154563299Y-82351145D01*
X154583627Y-82293182D01*
X154572608Y-82282163D01*
X154806000Y-82282163D01*
X154806000Y-82341837D01*
X154828836Y-82396968D01*
X154871032Y-82439164D01*
X154926163Y-82462000D01*
X154985837Y-82462000D01*
X155040968Y-82439164D01*
X155083164Y-82396968D01*
X155106000Y-82341837D01*
X155106000Y-82293180D01*
X155328371Y-82293180D01*
X155348703Y-82351149D01*
X155456000Y-82458446D01*
X155563299Y-82351146D01*
X155583627Y-82293182D01*
X155572608Y-82282163D01*
X155806000Y-82282163D01*
X155806000Y-82341837D01*
X155828836Y-82396968D01*
X155871032Y-82439164D01*
X155926163Y-82462000D01*
X155985837Y-82462000D01*
X156040968Y-82439164D01*
X156083164Y-82396968D01*
X156106000Y-82341837D01*
X156106000Y-82293180D01*
X156328371Y-82293180D01*
X156348703Y-82351149D01*
X156456000Y-82458446D01*
X156563299Y-82351146D01*
X156583627Y-82293182D01*
X156572608Y-82282163D01*
X156806000Y-82282163D01*
X156806000Y-82341837D01*
X156828836Y-82396968D01*
X156871032Y-82439164D01*
X156926163Y-82462000D01*
X156985837Y-82462000D01*
X157040968Y-82439164D01*
X157083164Y-82396968D01*
X157106000Y-82341837D01*
X157106000Y-82293180D01*
X157328371Y-82293180D01*
X157348703Y-82351149D01*
X157456000Y-82458446D01*
X157602446Y-82312000D01*
X157572609Y-82282163D01*
X157806000Y-82282163D01*
X157806000Y-82341837D01*
X157828836Y-82396968D01*
X157871032Y-82439164D01*
X157926163Y-82462000D01*
X157985837Y-82462000D01*
X158040968Y-82439164D01*
X158083164Y-82396968D01*
X158106000Y-82341837D01*
X158106000Y-82311999D01*
X158309553Y-82311999D01*
X158309553Y-82312001D01*
X158671845Y-82674293D01*
X158725257Y-82545347D01*
X158725258Y-82545343D01*
X158755999Y-82390797D01*
X158756000Y-82390794D01*
X158756000Y-82233206D01*
X158755999Y-82233202D01*
X158725258Y-82078656D01*
X158725257Y-82078652D01*
X158671845Y-81949706D01*
X158309553Y-82311999D01*
X158106000Y-82311999D01*
X158106000Y-82282163D01*
X158083164Y-82227032D01*
X158040968Y-82184836D01*
X157985837Y-82162000D01*
X157926163Y-82162000D01*
X157871032Y-82184836D01*
X157828836Y-82227032D01*
X157806000Y-82282163D01*
X157572609Y-82282163D01*
X157456000Y-82165553D01*
X157328371Y-82293180D01*
X157106000Y-82293180D01*
X157106000Y-82282163D01*
X157083164Y-82227032D01*
X157040968Y-82184836D01*
X156985837Y-82162000D01*
X156926163Y-82162000D01*
X156871032Y-82184836D01*
X156828836Y-82227032D01*
X156806000Y-82282163D01*
X156572608Y-82282163D01*
X156456000Y-82165553D01*
X156328371Y-82293180D01*
X156106000Y-82293180D01*
X156106000Y-82282163D01*
X156083164Y-82227032D01*
X156040968Y-82184836D01*
X155985837Y-82162000D01*
X155926163Y-82162000D01*
X155871032Y-82184836D01*
X155828836Y-82227032D01*
X155806000Y-82282163D01*
X155572608Y-82282163D01*
X155456000Y-82165553D01*
X155328371Y-82293180D01*
X155106000Y-82293180D01*
X155106000Y-82282163D01*
X155083164Y-82227032D01*
X155040968Y-82184836D01*
X154985837Y-82162000D01*
X154926163Y-82162000D01*
X154871032Y-82184836D01*
X154828836Y-82227032D01*
X154806000Y-82282163D01*
X154572608Y-82282163D01*
X154456000Y-82165553D01*
X154309553Y-82312000D01*
X154106000Y-82312000D01*
X154106000Y-82282163D01*
X154083164Y-82227032D01*
X154040968Y-82184836D01*
X153985837Y-82162000D01*
X153926163Y-82162000D01*
X153871032Y-82184836D01*
X153828836Y-82227032D01*
X153806000Y-82282163D01*
X153572610Y-82282163D01*
X153240153Y-81949705D01*
X153186743Y-82078648D01*
X153186741Y-82078656D01*
X153156000Y-82233202D01*
X147825384Y-82233202D01*
X147836713Y-82224971D01*
X147836715Y-82224968D01*
X147836719Y-82224966D01*
X147981466Y-82080219D01*
X147981468Y-82080215D01*
X147981471Y-82080213D01*
X148034232Y-82007590D01*
X148101787Y-81914610D01*
X148194720Y-81732219D01*
X148238931Y-81596153D01*
X153593705Y-81596153D01*
X153956000Y-81958446D01*
X153956001Y-81958446D01*
X154318293Y-81596153D01*
X154593705Y-81596153D01*
X154956000Y-81958446D01*
X154956001Y-81958446D01*
X155318293Y-81596153D01*
X155593705Y-81596153D01*
X155956000Y-81958446D01*
X155956001Y-81958446D01*
X156318293Y-81596153D01*
X156593705Y-81596153D01*
X156956000Y-81958446D01*
X156956001Y-81958446D01*
X157318293Y-81596153D01*
X157593705Y-81596153D01*
X157956000Y-81958446D01*
X157956001Y-81958446D01*
X158318293Y-81596153D01*
X158189351Y-81542743D01*
X158189343Y-81542741D01*
X158034797Y-81512000D01*
X157877202Y-81512000D01*
X157722656Y-81542741D01*
X157722648Y-81542743D01*
X157593705Y-81596153D01*
X157318293Y-81596153D01*
X157189351Y-81542743D01*
X157189343Y-81542741D01*
X157034797Y-81512000D01*
X156877202Y-81512000D01*
X156722656Y-81542741D01*
X156722648Y-81542743D01*
X156593705Y-81596153D01*
X156318293Y-81596153D01*
X156189351Y-81542743D01*
X156189343Y-81542741D01*
X156034797Y-81512000D01*
X155877202Y-81512000D01*
X155722656Y-81542741D01*
X155722648Y-81542743D01*
X155593705Y-81596153D01*
X155318293Y-81596153D01*
X155189351Y-81542743D01*
X155189343Y-81542741D01*
X155034797Y-81512000D01*
X154877202Y-81512000D01*
X154722656Y-81542741D01*
X154722648Y-81542743D01*
X154593705Y-81596153D01*
X154318293Y-81596153D01*
X154189351Y-81542743D01*
X154189343Y-81542741D01*
X154034797Y-81512000D01*
X153877202Y-81512000D01*
X153722656Y-81542741D01*
X153722648Y-81542743D01*
X153593705Y-81596153D01*
X148238931Y-81596153D01*
X148257976Y-81537538D01*
X148257976Y-81537537D01*
X148257977Y-81537534D01*
X148290000Y-81335352D01*
X148290000Y-81130648D01*
X148257977Y-80928466D01*
X148194720Y-80733781D01*
X148194718Y-80733778D01*
X148194718Y-80733776D01*
X148142751Y-80631786D01*
X148101787Y-80551390D01*
X148079190Y-80520288D01*
X147981471Y-80385786D01*
X147836713Y-80241028D01*
X147671114Y-80120715D01*
X147662910Y-80116535D01*
X147585203Y-80076941D01*
X147534408Y-80028968D01*
X147517613Y-79961147D01*
X147540150Y-79895012D01*
X147583046Y-79857099D01*
X147649003Y-79821843D01*
X147649015Y-79821837D01*
X147718413Y-79775465D01*
X147118910Y-79175962D01*
X147182493Y-79158925D01*
X147296507Y-79093099D01*
X147389599Y-79000007D01*
X147455425Y-78885993D01*
X147472462Y-78822410D01*
X148071965Y-79421913D01*
X148118337Y-79352515D01*
X148118338Y-79352511D01*
X148165009Y-79265198D01*
X148225314Y-79119612D01*
X148254055Y-79024864D01*
X148284798Y-78870302D01*
X148284798Y-78870299D01*
X148294500Y-78771789D01*
X148294500Y-78614210D01*
X148284798Y-78515700D01*
X148284798Y-78515697D01*
X148254055Y-78361135D01*
X148225314Y-78266387D01*
X148165009Y-78120801D01*
X148118344Y-78033498D01*
X148118338Y-78033488D01*
X148071965Y-77964085D01*
X147472462Y-78563588D01*
X147455425Y-78500007D01*
X147389599Y-78385993D01*
X147296507Y-78292901D01*
X147182493Y-78227075D01*
X147118910Y-78210037D01*
X147718412Y-77610534D01*
X147649011Y-77564161D01*
X147649000Y-77564155D01*
X147583045Y-77528900D01*
X147533201Y-77479937D01*
X147517741Y-77411799D01*
X147541573Y-77346119D01*
X147585202Y-77309059D01*
X147671110Y-77265287D01*
X147762245Y-77199074D01*
X147836713Y-77144971D01*
X147836715Y-77144968D01*
X147836719Y-77144966D01*
X147981466Y-77000219D01*
X147981468Y-77000215D01*
X147981471Y-77000213D01*
X148079334Y-76865514D01*
X148101787Y-76834610D01*
X148194720Y-76652219D01*
X148257977Y-76457534D01*
X148290000Y-76255352D01*
X148290000Y-76050648D01*
X148265940Y-75898743D01*
X148257977Y-75848465D01*
X148211781Y-75706289D01*
X148194720Y-75653781D01*
X148194718Y-75653778D01*
X148194718Y-75653776D01*
X148114434Y-75496212D01*
X148101787Y-75471390D01*
X148094056Y-75460749D01*
X147981471Y-75305786D01*
X147836713Y-75161028D01*
X147671114Y-75040715D01*
X147664506Y-75037348D01*
X147578417Y-74993483D01*
X147527623Y-74945511D01*
X147510828Y-74877690D01*
X147533365Y-74811555D01*
X147578417Y-74772516D01*
X147671110Y-74725287D01*
X147777233Y-74648185D01*
X147836713Y-74604971D01*
X147836715Y-74604968D01*
X147836719Y-74604966D01*
X147886974Y-74554711D01*
X154613500Y-74554711D01*
X154613500Y-74797288D01*
X154633013Y-74945511D01*
X154645162Y-75037789D01*
X154645946Y-75040715D01*
X154707947Y-75272104D01*
X154721897Y-75305781D01*
X154800776Y-75496212D01*
X154922064Y-75706289D01*
X154922066Y-75706292D01*
X154922067Y-75706293D01*
X155069733Y-75898736D01*
X155069739Y-75898743D01*
X155241256Y-76070260D01*
X155241262Y-76070265D01*
X155433711Y-76217936D01*
X155643788Y-76339224D01*
X155867900Y-76432054D01*
X156102211Y-76494838D01*
X156282586Y-76518584D01*
X156342711Y-76526500D01*
X156342712Y-76526500D01*
X156585289Y-76526500D01*
X156633388Y-76520167D01*
X156825789Y-76494838D01*
X157060100Y-76432054D01*
X157284212Y-76339224D01*
X157494289Y-76217936D01*
X157686738Y-76070265D01*
X157858265Y-75898738D01*
X158005936Y-75706289D01*
X158127224Y-75496212D01*
X158220054Y-75272100D01*
X158282838Y-75037789D01*
X158314500Y-74797288D01*
X158314500Y-74554712D01*
X158282838Y-74314211D01*
X158220054Y-74079900D01*
X158127224Y-73855788D01*
X158005936Y-73645711D01*
X157858265Y-73453262D01*
X157858260Y-73453256D01*
X157686743Y-73281739D01*
X157686736Y-73281733D01*
X157494293Y-73134067D01*
X157494292Y-73134066D01*
X157494289Y-73134064D01*
X157284212Y-73012776D01*
X157284205Y-73012773D01*
X157060104Y-72919947D01*
X156825785Y-72857161D01*
X156585289Y-72825500D01*
X156585288Y-72825500D01*
X156342712Y-72825500D01*
X156342711Y-72825500D01*
X156102214Y-72857161D01*
X155867895Y-72919947D01*
X155643794Y-73012773D01*
X155643785Y-73012777D01*
X155433706Y-73134067D01*
X155241263Y-73281733D01*
X155241256Y-73281739D01*
X155069739Y-73453256D01*
X155069733Y-73453263D01*
X154922067Y-73645706D01*
X154800777Y-73855785D01*
X154800773Y-73855794D01*
X154707947Y-74079895D01*
X154645161Y-74314214D01*
X154613500Y-74554711D01*
X147886974Y-74554711D01*
X147981466Y-74460219D01*
X147981468Y-74460215D01*
X147981471Y-74460213D01*
X148068670Y-74340192D01*
X148101787Y-74294610D01*
X148194720Y-74112219D01*
X148257977Y-73917534D01*
X148290000Y-73715352D01*
X148290000Y-73510648D01*
X148257977Y-73308466D01*
X148194720Y-73113781D01*
X148194718Y-73113778D01*
X148194718Y-73113776D01*
X148143255Y-73012776D01*
X148101787Y-72931390D01*
X148093473Y-72919946D01*
X147981471Y-72765786D01*
X147836713Y-72621028D01*
X147671113Y-72500715D01*
X147671112Y-72500714D01*
X147671110Y-72500713D01*
X147586355Y-72457528D01*
X147488723Y-72407781D01*
X147294034Y-72344522D01*
X147119495Y-72316878D01*
X147091852Y-72312500D01*
X146887148Y-72312500D01*
X146862829Y-72316351D01*
X146684965Y-72344522D01*
X146490276Y-72407781D01*
X146307886Y-72500715D01*
X146142286Y-72621028D01*
X145997528Y-72765786D01*
X145877215Y-72931386D01*
X145784281Y-73113776D01*
X145721022Y-73308465D01*
X145689000Y-73510648D01*
X145689000Y-73715351D01*
X145721022Y-73917534D01*
X145784281Y-74112223D01*
X145848191Y-74237653D01*
X145864476Y-74269613D01*
X145877215Y-74294613D01*
X145997528Y-74460213D01*
X146142286Y-74604971D01*
X146297249Y-74717556D01*
X146307890Y-74725287D01*
X146392639Y-74768469D01*
X146400580Y-74772515D01*
X146451376Y-74820490D01*
X146468171Y-74888311D01*
X146445634Y-74954446D01*
X146400580Y-74993485D01*
X146307886Y-75040715D01*
X146142286Y-75161028D01*
X145997528Y-75305786D01*
X145877215Y-75471386D01*
X145784281Y-75653776D01*
X145721022Y-75848465D01*
X145689000Y-76050648D01*
X145689000Y-76255351D01*
X145721022Y-76457534D01*
X145784281Y-76652223D01*
X145877215Y-76834613D01*
X145997528Y-77000213D01*
X146142282Y-77144967D01*
X146142287Y-77144971D01*
X146219083Y-77200767D01*
X146261749Y-77256097D01*
X146267728Y-77325710D01*
X146235122Y-77387505D01*
X146176865Y-77421233D01*
X146156473Y-77426437D01*
X146156462Y-77426441D01*
X146099915Y-77449863D01*
X146860089Y-78210037D01*
X146796507Y-78227075D01*
X146682493Y-78292901D01*
X146589401Y-78385993D01*
X146523575Y-78500007D01*
X146506537Y-78563589D01*
X145746363Y-77803415D01*
X145746362Y-77803415D01*
X145722946Y-77859947D01*
X145722931Y-77859987D01*
X145704957Y-77910939D01*
X145704955Y-77910946D01*
X145684500Y-78053219D01*
X145684500Y-79332785D01*
X145687393Y-79386762D01*
X145687393Y-79386764D01*
X145722938Y-79526030D01*
X145722942Y-79526043D01*
X145746362Y-79582584D01*
X146506537Y-78822410D01*
X146523575Y-78885993D01*
X146589401Y-79000007D01*
X146682493Y-79093099D01*
X146796507Y-79158925D01*
X146860089Y-79175962D01*
X146099914Y-79936135D01*
X146156460Y-79959557D01*
X146156486Y-79959567D01*
X146185121Y-79969669D01*
X146241794Y-80010534D01*
X146267376Y-80075552D01*
X146253746Y-80144080D01*
X146216756Y-80186924D01*
X146142282Y-80241032D01*
X145997528Y-80385786D01*
X145877215Y-80551386D01*
X145784281Y-80733776D01*
X145721022Y-80928465D01*
X145689000Y-81130648D01*
X145689000Y-81335351D01*
X145721022Y-81537534D01*
X145784281Y-81732223D01*
X145877215Y-81914613D01*
X145997528Y-82080213D01*
X146142286Y-82224971D01*
X146262074Y-82312000D01*
X146307890Y-82345287D01*
X146397202Y-82390794D01*
X146400580Y-82392515D01*
X146451376Y-82440490D01*
X146468171Y-82508311D01*
X146445634Y-82574446D01*
X146400580Y-82613485D01*
X146307886Y-82660715D01*
X146142286Y-82781028D01*
X145997528Y-82925786D01*
X145877215Y-83091386D01*
X145784281Y-83273776D01*
X145721022Y-83468465D01*
X145689000Y-83670647D01*
X145689000Y-83875351D01*
X145721022Y-84077534D01*
X145784281Y-84272223D01*
X145877215Y-84454613D01*
X145997528Y-84620213D01*
X146142286Y-84764971D01*
X146284096Y-84868000D01*
X146307890Y-84885287D01*
X146399340Y-84931883D01*
X146400580Y-84932515D01*
X146451376Y-84980490D01*
X146468171Y-85048311D01*
X146445634Y-85114446D01*
X146400580Y-85153485D01*
X146307886Y-85200715D01*
X146142286Y-85321028D01*
X145997528Y-85465786D01*
X145877215Y-85631386D01*
X145784281Y-85813776D01*
X145721022Y-86008465D01*
X145689000Y-86210648D01*
X145689000Y-86415351D01*
X145721022Y-86617534D01*
X145784281Y-86812223D01*
X145846731Y-86934785D01*
X145863814Y-86968314D01*
X145877215Y-86994613D01*
X145997528Y-87160213D01*
X146142286Y-87304971D01*
X146258923Y-87389711D01*
X146307890Y-87425287D01*
X146399340Y-87471883D01*
X146400580Y-87472515D01*
X146451376Y-87520490D01*
X146468171Y-87588311D01*
X146445634Y-87654446D01*
X146400580Y-87693485D01*
X146307886Y-87740715D01*
X146142286Y-87861028D01*
X145997528Y-88005786D01*
X145877215Y-88171386D01*
X145784281Y-88353776D01*
X145721022Y-88548465D01*
X145702328Y-88666498D01*
X145689000Y-88750648D01*
X145689000Y-88955352D01*
X145691539Y-88971381D01*
X145721022Y-89157534D01*
X145784281Y-89352223D01*
X145841830Y-89465167D01*
X145870190Y-89520827D01*
X145877215Y-89534613D01*
X145997528Y-89700213D01*
X146142282Y-89844967D01*
X146142287Y-89844971D01*
X146218563Y-89900389D01*
X146261229Y-89955719D01*
X146267208Y-90025332D01*
X146234602Y-90087127D01*
X146176345Y-90120855D01*
X146156276Y-90125977D01*
X146156266Y-90125980D01*
X146082780Y-90156419D01*
X146082752Y-90156431D01*
X146033951Y-90179779D01*
X146033946Y-90179782D01*
X145918768Y-90266005D01*
X145918756Y-90266015D01*
X145862519Y-90322252D01*
X145826343Y-90362524D01*
X145826337Y-90362532D01*
X145752926Y-90486263D01*
X145722478Y-90559774D01*
X145722470Y-90559795D01*
X145704476Y-90610800D01*
X145684000Y-90753219D01*
X130514500Y-90753219D01*
X130514499Y-90753204D01*
X130511606Y-90699237D01*
X130511606Y-90699235D01*
X130476061Y-90559969D01*
X130476059Y-90559962D01*
X130452635Y-90503414D01*
X129692462Y-91263588D01*
X129675425Y-91200007D01*
X129609599Y-91085993D01*
X129516507Y-90992901D01*
X129402493Y-90927075D01*
X129338909Y-90910037D01*
X130099084Y-90149862D01*
X130042559Y-90126449D01*
X130042548Y-90126445D01*
X130013874Y-90116329D01*
X129957203Y-90075462D01*
X129931622Y-90010443D01*
X129945254Y-89941916D01*
X129982245Y-89899074D01*
X130056715Y-89844969D01*
X130056715Y-89844968D01*
X130056719Y-89844966D01*
X130201466Y-89700219D01*
X130201468Y-89700215D01*
X130201471Y-89700213D01*
X130279556Y-89592736D01*
X130321787Y-89534610D01*
X130414720Y-89352219D01*
X130477977Y-89157534D01*
X130510000Y-88955352D01*
X130510000Y-88750648D01*
X130477977Y-88548466D01*
X130468992Y-88520814D01*
X130414718Y-88353776D01*
X130376705Y-88279172D01*
X130321787Y-88171390D01*
X130301353Y-88143265D01*
X130201471Y-88005786D01*
X130056713Y-87861028D01*
X129891114Y-87740715D01*
X129884506Y-87737348D01*
X129798417Y-87693483D01*
X129747623Y-87645511D01*
X129730828Y-87577690D01*
X129753365Y-87511555D01*
X129798417Y-87472516D01*
X129891110Y-87425287D01*
X129940082Y-87389707D01*
X130056713Y-87304971D01*
X130056715Y-87304968D01*
X130056719Y-87304966D01*
X130201466Y-87160219D01*
X130201468Y-87160215D01*
X130201471Y-87160213D01*
X130254232Y-87087590D01*
X130321787Y-86994610D01*
X130414720Y-86812219D01*
X130477977Y-86617534D01*
X130510000Y-86415352D01*
X130510000Y-86210648D01*
X130477977Y-86008466D01*
X130462396Y-85960514D01*
X130420380Y-85831201D01*
X130414720Y-85813781D01*
X130414718Y-85813778D01*
X130414718Y-85813776D01*
X130353683Y-85693990D01*
X130321787Y-85631390D01*
X130314056Y-85620749D01*
X130201471Y-85465786D01*
X130056713Y-85321028D01*
X129891114Y-85200715D01*
X129884506Y-85197348D01*
X129798417Y-85153483D01*
X129747623Y-85105511D01*
X129730828Y-85037690D01*
X129753365Y-84971555D01*
X129798417Y-84932516D01*
X129891110Y-84885287D01*
X129948789Y-84843381D01*
X130056713Y-84764971D01*
X130056715Y-84764968D01*
X130056719Y-84764966D01*
X130201466Y-84620219D01*
X130201468Y-84620215D01*
X130201471Y-84620213D01*
X130300364Y-84484096D01*
X130321787Y-84454610D01*
X130414720Y-84272219D01*
X130477977Y-84077534D01*
X130510000Y-83875352D01*
X130510000Y-83670648D01*
X130497660Y-83592734D01*
X130477977Y-83468465D01*
X130425535Y-83307066D01*
X130414720Y-83273781D01*
X130414718Y-83273778D01*
X130414718Y-83273776D01*
X130359575Y-83165553D01*
X130321787Y-83091390D01*
X130306672Y-83070586D01*
X130201471Y-82925786D01*
X130056713Y-82781028D01*
X129891114Y-82660715D01*
X129884506Y-82657348D01*
X129798417Y-82613483D01*
X129747623Y-82565511D01*
X129730828Y-82497690D01*
X129753365Y-82431555D01*
X129798417Y-82392516D01*
X129891110Y-82345287D01*
X129936926Y-82312000D01*
X130056713Y-82224971D01*
X130056715Y-82224968D01*
X130056719Y-82224966D01*
X130201466Y-82080219D01*
X130201468Y-82080215D01*
X130201471Y-82080213D01*
X130254232Y-82007590D01*
X130321787Y-81914610D01*
X130414720Y-81732219D01*
X130477977Y-81537534D01*
X130510000Y-81335352D01*
X130510000Y-81130648D01*
X130477977Y-80928466D01*
X130414720Y-80733781D01*
X130414718Y-80733778D01*
X130414718Y-80733776D01*
X130362751Y-80631786D01*
X130321787Y-80551390D01*
X130299190Y-80520288D01*
X130201471Y-80385786D01*
X130056717Y-80241032D01*
X129979915Y-80185232D01*
X129937250Y-80129902D01*
X129931271Y-80060288D01*
X129963877Y-79998494D01*
X130022140Y-79964765D01*
X130042539Y-79959559D01*
X130099084Y-79936136D01*
X130099084Y-79936135D01*
X129338910Y-79175962D01*
X129402493Y-79158925D01*
X129516507Y-79093099D01*
X129609599Y-79000007D01*
X129675425Y-78885993D01*
X129692462Y-78822411D01*
X130452635Y-79582584D01*
X130452636Y-79582584D01*
X130476052Y-79526053D01*
X130494044Y-79475053D01*
X130514499Y-79332780D01*
X130514500Y-79332779D01*
X130514500Y-78053214D01*
X130511606Y-77999237D01*
X130511606Y-77999235D01*
X130476061Y-77859969D01*
X130476059Y-77859962D01*
X130452635Y-77803414D01*
X129692462Y-78563588D01*
X129675425Y-78500007D01*
X129609599Y-78385993D01*
X129516507Y-78292901D01*
X129402493Y-78227075D01*
X129338910Y-78210037D01*
X130099084Y-77449862D01*
X130042559Y-77426449D01*
X130042548Y-77426445D01*
X130013874Y-77416329D01*
X129957203Y-77375462D01*
X129931622Y-77310443D01*
X129945254Y-77241916D01*
X129982245Y-77199074D01*
X130056715Y-77144969D01*
X130056715Y-77144968D01*
X130056719Y-77144966D01*
X130201466Y-77000219D01*
X130201468Y-77000215D01*
X130201471Y-77000213D01*
X130299334Y-76865514D01*
X130321787Y-76834610D01*
X130400317Y-76680486D01*
X134499000Y-76680486D01*
X134499000Y-76865513D01*
X134527945Y-77048265D01*
X134585119Y-77224232D01*
X134585120Y-77224235D01*
X134628340Y-77309057D01*
X134669122Y-77389096D01*
X134777879Y-77538787D01*
X134908713Y-77669621D01*
X135058404Y-77778378D01*
X135107540Y-77803414D01*
X135223264Y-77862379D01*
X135223267Y-77862380D01*
X135311250Y-77890967D01*
X135399236Y-77919555D01*
X135581986Y-77948500D01*
X135581987Y-77948500D01*
X135767013Y-77948500D01*
X135767014Y-77948500D01*
X135949764Y-77919555D01*
X136125735Y-77862379D01*
X136290596Y-77778378D01*
X136440287Y-77669621D01*
X136571121Y-77538787D01*
X136679878Y-77389096D01*
X136763879Y-77224235D01*
X136821055Y-77048264D01*
X136850000Y-76865514D01*
X136850000Y-76680486D01*
X139349000Y-76680486D01*
X139349000Y-76865513D01*
X139377945Y-77048265D01*
X139435119Y-77224232D01*
X139435120Y-77224235D01*
X139478340Y-77309057D01*
X139519122Y-77389096D01*
X139627879Y-77538787D01*
X139758713Y-77669621D01*
X139908404Y-77778378D01*
X139957540Y-77803414D01*
X140073264Y-77862379D01*
X140073267Y-77862380D01*
X140161250Y-77890967D01*
X140249236Y-77919555D01*
X140431986Y-77948500D01*
X140431987Y-77948500D01*
X140617013Y-77948500D01*
X140617014Y-77948500D01*
X140690160Y-77936914D01*
X140757078Y-77926316D01*
X140763347Y-77925322D01*
X140799764Y-77919555D01*
X140975735Y-77862379D01*
X141140596Y-77778378D01*
X141290287Y-77669621D01*
X141421121Y-77538787D01*
X141529878Y-77389096D01*
X141613879Y-77224235D01*
X141671055Y-77048264D01*
X141700000Y-76865514D01*
X141700000Y-76680486D01*
X141671055Y-76497736D01*
X141642467Y-76409750D01*
X141613880Y-76321767D01*
X141613879Y-76321764D01*
X141529877Y-76156903D01*
X141421121Y-76007213D01*
X141290287Y-75876379D01*
X141140596Y-75767622D01*
X140975735Y-75683620D01*
X140975732Y-75683619D01*
X140799765Y-75626445D01*
X140708389Y-75611972D01*
X140617014Y-75597500D01*
X140431986Y-75597500D01*
X140371069Y-75607148D01*
X140249234Y-75626445D01*
X140073267Y-75683619D01*
X140073264Y-75683620D01*
X139908403Y-75767622D01*
X139822999Y-75829672D01*
X139758713Y-75876379D01*
X139758711Y-75876381D01*
X139758710Y-75876381D01*
X139627881Y-76007210D01*
X139627881Y-76007211D01*
X139627879Y-76007213D01*
X139596322Y-76050648D01*
X139519122Y-76156903D01*
X139435120Y-76321764D01*
X139435119Y-76321767D01*
X139377945Y-76497734D01*
X139349000Y-76680486D01*
X136850000Y-76680486D01*
X136821055Y-76497736D01*
X136792467Y-76409750D01*
X136763880Y-76321767D01*
X136763879Y-76321764D01*
X136679877Y-76156903D01*
X136571121Y-76007213D01*
X136440287Y-75876379D01*
X136290596Y-75767622D01*
X136125735Y-75683620D01*
X136125732Y-75683619D01*
X135949765Y-75626445D01*
X135858389Y-75611972D01*
X135767014Y-75597500D01*
X135581986Y-75597500D01*
X135521069Y-75607148D01*
X135399234Y-75626445D01*
X135223267Y-75683619D01*
X135223264Y-75683620D01*
X135058403Y-75767622D01*
X134972999Y-75829672D01*
X134908713Y-75876379D01*
X134908711Y-75876381D01*
X134908710Y-75876381D01*
X134777881Y-76007210D01*
X134777881Y-76007211D01*
X134777879Y-76007213D01*
X134746322Y-76050648D01*
X134669122Y-76156903D01*
X134585120Y-76321764D01*
X134585119Y-76321767D01*
X134527945Y-76497734D01*
X134499000Y-76680486D01*
X130400317Y-76680486D01*
X130414720Y-76652219D01*
X130464915Y-76497736D01*
X130477976Y-76457538D01*
X130477976Y-76457537D01*
X130477977Y-76457534D01*
X130510000Y-76255352D01*
X130510000Y-76050648D01*
X130485940Y-75898743D01*
X130477977Y-75848465D01*
X130431781Y-75706289D01*
X130414720Y-75653781D01*
X130414718Y-75653778D01*
X130414718Y-75653776D01*
X130334434Y-75496212D01*
X130321787Y-75471390D01*
X130314056Y-75460749D01*
X130201471Y-75305786D01*
X130056717Y-75161032D01*
X130056712Y-75161028D01*
X129975940Y-75102344D01*
X129933274Y-75047015D01*
X129927295Y-74977401D01*
X129959900Y-74915606D01*
X130011933Y-74883641D01*
X130099106Y-74856478D01*
X130244685Y-74768472D01*
X130364972Y-74648185D01*
X130452978Y-74502606D01*
X130503586Y-74340196D01*
X130510000Y-74269616D01*
X130510000Y-73636713D01*
X134024000Y-73636713D01*
X134024000Y-73849287D01*
X134057254Y-74059243D01*
X134074468Y-74112223D01*
X134122944Y-74261414D01*
X134219451Y-74450820D01*
X134344390Y-74622786D01*
X134494713Y-74773109D01*
X134666679Y-74898048D01*
X134666681Y-74898049D01*
X134666684Y-74898051D01*
X134856088Y-74994557D01*
X135058257Y-75060246D01*
X135268213Y-75093500D01*
X135268214Y-75093500D01*
X135480786Y-75093500D01*
X135480787Y-75093500D01*
X135690743Y-75060246D01*
X135892912Y-74994557D01*
X136082316Y-74898051D01*
X136139538Y-74856477D01*
X136254286Y-74773109D01*
X136254288Y-74773106D01*
X136254292Y-74773104D01*
X136404604Y-74622792D01*
X136404606Y-74622788D01*
X136404609Y-74622786D01*
X136529548Y-74450820D01*
X136529547Y-74450820D01*
X136529551Y-74450816D01*
X136626057Y-74261412D01*
X136691746Y-74059243D01*
X136725000Y-73849287D01*
X136725000Y-73636713D01*
X139474000Y-73636713D01*
X139474000Y-73849287D01*
X139507254Y-74059243D01*
X139524468Y-74112223D01*
X139572944Y-74261414D01*
X139669451Y-74450820D01*
X139794390Y-74622786D01*
X139944713Y-74773109D01*
X140116679Y-74898048D01*
X140116681Y-74898049D01*
X140116684Y-74898051D01*
X140306088Y-74994557D01*
X140508257Y-75060246D01*
X140718213Y-75093500D01*
X140718214Y-75093500D01*
X140930786Y-75093500D01*
X140930787Y-75093500D01*
X141140743Y-75060246D01*
X141342912Y-74994557D01*
X141532316Y-74898051D01*
X141589538Y-74856477D01*
X141704286Y-74773109D01*
X141704288Y-74773106D01*
X141704292Y-74773104D01*
X141854604Y-74622792D01*
X141854606Y-74622788D01*
X141854609Y-74622786D01*
X141979548Y-74450820D01*
X141979547Y-74450820D01*
X141979551Y-74450816D01*
X142076057Y-74261412D01*
X142141746Y-74059243D01*
X142175000Y-73849287D01*
X142175000Y-73636713D01*
X142141746Y-73426757D01*
X142076057Y-73224588D01*
X141979551Y-73035184D01*
X141979549Y-73035181D01*
X141979548Y-73035179D01*
X141854609Y-72863213D01*
X141704286Y-72712890D01*
X141532320Y-72587951D01*
X141342914Y-72491444D01*
X141342913Y-72491443D01*
X141342912Y-72491443D01*
X141140743Y-72425754D01*
X141140741Y-72425753D01*
X141140740Y-72425753D01*
X140979457Y-72400208D01*
X140930787Y-72392500D01*
X140718213Y-72392500D01*
X140669542Y-72400208D01*
X140508260Y-72425753D01*
X140306085Y-72491444D01*
X140116679Y-72587951D01*
X139944713Y-72712890D01*
X139794390Y-72863213D01*
X139669451Y-73035179D01*
X139572944Y-73224585D01*
X139507253Y-73426760D01*
X139493967Y-73510648D01*
X139474000Y-73636713D01*
X136725000Y-73636713D01*
X136691746Y-73426757D01*
X136626057Y-73224588D01*
X136529551Y-73035184D01*
X136529549Y-73035181D01*
X136529548Y-73035179D01*
X136404609Y-72863213D01*
X136254286Y-72712890D01*
X136082320Y-72587951D01*
X135892914Y-72491444D01*
X135892913Y-72491443D01*
X135892912Y-72491443D01*
X135690743Y-72425754D01*
X135690741Y-72425753D01*
X135690740Y-72425753D01*
X135529457Y-72400208D01*
X135480787Y-72392500D01*
X135268213Y-72392500D01*
X135219542Y-72400208D01*
X135058260Y-72425753D01*
X134856085Y-72491444D01*
X134666679Y-72587951D01*
X134494713Y-72712890D01*
X134344390Y-72863213D01*
X134219451Y-73035179D01*
X134122944Y-73224585D01*
X134057253Y-73426760D01*
X134043967Y-73510648D01*
X134024000Y-73636713D01*
X130510000Y-73636713D01*
X130510000Y-72956384D01*
X130503586Y-72885804D01*
X130452978Y-72723394D01*
X130364972Y-72577815D01*
X130364970Y-72577813D01*
X130364969Y-72577811D01*
X130244688Y-72457530D01*
X130192124Y-72425754D01*
X130099106Y-72369522D01*
X129936696Y-72318914D01*
X129936694Y-72318913D01*
X129936692Y-72318913D01*
X129887278Y-72314423D01*
X129866116Y-72312500D01*
X128552884Y-72312500D01*
X128533645Y-72314248D01*
X128482307Y-72318913D01*
X128319893Y-72369522D01*
X128174311Y-72457530D01*
X128054030Y-72577811D01*
X127966022Y-72723393D01*
X127915413Y-72885807D01*
X127909000Y-72956386D01*
X127909000Y-74269613D01*
X127915413Y-74340192D01*
X127966022Y-74502606D01*
X128054030Y-74648188D01*
X128174311Y-74768469D01*
X128174313Y-74768470D01*
X128174315Y-74768472D01*
X128319894Y-74856478D01*
X128407066Y-74883641D01*
X128465212Y-74922378D01*
X128493186Y-74986403D01*
X128482105Y-75055388D01*
X128443060Y-75102344D01*
X128362282Y-75161032D01*
X128217528Y-75305786D01*
X128097215Y-75471386D01*
X128004281Y-75653776D01*
X127941022Y-75848465D01*
X127909000Y-76050648D01*
X127909000Y-76255351D01*
X127941022Y-76457534D01*
X128004281Y-76652223D01*
X128097215Y-76834613D01*
X128217528Y-77000213D01*
X128362286Y-77144971D01*
X128527888Y-77265286D01*
X128527890Y-77265287D01*
X128613794Y-77309057D01*
X128664590Y-77357031D01*
X128681386Y-77424852D01*
X128658849Y-77490987D01*
X128615955Y-77528899D01*
X128549997Y-77564155D01*
X128480586Y-77610534D01*
X128480585Y-77610534D01*
X129080089Y-78210037D01*
X129016507Y-78227075D01*
X128902493Y-78292901D01*
X128809401Y-78385993D01*
X128743575Y-78500007D01*
X128726537Y-78563588D01*
X128127034Y-77964085D01*
X128127034Y-77964086D01*
X128080658Y-78033493D01*
X128033990Y-78120801D01*
X127973685Y-78266387D01*
X127944944Y-78361135D01*
X127914201Y-78515697D01*
X127914201Y-78515700D01*
X127904500Y-78614210D01*
X127904500Y-78771789D01*
X127914201Y-78870299D01*
X127914201Y-78870302D01*
X127944944Y-79024864D01*
X127973685Y-79119612D01*
X128033990Y-79265198D01*
X128080655Y-79352501D01*
X128080661Y-79352511D01*
X128127034Y-79421912D01*
X128726537Y-78822410D01*
X128743575Y-78885993D01*
X128809401Y-79000007D01*
X128902493Y-79093099D01*
X129016507Y-79158925D01*
X129080089Y-79175962D01*
X128480585Y-79775465D01*
X128549988Y-79821838D01*
X128549998Y-79821844D01*
X128615954Y-79857099D01*
X128665798Y-79906062D01*
X128681258Y-79974200D01*
X128657426Y-80039879D01*
X128613795Y-80076942D01*
X128527886Y-80120715D01*
X128362286Y-80241028D01*
X128217528Y-80385786D01*
X128097215Y-80551386D01*
X128004281Y-80733776D01*
X127941022Y-80928465D01*
X127909000Y-81130648D01*
X127909000Y-81335351D01*
X127941022Y-81537534D01*
X128004281Y-81732223D01*
X128097215Y-81914613D01*
X128217528Y-82080213D01*
X128362286Y-82224971D01*
X128482074Y-82312000D01*
X128527890Y-82345287D01*
X128617202Y-82390794D01*
X128620580Y-82392515D01*
X128671376Y-82440490D01*
X128688171Y-82508311D01*
X128665634Y-82574446D01*
X128620580Y-82613485D01*
X128527886Y-82660715D01*
X128362286Y-82781028D01*
X128217528Y-82925786D01*
X128097215Y-83091386D01*
X128004281Y-83273776D01*
X127941022Y-83468465D01*
X127909000Y-83670647D01*
X127909000Y-83875351D01*
X127941022Y-84077534D01*
X128004281Y-84272223D01*
X128097215Y-84454613D01*
X128217528Y-84620213D01*
X128362286Y-84764971D01*
X128504096Y-84868000D01*
X128527890Y-84885287D01*
X128619340Y-84931883D01*
X128620580Y-84932515D01*
X128671376Y-84980490D01*
X128688171Y-85048311D01*
X128665634Y-85114446D01*
X128620580Y-85153485D01*
X128527886Y-85200715D01*
X128362286Y-85321028D01*
X128217534Y-85465780D01*
X128217530Y-85465786D01*
X128097213Y-85631390D01*
X128091198Y-85643195D01*
X128043226Y-85693990D01*
X127980714Y-85710900D01*
X125602268Y-85710900D01*
X125443732Y-85710900D01*
X125341642Y-85738255D01*
X125290597Y-85751933D01*
X125153303Y-85831199D01*
X125153300Y-85831201D01*
X122918514Y-88065987D01*
X122857191Y-88099472D01*
X122855025Y-88099923D01*
X122702508Y-88130261D01*
X122702498Y-88130264D01*
X122583450Y-88179575D01*
X122513980Y-88187044D01*
X122488546Y-88179575D01*
X122369498Y-88130264D01*
X122369488Y-88130261D01*
X122235305Y-88103570D01*
X122173394Y-88071185D01*
X122138820Y-88010469D01*
X122135497Y-87981953D01*
X122135497Y-83237363D01*
X122155182Y-83170324D01*
X122171816Y-83149682D01*
X123242850Y-82078648D01*
X124477487Y-80844010D01*
X124538808Y-80810527D01*
X124540975Y-80810076D01*
X124590334Y-80800257D01*
X124693497Y-80779737D01*
X124839179Y-80719394D01*
X124970289Y-80631789D01*
X125081789Y-80520289D01*
X125169394Y-80389179D01*
X125170800Y-80385786D01*
X125229735Y-80243501D01*
X125229737Y-80243497D01*
X125260500Y-80088842D01*
X125260500Y-79931158D01*
X125260500Y-79931155D01*
X125260499Y-79931153D01*
X125253310Y-79895012D01*
X125229737Y-79776503D01*
X125229307Y-79775465D01*
X125169397Y-79630827D01*
X125169390Y-79630814D01*
X125081789Y-79499711D01*
X125081786Y-79499707D01*
X124970292Y-79388213D01*
X124970288Y-79388210D01*
X124839185Y-79300609D01*
X124839172Y-79300602D01*
X124693501Y-79240264D01*
X124693489Y-79240261D01*
X124538845Y-79209500D01*
X124538842Y-79209500D01*
X124381158Y-79209500D01*
X124381155Y-79209500D01*
X124226510Y-79240261D01*
X124226498Y-79240264D01*
X124080827Y-79300602D01*
X124080814Y-79300609D01*
X123949711Y-79388210D01*
X123949707Y-79388213D01*
X123838213Y-79499707D01*
X123838210Y-79499711D01*
X123750609Y-79630814D01*
X123750602Y-79630827D01*
X123690264Y-79776498D01*
X123690261Y-79776508D01*
X123659923Y-79929025D01*
X123627538Y-79990936D01*
X123625987Y-79992514D01*
X121163699Y-82454803D01*
X121051598Y-82566903D01*
X121051596Y-82566906D01*
X120972330Y-82704200D01*
X120972330Y-82704201D01*
X120931297Y-82857335D01*
X120931297Y-97482665D01*
X120958652Y-97584754D01*
X120972330Y-97635800D01*
X120996820Y-97678216D01*
X120996821Y-97678220D01*
X120996822Y-97678220D01*
X121051596Y-97773093D01*
X121051598Y-97773096D01*
X122101987Y-98823485D01*
X122135472Y-98884808D01*
X122135923Y-98886974D01*
X122166261Y-99039491D01*
X122166264Y-99039501D01*
X122226602Y-99185172D01*
X122226609Y-99185185D01*
X122314210Y-99316288D01*
X122314213Y-99316292D01*
X122364530Y-99366609D01*
X122398015Y-99427932D01*
X122393031Y-99497624D01*
X122364530Y-99541971D01*
X121452921Y-100453581D01*
X121391598Y-100487066D01*
X121365240Y-100489900D01*
X117337062Y-100489900D01*
X117178526Y-100489900D01*
X117086646Y-100514519D01*
X117025391Y-100530932D01*
X117025390Y-100530933D01*
X116888099Y-100610197D01*
X116888094Y-100610201D01*
X116263601Y-101234694D01*
X116263599Y-101234697D01*
X116184333Y-101371991D01*
X116184333Y-101371992D01*
X116143300Y-101525126D01*
X110320983Y-101525126D01*
X110338796Y-101501331D01*
X110389091Y-101366483D01*
X110395500Y-101306873D01*
X110395499Y-99861128D01*
X110389091Y-99801517D01*
X110349218Y-99694613D01*
X110338797Y-99666671D01*
X110338793Y-99666664D01*
X110252547Y-99551455D01*
X110252544Y-99551452D01*
X110137335Y-99465206D01*
X110137328Y-99465202D01*
X110002482Y-99414908D01*
X110002483Y-99414908D01*
X109942883Y-99408501D01*
X109942881Y-99408500D01*
X109942873Y-99408500D01*
X109942864Y-99408500D01*
X108497129Y-99408500D01*
X108497123Y-99408501D01*
X108437516Y-99414908D01*
X108302671Y-99465202D01*
X108302664Y-99465206D01*
X108187455Y-99551452D01*
X108187452Y-99551455D01*
X108101206Y-99666664D01*
X108101202Y-99666671D01*
X108050908Y-99801517D01*
X108044501Y-99861116D01*
X108044501Y-99861123D01*
X108044500Y-99861135D01*
X107180500Y-99861135D01*
X107180500Y-81145135D01*
X108298500Y-81145135D01*
X108298500Y-82590870D01*
X108298501Y-82590876D01*
X108304908Y-82650483D01*
X108355202Y-82785328D01*
X108355206Y-82785335D01*
X108441452Y-82900544D01*
X108441453Y-82900544D01*
X108441454Y-82900546D01*
X108475164Y-82925781D01*
X108526539Y-82964241D01*
X108568409Y-83020175D01*
X108573393Y-83089867D01*
X108552545Y-83136392D01*
X108468624Y-83251900D01*
X108384620Y-83416764D01*
X108384619Y-83416767D01*
X108327445Y-83592734D01*
X108313130Y-83683117D01*
X108298500Y-83775486D01*
X108298500Y-83960514D01*
X108312972Y-84051889D01*
X108327445Y-84143265D01*
X108384619Y-84319232D01*
X108384620Y-84319235D01*
X108468622Y-84484096D01*
X108577379Y-84633787D01*
X108708213Y-84764621D01*
X108712421Y-84767678D01*
X108712432Y-84767686D01*
X108755094Y-84823019D01*
X108761069Y-84892633D01*
X108728459Y-84954426D01*
X108712432Y-84968314D01*
X108708210Y-84971381D01*
X108577381Y-85102210D01*
X108577381Y-85102211D01*
X108577379Y-85102213D01*
X108546118Y-85145240D01*
X108468622Y-85251903D01*
X108384620Y-85416764D01*
X108384619Y-85416767D01*
X108327445Y-85592734D01*
X108298500Y-85775486D01*
X108298500Y-85960513D01*
X108327445Y-86143265D01*
X108384619Y-86319232D01*
X108384620Y-86319235D01*
X108433595Y-86415352D01*
X108468622Y-86484096D01*
X108577379Y-86633787D01*
X108708213Y-86764621D01*
X108712421Y-86767678D01*
X108712432Y-86767686D01*
X108755094Y-86823019D01*
X108761069Y-86892633D01*
X108728459Y-86954426D01*
X108712432Y-86968314D01*
X108708210Y-86971381D01*
X108577381Y-87102210D01*
X108577381Y-87102211D01*
X108577379Y-87102213D01*
X108535235Y-87160219D01*
X108468622Y-87251903D01*
X108384620Y-87416764D01*
X108384619Y-87416767D01*
X108327445Y-87592734D01*
X108304007Y-87740715D01*
X108298500Y-87775486D01*
X108298500Y-87960514D01*
X108306412Y-88010469D01*
X108327445Y-88143265D01*
X108384619Y-88319232D01*
X108384620Y-88319235D01*
X108426901Y-88402215D01*
X108468622Y-88484096D01*
X108577379Y-88633787D01*
X108708213Y-88764621D01*
X108712421Y-88767678D01*
X108712432Y-88767686D01*
X108755094Y-88823019D01*
X108761069Y-88892633D01*
X108728459Y-88954426D01*
X108712432Y-88968314D01*
X108708210Y-88971381D01*
X108577381Y-89102210D01*
X108577381Y-89102211D01*
X108577379Y-89102213D01*
X108554656Y-89133489D01*
X108468622Y-89251903D01*
X108384620Y-89416764D01*
X108384619Y-89416767D01*
X108327445Y-89592734D01*
X108298500Y-89775486D01*
X108298500Y-89960513D01*
X108327445Y-90143265D01*
X108384619Y-90319232D01*
X108384620Y-90319235D01*
X108456498Y-90460302D01*
X108468622Y-90484096D01*
X108577379Y-90633787D01*
X108708213Y-90764621D01*
X108712421Y-90767678D01*
X108712432Y-90767686D01*
X108755094Y-90823019D01*
X108761069Y-90892633D01*
X108728459Y-90954426D01*
X108712432Y-90968314D01*
X108708210Y-90971381D01*
X108577381Y-91102210D01*
X108577381Y-91102211D01*
X108577379Y-91102213D01*
X108530672Y-91166499D01*
X108468622Y-91251903D01*
X108384620Y-91416764D01*
X108384619Y-91416767D01*
X108327445Y-91592734D01*
X108298500Y-91775486D01*
X108298500Y-91960513D01*
X108327445Y-92143265D01*
X108384619Y-92319232D01*
X108384620Y-92319235D01*
X108464224Y-92475465D01*
X108468622Y-92484096D01*
X108577379Y-92633787D01*
X108708213Y-92764621D01*
X108857904Y-92873378D01*
X108938763Y-92914577D01*
X109022764Y-92957379D01*
X109022767Y-92957380D01*
X109110750Y-92985967D01*
X109198736Y-93014555D01*
X109381486Y-93043500D01*
X109381487Y-93043500D01*
X109566513Y-93043500D01*
X109566514Y-93043500D01*
X109749264Y-93014555D01*
X109925235Y-92957379D01*
X110090096Y-92873378D01*
X110239787Y-92764621D01*
X110370621Y-92633787D01*
X110479378Y-92484096D01*
X110563379Y-92319235D01*
X110620555Y-92143264D01*
X110649500Y-91960514D01*
X110649500Y-91775486D01*
X110620555Y-91592736D01*
X110581257Y-91471789D01*
X110563380Y-91416767D01*
X110563379Y-91416764D01*
X110517730Y-91327174D01*
X110479378Y-91251904D01*
X110370621Y-91102213D01*
X110239787Y-90971379D01*
X110235576Y-90968319D01*
X110192909Y-90912994D01*
X110186926Y-90843381D01*
X110219529Y-90781585D01*
X110235570Y-90767684D01*
X110239787Y-90764621D01*
X110370621Y-90633787D01*
X110479378Y-90484096D01*
X110563379Y-90319235D01*
X110620555Y-90143264D01*
X110649500Y-89960514D01*
X110649500Y-89775486D01*
X110620555Y-89592736D01*
X110563379Y-89416765D01*
X110563379Y-89416764D01*
X110493274Y-89279177D01*
X110479378Y-89251904D01*
X110370621Y-89102213D01*
X110239787Y-88971379D01*
X110235576Y-88968319D01*
X110192909Y-88912994D01*
X110186926Y-88843381D01*
X110219529Y-88781585D01*
X110235570Y-88767684D01*
X110239787Y-88764621D01*
X110370621Y-88633787D01*
X110479378Y-88484096D01*
X110563379Y-88319235D01*
X110620555Y-88143264D01*
X110649500Y-87960514D01*
X110649500Y-87775486D01*
X110620555Y-87592736D01*
X110563379Y-87416765D01*
X110563379Y-87416764D01*
X110492782Y-87278211D01*
X110479378Y-87251904D01*
X110370621Y-87102213D01*
X110239787Y-86971379D01*
X110235576Y-86968319D01*
X110192909Y-86912994D01*
X110186926Y-86843381D01*
X110219529Y-86781585D01*
X110235570Y-86767684D01*
X110239787Y-86764621D01*
X110370621Y-86633787D01*
X110479378Y-86484096D01*
X110563379Y-86319235D01*
X110620555Y-86143264D01*
X110649500Y-85960514D01*
X110649500Y-85775486D01*
X110620555Y-85592736D01*
X110563379Y-85416765D01*
X110563379Y-85416764D01*
X110520577Y-85332763D01*
X110479378Y-85251904D01*
X110370621Y-85102213D01*
X110239787Y-84971379D01*
X110235576Y-84968319D01*
X110192909Y-84912994D01*
X110186926Y-84843381D01*
X110219529Y-84781585D01*
X110235570Y-84767684D01*
X110239787Y-84764621D01*
X110370621Y-84633787D01*
X110479378Y-84484096D01*
X110563379Y-84319235D01*
X110620555Y-84143264D01*
X110649500Y-83960514D01*
X110649500Y-83775486D01*
X110620555Y-83592736D01*
X110563379Y-83416765D01*
X110563379Y-83416764D01*
X110500607Y-83293569D01*
X110479378Y-83251904D01*
X110395453Y-83136392D01*
X110371974Y-83070586D01*
X110387799Y-83002532D01*
X110421459Y-82964241D01*
X110506546Y-82900546D01*
X110592796Y-82785331D01*
X110643091Y-82650483D01*
X110649500Y-82590873D01*
X110649499Y-81145128D01*
X110643091Y-81085517D01*
X110592796Y-80950669D01*
X110592795Y-80950668D01*
X110592793Y-80950664D01*
X110506547Y-80835455D01*
X110506544Y-80835452D01*
X110391335Y-80749206D01*
X110391328Y-80749202D01*
X110256482Y-80698908D01*
X110256483Y-80698908D01*
X110196883Y-80692501D01*
X110196881Y-80692500D01*
X110196873Y-80692500D01*
X110196864Y-80692500D01*
X108751129Y-80692500D01*
X108751123Y-80692501D01*
X108691516Y-80698908D01*
X108556671Y-80749202D01*
X108556664Y-80749206D01*
X108441455Y-80835452D01*
X108441452Y-80835455D01*
X108355206Y-80950664D01*
X108355202Y-80950671D01*
X108304908Y-81085517D01*
X108298501Y-81145116D01*
X108298501Y-81145123D01*
X108298500Y-81145135D01*
X107180500Y-81145135D01*
X107180500Y-74554711D01*
X108385500Y-74554711D01*
X108385500Y-74797288D01*
X108405013Y-74945511D01*
X108417162Y-75037789D01*
X108417946Y-75040715D01*
X108479947Y-75272104D01*
X108493897Y-75305781D01*
X108572776Y-75496212D01*
X108694064Y-75706289D01*
X108694066Y-75706292D01*
X108694067Y-75706293D01*
X108841733Y-75898736D01*
X108841739Y-75898743D01*
X109013256Y-76070260D01*
X109013262Y-76070265D01*
X109205711Y-76217936D01*
X109415788Y-76339224D01*
X109639900Y-76432054D01*
X109874211Y-76494838D01*
X110054586Y-76518584D01*
X110114711Y-76526500D01*
X110114712Y-76526500D01*
X110357289Y-76526500D01*
X110405388Y-76520167D01*
X110597789Y-76494838D01*
X110832100Y-76432054D01*
X111056212Y-76339224D01*
X111266289Y-76217936D01*
X111458738Y-76070265D01*
X111630265Y-75898738D01*
X111777936Y-75706289D01*
X111899224Y-75496212D01*
X111992054Y-75272100D01*
X112054838Y-75037789D01*
X112086500Y-74797288D01*
X112086500Y-74554712D01*
X112054838Y-74314211D01*
X111992054Y-74079900D01*
X111899224Y-73855788D01*
X111777936Y-73645711D01*
X111630265Y-73453262D01*
X111630260Y-73453256D01*
X111458743Y-73281739D01*
X111458736Y-73281733D01*
X111266293Y-73134067D01*
X111266292Y-73134066D01*
X111266289Y-73134064D01*
X111056212Y-73012776D01*
X111056205Y-73012773D01*
X110832104Y-72919947D01*
X110597785Y-72857161D01*
X110357289Y-72825500D01*
X110357288Y-72825500D01*
X110114712Y-72825500D01*
X110114711Y-72825500D01*
X109874214Y-72857161D01*
X109639895Y-72919947D01*
X109415794Y-73012773D01*
X109415785Y-73012777D01*
X109205706Y-73134067D01*
X109013263Y-73281733D01*
X109013256Y-73281739D01*
X108841739Y-73453256D01*
X108841733Y-73453263D01*
X108694067Y-73645706D01*
X108572777Y-73855785D01*
X108572773Y-73855794D01*
X108479947Y-74079895D01*
X108417161Y-74314214D01*
X108385500Y-74554711D01*
X107180500Y-74554711D01*
X107180500Y-71744500D01*
X107200185Y-71677461D01*
X107252989Y-71631706D01*
X107304500Y-71620500D01*
X159395500Y-71620500D01*
X159462539Y-71640185D01*
G37*
%TD.AperFunction*%
%TD*%
M02*
