M48
; DRILL file {KiCad 9.0.0} date 2025-06-14T22:04:37-0400
; FORMAT={-:-/ absolute / inch / decimal}
; #@! TF.CreationDate,2025-06-14T22:04:37-04:00
; #@! TF.GenerationSoftware,Kicad,Pcbnew,9.0.0
; #@! TF.FileFunction,Plated,1,2,PTH
FMAT,2
INCH
; #@! TA.AperFunction,Plated,PTH,ViaDrill
T1C0.0118
; #@! TA.AperFunction,Plated,PTH,ComponentDrill
T2C0.0118
; #@! TA.AperFunction,Plated,PTH,ComponentDrill
T3C0.0315
; #@! TA.AperFunction,Plated,PTH,ComponentDrill
T4C0.0394
%
G90
G05
T1
X4.35Y-4.8
X4.35Y-4.975
X4.37Y-3.3
X4.37Y-3.335
X4.37Y-3.46
X4.37Y-3.5
X4.37Y-3.535
X4.37Y-3.57
X4.37Y-4.02
X4.37Y-4.06
X4.37Y-4.1
X4.37Y-4.24
X4.37Y-4.27
X4.37Y-4.305
X4.39Y-3.27
X4.4Y-3.46
X4.4Y-4.8
X4.4Y-4.975
X4.405Y-3.57
X4.405Y-4.02
X4.405Y-4.31
X4.425Y-3.27
X4.435Y-3.46
X4.435Y-3.57
X4.435Y-4.02
X4.44Y-4.31
X4.45Y-4.8
X4.45Y-4.975
X4.46Y-3.27
X4.46Y-3.3
X4.46Y-3.33
X4.46Y-4.24
X4.46Y-4.275
X4.47Y-3.46
X4.47Y-3.5
X4.47Y-3.535
X4.47Y-3.57
X4.47Y-4.02
X4.47Y-4.06
X4.47Y-4.1
X4.475Y-4.31
X4.5Y-4.8
X4.5Y-4.975
X4.55Y-4.8
X4.55Y-4.975
X4.62Y-4.01
X4.62Y-4.26
X4.7Y-3.31
X4.7Y-3.34
X4.7Y-3.38
X4.7Y-3.42
X4.7Y-4.07
X4.7Y-4.1
X4.7Y-4.14
X4.7Y-4.18
X4.73Y-3.32
X4.73Y-3.36
X4.73Y-3.4
X4.73Y-3.43
X4.73Y-4.08
X4.73Y-4.12
X4.73Y-4.16
X4.73Y-4.19
X4.76Y-3.31
X4.76Y-3.34
X4.76Y-3.38
X4.76Y-3.42
X4.76Y-4.07
X4.76Y-4.1
X4.76Y-4.14
X4.76Y-4.18
X4.8085Y-3.5
X4.8085Y-4.25
X4.84Y-3.5
X4.84Y-3.89
X4.84Y-4.0
X4.84Y-4.25
X4.8717Y-4.0017
X4.88Y-4.09
X4.89Y-3.34
X4.9Y-3.15
X6.0Y-3.74
X6.01Y-4.11
T2
X4.7813Y-5.3506
X4.7813Y-5.39
X4.7813Y-5.4294
X4.8009Y-5.3703
X4.8009Y-5.4097
X4.8206Y-5.3506
X4.8206Y-5.39
X4.8206Y-5.4294
X4.8398Y-5.4096
X4.8403Y-5.3703
X4.86Y-5.3506
X4.86Y-5.39
X4.86Y-5.4294
X4.8797Y-5.3703
X4.8797Y-5.4097
X4.8994Y-5.3506
X4.8994Y-5.39
X4.8994Y-5.4294
X4.9191Y-5.3703
X4.9191Y-5.4097
X4.9387Y-5.3506
X4.9387Y-5.39
X4.9387Y-5.4294
X5.1813Y-5.3506
X5.1813Y-5.39
X5.1813Y-5.4294
X5.2009Y-5.3703
X5.2009Y-5.4097
X5.2206Y-5.3506
X5.2206Y-5.39
X5.2206Y-5.4294
X5.2398Y-5.4096
X5.2403Y-5.3703
X5.26Y-5.3506
X5.26Y-5.39
X5.26Y-5.4294
X5.2797Y-5.3703
X5.2797Y-5.4097
X5.2994Y-5.3506
X5.2994Y-5.39
X5.2994Y-5.4294
X5.3191Y-5.3703
X5.3191Y-5.4097
X5.3387Y-5.3506
X5.3387Y-5.39
X5.3387Y-5.4294
X6.0613Y-3.2406
X6.0613Y-3.28
X6.0613Y-3.3194
X6.0613Y-3.4606
X6.0613Y-3.5
X6.0613Y-3.5394
X6.0809Y-3.2603
X6.0809Y-3.2997
X6.0809Y-3.4803
X6.0809Y-3.5197
X6.1006Y-3.2406
X6.1006Y-3.28
X6.1006Y-3.3194
X6.1006Y-3.4606
X6.1006Y-3.5
X6.1006Y-3.5394
X6.1198Y-3.2996
X6.1198Y-3.5196
X6.1203Y-3.2603
X6.1203Y-3.4803
X6.14Y-3.2406
X6.14Y-3.28
X6.14Y-3.3194
X6.14Y-3.4606
X6.14Y-3.5
X6.14Y-3.5394
X6.1597Y-3.2603
X6.1597Y-3.2997
X6.1597Y-3.4803
X6.1597Y-3.5197
X6.1794Y-3.2406
X6.1794Y-3.28
X6.1794Y-3.3194
X6.1794Y-3.4606
X6.1794Y-3.5
X6.1794Y-3.5394
X6.1991Y-3.2603
X6.1991Y-3.2997
X6.1991Y-3.4803
X6.1991Y-3.5197
X6.2187Y-3.2406
X6.2187Y-3.28
X6.2187Y-3.3194
X6.2187Y-3.4606
X6.2187Y-3.5
X6.2187Y-3.5394
T3
X4.3Y-3.96
X4.3Y-4.0387
X4.3Y-4.1175
X4.3Y-4.1962
X4.3Y-4.275
X4.3Y-4.3537
X4.31Y-3.2231
X4.31Y-3.3019
X4.31Y-3.3806
X4.31Y-3.4594
X4.31Y-3.5381
X4.31Y-3.6169
T4
X5.087Y-2.8981
X5.087Y-2.9981
X5.087Y-3.0981
X5.087Y-3.1981
X5.087Y-3.2981
X5.087Y-3.3981
X5.087Y-3.4981
X5.087Y-3.5981
X5.087Y-3.6981
X5.087Y-3.7981
X5.087Y-3.8981
X5.087Y-3.9981
X5.087Y-4.0981
X5.087Y-4.1981
X5.087Y-4.2981
X5.087Y-4.3981
X5.087Y-4.4981
X5.087Y-4.5981
X5.087Y-4.6981
X5.087Y-4.7981
X5.787Y-2.8981
X5.787Y-2.9981
X5.787Y-3.0981
X5.787Y-3.1981
X5.787Y-3.2981
X5.787Y-3.3981
X5.787Y-3.4981
X5.787Y-3.5981
X5.787Y-3.6981
X5.787Y-3.7981
X5.787Y-3.8981
X5.787Y-3.9981
X5.787Y-4.0981
X5.787Y-4.1981
X5.787Y-4.2981
X5.787Y-4.3981
X5.787Y-4.4981
X5.787Y-4.5981
X5.787Y-4.6981
X5.787Y-4.7981
M30
