%TF.GenerationSoftware,KiCad,Pcbnew,9.0.0*%
%TF.CreationDate,2025-06-14T22:04:31-04:00*%
%TF.ProjectId,equatorial-mount,65717561-746f-4726-9961-6c2d6d6f756e,rev?*%
%TF.SameCoordinates,Original*%
%TF.FileFunction,Paste,Top*%
%TF.FilePolarity,Positive*%
%FSLAX46Y46*%
G04 Gerber Fmt 4.6, Leading zero omitted, Abs format (unit mm)*
G04 Created by KiCad (PCBNEW 9.0.0) date 2025-06-14 22:04:31*
%MOMM*%
%LPD*%
G01*
G04 APERTURE LIST*
G04 Aperture macros list*
%AMRoundRect*
0 Rectangle with rounded corners*
0 $1 Rounding radius*
0 $2 $3 $4 $5 $6 $7 $8 $9 X,Y pos of 4 corners*
0 Add a 4 corners polygon primitive as box body*
4,1,4,$2,$3,$4,$5,$6,$7,$8,$9,$2,$3,0*
0 Add four circle primitives for the rounded corners*
1,1,$1+$1,$2,$3*
1,1,$1+$1,$4,$5*
1,1,$1+$1,$6,$7*
1,1,$1+$1,$8,$9*
0 Add four rect primitives between the rounded corners*
20,1,$1+$1,$2,$3,$4,$5,0*
20,1,$1+$1,$4,$5,$6,$7,0*
20,1,$1+$1,$6,$7,$8,$9,0*
20,1,$1+$1,$8,$9,$2,$3,0*%
G04 Aperture macros list end*
%ADD10RoundRect,0.250000X1.950000X0.700000X-1.950000X0.700000X-1.950000X-0.700000X1.950000X-0.700000X0*%
%ADD11R,1.050000X0.450000*%
%ADD12R,0.882000X0.537000*%
%ADD13RoundRect,0.250000X0.312500X0.625000X-0.312500X0.625000X-0.312500X-0.625000X0.312500X-0.625000X0*%
%ADD14RoundRect,0.250000X0.325000X0.650000X-0.325000X0.650000X-0.325000X-0.650000X0.325000X-0.650000X0*%
%ADD15RoundRect,0.225000X0.225000X0.250000X-0.225000X0.250000X-0.225000X-0.250000X0.225000X-0.250000X0*%
%ADD16RoundRect,0.150000X0.700000X-0.150000X0.700000X0.150000X-0.700000X0.150000X-0.700000X-0.150000X0*%
%ADD17RoundRect,0.250000X1.100000X-0.250000X1.100000X0.250000X-1.100000X0.250000X-1.100000X-0.250000X0*%
%ADD18R,4.699000X3.429000*%
G04 APERTURE END LIST*
D10*
%TO.C,C1*%
X121698000Y-123952000D03*
X112998000Y-123952000D03*
%TD*%
D11*
%TO.C,U4*%
X117367000Y-102627000D03*
X117367000Y-103277000D03*
X117367000Y-103927000D03*
X117367000Y-104577000D03*
X117367000Y-105227000D03*
X117367000Y-105877000D03*
X117367000Y-106527000D03*
X117367000Y-107177000D03*
X122917000Y-107177000D03*
X122917000Y-106527000D03*
X122917000Y-105877000D03*
X122917000Y-105227000D03*
X122917000Y-104577000D03*
X122917000Y-103927000D03*
X122917000Y-103277000D03*
X122917000Y-102627000D03*
D12*
X119407000Y-103559500D03*
X119407000Y-104454500D03*
X119407000Y-105349500D03*
X119407000Y-106244500D03*
X120877000Y-103559500D03*
X120877000Y-104454500D03*
X120877000Y-105349500D03*
X120877000Y-106244500D03*
%TD*%
D13*
%TO.C,R8*%
X115000500Y-108204000D03*
X112075500Y-108204000D03*
%TD*%
%TO.C,R7*%
X115000500Y-103632000D03*
X112075500Y-103632000D03*
%TD*%
D14*
%TO.C,C9*%
X123649000Y-111760000D03*
X120699000Y-111760000D03*
%TD*%
D15*
%TO.C,C8*%
X122949000Y-109728000D03*
X121399000Y-109728000D03*
%TD*%
%TO.C,C7*%
X123203000Y-100076000D03*
X121653000Y-100076000D03*
%TD*%
D16*
%TO.C,J3*%
X154360000Y-98649000D03*
X154360000Y-97399000D03*
X154360000Y-96149000D03*
X154360000Y-94899000D03*
D17*
X157560000Y-100499000D03*
X157560000Y-93049000D03*
%TD*%
D18*
%TO.C,TP1*%
X133604000Y-136906000D03*
%TD*%
D13*
%TO.C,R6*%
X115000500Y-84074000D03*
X112075500Y-84074000D03*
%TD*%
D18*
%TO.C,TP3*%
X123444000Y-136906000D03*
%TD*%
%TO.C,TP2*%
X155956000Y-88900000D03*
%TD*%
D15*
%TO.C,C6*%
X123203000Y-80518000D03*
X121653000Y-80518000D03*
%TD*%
D13*
%TO.C,R5*%
X115000500Y-89154000D03*
X112075500Y-89154000D03*
%TD*%
D15*
%TO.C,C5*%
X122949000Y-90424000D03*
X121399000Y-90424000D03*
%TD*%
D11*
%TO.C,U3*%
X117367000Y-83323000D03*
X117367000Y-83973000D03*
X117367000Y-84623000D03*
X117367000Y-85273000D03*
X117367000Y-85923000D03*
X117367000Y-86573000D03*
X117367000Y-87223000D03*
X117367000Y-87873000D03*
X122917000Y-87873000D03*
X122917000Y-87223000D03*
X122917000Y-86573000D03*
X122917000Y-85923000D03*
X122917000Y-85273000D03*
X122917000Y-84623000D03*
X122917000Y-83973000D03*
X122917000Y-83323000D03*
D12*
X119407000Y-84255500D03*
X119407000Y-85150500D03*
X119407000Y-86045500D03*
X119407000Y-86940500D03*
X120877000Y-84255500D03*
X120877000Y-85150500D03*
X120877000Y-86045500D03*
X120877000Y-86940500D03*
%TD*%
D14*
%TO.C,C4*%
X123649000Y-92456000D03*
X120699000Y-92456000D03*
%TD*%
D16*
%TO.C,J4*%
X154360000Y-109063000D03*
X154360000Y-107813000D03*
X154360000Y-106563000D03*
X154360000Y-105313000D03*
D17*
X157560000Y-110913000D03*
X157560000Y-103463000D03*
%TD*%
D18*
%TO.C,TP4*%
X155956000Y-83312000D03*
%TD*%
M02*
