%TF.GenerationSoftware,KiCad,Pcbnew,9.0.0*%
%TF.CreationDate,2025-06-14T22:04:31-04:00*%
%TF.ProjectId,equatorial-mount,65717561-746f-4726-9961-6c2d6d6f756e,rev?*%
%TF.SameCoordinates,Original*%
%TF.FileFunction,Soldermask,Top*%
%TF.FilePolarity,Negative*%
%FSLAX46Y46*%
G04 Gerber Fmt 4.6, Leading zero omitted, Abs format (unit mm)*
G04 Created by KiCad (PCBNEW 9.0.0) date 2025-06-14 22:04:31*
%MOMM*%
%LPD*%
G01*
G04 APERTURE LIST*
G04 Aperture macros list*
%AMRoundRect*
0 Rectangle with rounded corners*
0 $1 Rounding radius*
0 $2 $3 $4 $5 $6 $7 $8 $9 X,Y pos of 4 corners*
0 Add a 4 corners polygon primitive as box body*
4,1,4,$2,$3,$4,$5,$6,$7,$8,$9,$2,$3,0*
0 Add four circle primitives for the rounded corners*
1,1,$1+$1,$2,$3*
1,1,$1+$1,$4,$5*
1,1,$1+$1,$6,$7*
1,1,$1+$1,$8,$9*
0 Add four rect primitives between the rounded corners*
20,1,$1+$1,$2,$3,$4,$5,0*
20,1,$1+$1,$4,$5,$6,$7,0*
20,1,$1+$1,$6,$7,$8,$9,0*
20,1,$1+$1,$8,$9,$2,$3,0*%
%AMFreePoly0*
4,1,37,0.800000,0.796148,0.878414,0.796148,1.032228,0.765552,1.177117,0.705537,1.307515,0.618408,1.418408,0.507515,1.505537,0.377117,1.565552,0.232228,1.596148,0.078414,1.596148,-0.078414,1.565552,-0.232228,1.505537,-0.377117,1.418408,-0.507515,1.307515,-0.618408,1.177117,-0.705537,1.032228,-0.765552,0.878414,-0.796148,0.800000,-0.796148,0.800000,-0.800000,-1.400000,-0.800000,
-1.403843,-0.796157,-1.439018,-0.796157,-1.511114,-0.766294,-1.566294,-0.711114,-1.596157,-0.639018,-1.596157,-0.603843,-1.600000,-0.600000,-1.600000,0.600000,-1.596157,0.603843,-1.596157,0.639018,-1.566294,0.711114,-1.511114,0.766294,-1.439018,0.796157,-1.403843,0.796157,-1.400000,0.800000,0.800000,0.800000,0.800000,0.796148,0.800000,0.796148,$1*%
%AMFreePoly1*
4,1,37,1.403843,0.796157,1.439018,0.796157,1.511114,0.766294,1.566294,0.711114,1.596157,0.639018,1.596157,0.603843,1.600000,0.600000,1.600000,-0.600000,1.596157,-0.603843,1.596157,-0.639018,1.566294,-0.711114,1.511114,-0.766294,1.439018,-0.796157,1.403843,-0.796157,1.400000,-0.800000,-0.800000,-0.800000,-0.800000,-0.796148,-0.878414,-0.796148,-1.032228,-0.765552,-1.177117,-0.705537,
-1.307515,-0.618408,-1.418408,-0.507515,-1.505537,-0.377117,-1.565552,-0.232228,-1.596148,-0.078414,-1.596148,0.078414,-1.565552,0.232228,-1.505537,0.377117,-1.418408,0.507515,-1.307515,0.618408,-1.177117,0.705537,-1.032228,0.765552,-0.878414,0.796148,-0.800000,0.796148,-0.800000,0.800000,1.400000,0.800000,1.403843,0.796157,1.403843,0.796157,$1*%
%AMFreePoly2*
4,1,37,0.603843,0.796157,0.639018,0.796157,0.711114,0.766294,0.766294,0.711114,0.796157,0.639018,0.796157,0.603843,0.800000,0.600000,0.800000,-0.600000,0.796157,-0.603843,0.796157,-0.639018,0.766294,-0.711114,0.711114,-0.766294,0.639018,-0.796157,0.603843,-0.796157,0.600000,-0.800000,0.000000,-0.800000,0.000000,-0.796148,-0.078414,-0.796148,-0.232228,-0.765552,-0.377117,-0.705537,
-0.507515,-0.618408,-0.618408,-0.507515,-0.705537,-0.377117,-0.765552,-0.232228,-0.796148,-0.078414,-0.796148,0.078414,-0.765552,0.232228,-0.705537,0.377117,-0.618408,0.507515,-0.507515,0.618408,-0.377117,0.705537,-0.232228,0.765552,-0.078414,0.796148,0.000000,0.796148,0.000000,0.800000,0.600000,0.800000,0.603843,0.796157,0.603843,0.796157,$1*%
%AMFreePoly3*
4,1,37,0.000000,0.796148,0.078414,0.796148,0.232228,0.765552,0.377117,0.705537,0.507515,0.618408,0.618408,0.507515,0.705537,0.377117,0.765552,0.232228,0.796148,0.078414,0.796148,-0.078414,0.765552,-0.232228,0.705537,-0.377117,0.618408,-0.507515,0.507515,-0.618408,0.377117,-0.705537,0.232228,-0.765552,0.078414,-0.796148,0.000000,-0.796148,0.000000,-0.800000,-0.600000,-0.800000,
-0.603843,-0.796157,-0.639018,-0.796157,-0.711114,-0.766294,-0.766294,-0.711114,-0.796157,-0.639018,-0.796157,-0.603843,-0.800000,-0.600000,-0.800000,0.600000,-0.796157,0.603843,-0.796157,0.639018,-0.766294,0.711114,-0.711114,0.766294,-0.639018,0.796157,-0.603843,0.796157,-0.600000,0.800000,0.000000,0.800000,0.000000,0.796148,0.000000,0.796148,$1*%
G04 Aperture macros list end*
%ADD10C,3.200000*%
%ADD11RoundRect,0.250000X1.950000X0.700000X-1.950000X0.700000X-1.950000X-0.700000X1.950000X-0.700000X0*%
%ADD12R,1.050000X0.450000*%
%ADD13R,1.470000X0.895000*%
%ADD14RoundRect,0.250000X0.312500X0.625000X-0.312500X0.625000X-0.312500X-0.625000X0.312500X-0.625000X0*%
%ADD15R,1.350000X1.350000*%
%ADD16O,1.350000X1.350000*%
%ADD17RoundRect,0.250000X0.325000X0.650000X-0.325000X0.650000X-0.325000X-0.650000X0.325000X-0.650000X0*%
%ADD18RoundRect,0.225000X0.225000X0.250000X-0.225000X0.250000X-0.225000X-0.250000X0.225000X-0.250000X0*%
%ADD19RoundRect,0.150000X0.700000X-0.150000X0.700000X0.150000X-0.700000X0.150000X-0.700000X-0.150000X0*%
%ADD20RoundRect,0.250000X1.100000X-0.250000X1.100000X0.250000X-1.100000X0.250000X-1.100000X-0.250000X0*%
%ADD21R,4.699000X3.429000*%
%ADD22C,2.200000*%
%ADD23C,1.850000*%
%ADD24FreePoly0,0.000000*%
%ADD25RoundRect,0.200000X-0.600000X-0.600000X0.600000X-0.600000X0.600000X0.600000X-0.600000X0.600000X0*%
%ADD26RoundRect,0.800000X-0.800000X-0.000010X0.800000X-0.000010X0.800000X0.000010X-0.800000X0.000010X0*%
%ADD27C,1.600000*%
%ADD28FreePoly1,0.000000*%
%ADD29FreePoly2,0.000000*%
%ADD30FreePoly3,0.000000*%
G04 APERTURE END LIST*
D10*
%TO.C,H4*%
X156464000Y-138684000D03*
%TD*%
%TO.C,H3*%
X110236000Y-138684000D03*
%TD*%
%TO.C,H2*%
X156464000Y-74676000D03*
%TD*%
%TO.C,H1*%
X110236000Y-74676000D03*
%TD*%
D11*
%TO.C,C1*%
X121698000Y-123952000D03*
X112998000Y-123952000D03*
%TD*%
D12*
%TO.C,U4*%
X117367000Y-102627000D03*
X117367000Y-103277000D03*
X117367000Y-103927000D03*
X117367000Y-104577000D03*
X117367000Y-105227000D03*
X117367000Y-105877000D03*
X117367000Y-106527000D03*
X117367000Y-107177000D03*
X122917000Y-107177000D03*
X122917000Y-106527000D03*
X122917000Y-105877000D03*
X122917000Y-105227000D03*
X122917000Y-104577000D03*
X122917000Y-103927000D03*
X122917000Y-103277000D03*
X122917000Y-102627000D03*
D13*
X119407000Y-103559500D03*
X119407000Y-104454500D03*
X119407000Y-105349500D03*
X119407000Y-106244500D03*
X120877000Y-103559500D03*
X120877000Y-104454500D03*
X120877000Y-105349500D03*
X120877000Y-106244500D03*
%TD*%
D14*
%TO.C,R8*%
X115000500Y-108204000D03*
X112075500Y-108204000D03*
%TD*%
%TO.C,R7*%
X115000500Y-103632000D03*
X112075500Y-103632000D03*
%TD*%
D15*
%TO.C,J5*%
X109220000Y-100584000D03*
D16*
X109220000Y-102584000D03*
X109220000Y-104584000D03*
X109220000Y-106584000D03*
X109220000Y-108584000D03*
X109220000Y-110584000D03*
%TD*%
D17*
%TO.C,C9*%
X123649000Y-111760000D03*
X120699000Y-111760000D03*
%TD*%
D18*
%TO.C,C8*%
X122949000Y-109728000D03*
X121399000Y-109728000D03*
%TD*%
%TO.C,C7*%
X123203000Y-100076000D03*
X121653000Y-100076000D03*
%TD*%
D19*
%TO.C,J3*%
X154360000Y-98649000D03*
X154360000Y-97399000D03*
X154360000Y-96149000D03*
X154360000Y-94899000D03*
D20*
X157560000Y-100499000D03*
X157560000Y-93049000D03*
%TD*%
D21*
%TO.C,TP1*%
X133604000Y-136906000D03*
%TD*%
D14*
%TO.C,R6*%
X115000500Y-84074000D03*
X112075500Y-84074000D03*
%TD*%
D21*
%TO.C,TP3*%
X123444000Y-136906000D03*
%TD*%
%TO.C,TP2*%
X155956000Y-88900000D03*
%TD*%
D18*
%TO.C,C6*%
X123203000Y-80518000D03*
X121653000Y-80518000D03*
%TD*%
D14*
%TO.C,R5*%
X115000500Y-89154000D03*
X112075500Y-89154000D03*
%TD*%
D22*
%TO.C,A1*%
X135374500Y-73743000D03*
D23*
X135674500Y-76773000D03*
X140524500Y-76773000D03*
D22*
X140824500Y-73743000D03*
D24*
X128409500Y-73613000D03*
D25*
X129209500Y-73613000D03*
D26*
X128409500Y-76153000D03*
D27*
X129209500Y-76153000D03*
D28*
X128409500Y-78693000D03*
D29*
X129209500Y-78693000D03*
D26*
X128409500Y-81233000D03*
D27*
X129209500Y-81233000D03*
D26*
X128409500Y-83773000D03*
D27*
X129209500Y-83773000D03*
D26*
X128409500Y-86313000D03*
D27*
X129209500Y-86313000D03*
D26*
X128409500Y-88853000D03*
D27*
X129209500Y-88853000D03*
D28*
X128409500Y-91393000D03*
D29*
X129209500Y-91393000D03*
D26*
X128409500Y-93933000D03*
D27*
X129209500Y-93933000D03*
D26*
X128409500Y-96473000D03*
D27*
X129209500Y-96473000D03*
D26*
X128409500Y-99013000D03*
D27*
X129209500Y-99013000D03*
D26*
X128409500Y-101553000D03*
D27*
X129209500Y-101553000D03*
D28*
X128409500Y-104093000D03*
D29*
X129209500Y-104093000D03*
D26*
X128409500Y-106633000D03*
D27*
X129209500Y-106633000D03*
D26*
X128409500Y-109173000D03*
D27*
X129209500Y-109173000D03*
D26*
X128409500Y-111713000D03*
D27*
X129209500Y-111713000D03*
D26*
X128409500Y-114253000D03*
D27*
X129209500Y-114253000D03*
D28*
X128409500Y-116793000D03*
D29*
X129209500Y-116793000D03*
D26*
X128409500Y-119333000D03*
D27*
X129209500Y-119333000D03*
D26*
X128409500Y-121873000D03*
D27*
X129209500Y-121873000D03*
X146989500Y-121873000D03*
D26*
X147789500Y-121873000D03*
D27*
X146989500Y-119333000D03*
D26*
X147789500Y-119333000D03*
D30*
X146989500Y-116793000D03*
D24*
X147789500Y-116793000D03*
D27*
X146989500Y-114253000D03*
D26*
X147789500Y-114253000D03*
D27*
X146989500Y-111713000D03*
D26*
X147789500Y-111713000D03*
D27*
X146989500Y-109173000D03*
D26*
X147789500Y-109173000D03*
D27*
X146989500Y-106633000D03*
D26*
X147789500Y-106633000D03*
D30*
X146989500Y-104093000D03*
D24*
X147789500Y-104093000D03*
D27*
X146989500Y-101553000D03*
D26*
X147789500Y-101553000D03*
D27*
X146989500Y-99013000D03*
D26*
X147789500Y-99013000D03*
D27*
X146989500Y-96473000D03*
D26*
X147789500Y-96473000D03*
D27*
X146989500Y-93933000D03*
D26*
X147789500Y-93933000D03*
D30*
X146989500Y-91393000D03*
D24*
X147789500Y-91393000D03*
D27*
X146989500Y-88853000D03*
D26*
X147789500Y-88853000D03*
D27*
X146989500Y-86313000D03*
D26*
X147789500Y-86313000D03*
D27*
X146989500Y-83773000D03*
D26*
X147789500Y-83773000D03*
D27*
X146989500Y-81233000D03*
D26*
X147789500Y-81233000D03*
D30*
X146989500Y-78693000D03*
D24*
X147789500Y-78693000D03*
D27*
X146989500Y-76153000D03*
D26*
X147789500Y-76153000D03*
D27*
X146989500Y-73613000D03*
D26*
X147789500Y-73613000D03*
%TD*%
D18*
%TO.C,C5*%
X122949000Y-90424000D03*
X121399000Y-90424000D03*
%TD*%
D12*
%TO.C,U3*%
X117367000Y-83323000D03*
X117367000Y-83973000D03*
X117367000Y-84623000D03*
X117367000Y-85273000D03*
X117367000Y-85923000D03*
X117367000Y-86573000D03*
X117367000Y-87223000D03*
X117367000Y-87873000D03*
X122917000Y-87873000D03*
X122917000Y-87223000D03*
X122917000Y-86573000D03*
X122917000Y-85923000D03*
X122917000Y-85273000D03*
X122917000Y-84623000D03*
X122917000Y-83973000D03*
X122917000Y-83323000D03*
D13*
X119407000Y-84255500D03*
X119407000Y-85150500D03*
X119407000Y-86045500D03*
X119407000Y-86940500D03*
X120877000Y-84255500D03*
X120877000Y-85150500D03*
X120877000Y-86045500D03*
X120877000Y-86940500D03*
%TD*%
D17*
%TO.C,C4*%
X123649000Y-92456000D03*
X120699000Y-92456000D03*
%TD*%
D19*
%TO.C,J4*%
X154360000Y-109063000D03*
X154360000Y-107813000D03*
X154360000Y-106563000D03*
X154360000Y-105313000D03*
D20*
X157560000Y-110913000D03*
X157560000Y-103463000D03*
%TD*%
D15*
%TO.C,J2*%
X109474000Y-81868000D03*
D16*
X109474000Y-83868000D03*
X109474000Y-85868000D03*
X109474000Y-87868000D03*
X109474000Y-89868000D03*
X109474000Y-91868000D03*
%TD*%
D21*
%TO.C,TP4*%
X155956000Y-83312000D03*
%TD*%
M02*
